{
.appVersion = "3218";
.formatVersion = 3;
axes = (
{
name = Weight;
tag = wght;
}
);
classes = (
{
automatic = 1;
code = "A Aacute Abreve Acircumflex Adieresis Adotbelow Agrave Amacron Aogonek Aring Aringacute Atilde AE AEacute B C Cacute Ccaron Ccedilla Ccedillaacute Ccircumflex Cdotaccent D Dcaron Dcroat Ddotbelow Dmacronbelow Eth E Eacute Ebreve Ecaron Ecedillabreve Ecircumflex Edieresis Edotaccent Edotbelow Egrave Emacron Emacronacute Emacrongrave Eogonek Etilde F G Gbreve Gcaron Gcircumflex Gcommaaccent Gdotaccent Gmacron H Hbar Hbrevebelow Hcircumflex Hdotbelow I IJ Iacute Ibreve Icircumflex Idieresis Idieresisacute Idotaccent Idotbelow Igrave Imacron Iogonek Itilde J Jacute Jcircumflex K Kcommaaccent L Lacute Lcaron Lcommaaccent Ldot Ldotbelow Lmacronbelow Lslash M Mdotbelow N Nacute Ncaron Ncommaaccent Ndotaccent Ndotbelow Nhookleft Nmacronbelow Ntilde Eng O Oacute Obreve Ocircumflex Odieresis Odotbelow Ograve Ohungarumlaut Omacron Omacronacute Omacrongrave Oogonek Oslash Oslashacute Otilde Otildeacute Otildedieresis OE P Thorn Q R Racute Rcaron Rcommaaccent Rdotbelow Rmacronbelow S Sacute Sacutedotaccent Scaron Scarondotaccent Scedilla Scircumflex Scommaaccent Sdotaccent Sdotbelow Sdotbelowdotaccent Germandbls T Tbar Tcaron Tcedilla Tcommaaccent Tdotbelow Tmacronbelow U Uacute Ubreve Ucircumflex Udieresis Udotbelow Ugrave Uhungarumlaut Umacron Umacrondieresis Uogonek Uring Utilde Utildeacute V W Wacute Wcircumflex Wdieresis Wgrave X Y Yacute Ycircumflex Ydieresis Ydotaccent Ygrave Ymacron Ytilde Z Zacute Zcaron Zdotaccent Zdotbelow Delta Omega";
name = Uppercase;
}
);
customParameters = (
{
name = blueScale;
value = 0.037;
},
{
name = fsType;
value = (
);
},
{
name = "Use Typo Metrics";
value = 1;
},
{
name = "gasp Table";
value = {
"21" = 7;
"65535" = 15;
"9" = 10;
};
},
{
name = panose;
value = (
2,
11,
3,
4,
4,
4,
2,
0,
2,
3
);
},
{
name = unicodeRanges;
value = (
0,
1
);
},
{
name = codePageRanges;
value = (
"1252"
);
},
{

glyphs = (
{
glyphname = A;
kernLeft = A;
kernRight = A;
lastChange = "2023-09-13 12:05:25 +0000";
layers = (
{
anchors = (
{
name = bottom;
pos = (323,0);
},
{
name = ogonek;
pos = (557,-6);
},
{
name = top;
pos = (323,700);
}
);
hints = (
{
horizontal = 1;
place = (223,64);
type = Stem;
},
{
place = (11,630);
type = Stem;
}
);
layerId = "1041D826-7B5A-4F1A-81FD-3B5FB25AF0FC";
shapes = (
{
closed = 1;
nodes = (
(474,257,l),
(166,257,l),
(141,193,l),
(499,193,l)
);
},
{
closed = 1;
nodes = (
(631,0,l),
(357,700,l),
(289,700,l),
(15,0,l),
(89,0,l),
(330,617,l),
(316,617,l),
(557,0,l)
);
}
);
width = 646;
},
{
anchors = (
{
name = bottom;
pos = (353,0);
},
{
name = ogonek;
pos = (544,-6);
},
{
name = top;
pos = (353,700);
}
);
hints = (
{
horizontal = 1;
place = (199,132);
type = Stem;
},
{
place = (17,677);
type = Stem;
}
);
layerId = "3B5F2A21-9AC0-43BD-916B-7DC2040966BF";
shapes = (
{
closed = 1;
nodes = (
(472,260,l),
(226,260,l),
(174,128,l),
(523,128,l)
);
},
{
closed = 1;
nodes = (
(694,0,l),
(420,700,l),
(289,700,l),
(15,0,l),
(167,0,l),
(371,522,l),
(339,522,l),
(542,0,l)
);
}
);
width = 707;
},
{
anchors = (
{
name = bottom;
pos = (303,0);
},
{
name = ogonek;
pos = (566,-6);
},
{
name = top;
pos = (303,700);
}
);
hints = (
{
horizontal = 1;
place = (239,19);
type = Stem;
},
{
place = (7,599);
type = Stem;
}
);
layerId = "2AB56609-6B3E-483D-8034-BAE7113127E2";
shapes = (
{
closed = 1;
nodes = (
(475,255,l),
(126,255,l),
(119,236,l),
(483,236,l)
);
},
{
closed = 1;
nodes = (
(589,0,l),
(315,700,l),
(289,700,l),
(15,0,l),
(37,0,l),
(303,680,l),
(301,680,l),
(567,0,l)
);
}
);
width = 605.33333;
},
{
anchors = (
{
name = bottom;
pos = (358,0);
},
{
name = ogonek;
pos = (542,-6);
},
{
name = top;
pos = (358,700);
}
);
hints = (
{
horizontal = 1;
place = (195,143);
type = Stem;
},
{
place = (18,685);
type = Stem;
}
);
layerId = "1DB3F64C-B148-42AA-8299-ED68ABA9E6AC";
shapes = (
{
closed = 1;
nodes = (
(472,261,l),
(236,261,l),
(180,117,l),
(527,117,l)
);
},
{
closed = 1;
nodes = (
(705,0,l),
(431,700,l),
(289,700,l),
(15,0,l),
(180,0,l),
(378,506,l),
(343,506,l),
(540,0,l)
);
}
);
width = 717.16667;
}
);
note = A;
unicode = 65;
},
{
glyphname = AE;
kernLeft = AE;
kernRight = E;
lastChange = "2023-09-13 12:05:25 +0000";
layers = (
{
anchors = (
{
name = bottom;
pos = (551,0);
},
{
name = top;
pos = (777,700);
}
);
hints = (
{
horizontal = 1;
place = (0,64);
type = Stem;
},
{
horizontal = 1;
place = (223,64);
type = Stem;
},
{
horizontal = 1;
place = (322,64);
type = Stem;
},
{
horizontal = 1;
place = (636,64);
type = Stem;
},
{
place = (574,70);
type = Stem;
}
);
layerId = "1041D826-7B5A-4F1A-81FD-3B5FB25AF0FC";
shapes = (
{
closed = 1;
nodes = (
(118,0,l),
(291,223,l),
(574,223,l),
(574,0,l),
(1027,0,l),
(1027,64,l),
(644,64,l),
(644,322,l),
(952,322,l),
(952,386,l),
(644,386,l),
(644,636,l),
(1027,636,l),
(1027,700,l),
(581,700,l),
(30,0,l)
);
},
{
closed = 1;
nodes = (
(574,583,l),
(574,287,l),
(342,287,l)
);
}
);
width = 1102;
},
{
anchors = (
{
name = bottom;
pos = (551,0);
},
{
name = top;
pos = (777,700);
}
);
hints = (
{
horizontal = 1;
place = (0,132);
type = Stem;
},
{
horizontal = 1;
place = (200,132);
type = Stem;
},
{
horizontal = 1;
place = (568,132);
type = Stem;
},
{
place = (558,143);
type = Stem;
},
{
horizontal = 1;
place = (287,132);
type = Stem;
}
);
layerId = "3B5F2A21-9AC0-43BD-916B-7DC2040966BF";
shapes = (
{
closed = 1;
nodes = (
(192,1,l),
(347,200,l),
(558,200,l),
(558,0,l),
(1043,0,l),
(1043,132,l),
(701,132,l),
(701,287,l),
(976,287,l),
(976,419,l),
(701,419,l),
(701,568,l),
(1043,568,l),
(1043,700,l),
(569,700,l),
(13,1,l)
);
},
{
closed = 1;
nodes = (
(558,473,l),
(558,332,l),
(450,332,l)
);
}
);
width = 1102;
},
{
anchors = (
{
name = bottom;
pos = (551,0);
},
{
name = top;
pos = (777,700);
}
);
hints = (
{
horizontal = 1;
place = (0,19);
type = Stem;
},
{
horizontal = 1;
place = (238,19);
type = Stem;
},
{
horizontal = 1;
place = (345,19);
type = Stem;
},
{
horizontal = 1;
place = (681,19);
type = Stem;
},
{
place = (585,21);
type = Stem;
}
);
layerId = "2AB56609-6B3E-483D-8034-BAE7113127E2";
shapes = (
{
closed = 1;
nodes = (
(69,-1,l),
(254,238,l),
(585,238,l),
(585,0,l),
(1016,0,l),
(1016,19,l),
(606,19,l),
(606,345,l),
(936,345,l),
(936,364,l),
(606,364,l),
(606,681,l),
(1016,681,l),
(1016,700,l),
(589,700,l),
(41,-1,l)
);
},
{
closed = 1;
nodes = (
(585,656,l),
(585,257,l),
(270,257,l)
);
}
);
width = 1102;
},
{
anchors = (
{
name = bottom;
pos = (551,0);
},
{
name = top;
pos = (777,700);
}
);
hints = (
{
horizontal = 1;
place = (0,143);
type = Stem;
},
{
horizontal = 1;
place = (196,143);
type = Stem;
},
{
horizontal = 1;
place = (281,143);
type = Stem;
},
{
horizontal = 1;
place = (557,143);
type = Stem;
},
{
place = (555,155);
type = Stem;
}
);
layerId = "1DB3F64C-B148-42AA-8299-ED68ABA9E6AC";
shapes = (
{
closed = 1;
nodes = (
(204,1,l),
(356,196,l),
(555,196,l),
(555,0,l),
(1046,0,l),
(1046,143,l),
(711,143,l),
(711,281,l),
(980,281,l),
(980,425,l),
(711,425,l),
(711,557,l),
(1046,557,l),
(1046,700,l),
(567,700,l),
(10,1,l)
);
},
{
closed = 1;
nodes = (
(555,455,l),
(555,340,l),
(468,340,l)
);
}
);
width = 1102;
}
);
note = AE;
unicode = 198;
},
{
glyphname = B;
kernLeft = H;
kernRight = B;
lastChange = "2023-09-13 12:05:25 +0000";
layers = (
{
anchors = (
{
name = bottom;
pos = (297,0);
},
{
name = top;
pos = (297,700);
}
);
hints = (
{
horizontal = 1;
place = (0,64);
type = Stem;
},
{
horizontal = 1;
place = (372,64);
type = Stem;
},
{
horizontal = 1;
place = (636,64);
type = Stem;
},
{
place = (86,70);
type = Stem;
},
{
place = (496,70);
type = Stem;
},
{
place = (409,70);
type = Stem;
}
);
layerId = "1041D826-7B5A-4F1A-81FD-3B5FB25AF0FC";
shapes = (
{
closed = 1;
nodes = (
(560,353,o),
(456,411,o),
(369,411,cs),
(149,411,l),
(149,395,l),
(309,395,ls),
(441,395,o),
(473,457,o),
(473,536,cs),
(473,627,o),
(399,700,o),
(309,700,cs),
(80,700,l),
(80,0,l),
(330,0,ls),
(465,0,o),
(560,90,o),
(560,218,cs)
);
},
{
closed = 1;
nodes = (
(150,372,l),
(333,372,ls),
(445,372,o),
(490,294,o),
(490,218,cs),
(490,130,o),
(437,64,o),
(310,64,cs),
(150,64,l)
);
},
{
closed = 1;
nodes = (
(150,636,l),
(309,636,ls),
(359,636,o),
(403,592,o),
(403,536,cs),
(403,481,o),
(384,436,o),
(311,436,cs),
(150,436,l)
);
}
);
width = 590;
},
{
anchors = (
{
name = bottom;
pos = (312,0);
},
{
name = top;
pos = (312,700);
}
);
hints = (
{
horizontal = 1;
place = (0,132);
type = Stem;
},
{
horizontal = 1;
place = (332,133);
type = Stem;
},
{
horizontal = 1;
place = (568,132);
type = Stem;
},
{
place = (71,143);
type = Stem;
},
{
place = (437,143);
type = Stem;
},
{
place = (359,143);
type = Stem;
}
);
layerId = "3B5F2A21-9AC0-43BD-916B-7DC2040966BF";
shapes = (
{
closed = 1;
nodes = (
(589,365,o),
(456,411,o),
(392,411,cs),
(222,411,l),
(222,385,l),
(352,385,ls),
(457,385,o),
(511,427,o),
(511,516,cs),
(511,617,o),
(428,700,o),
(325,700,cs),
(80,700,l),
(80,0,l),
(349,0,ls),
(486,0,o),
(589,105,o),
(589,232,cs)
);
},
{
closed = 1;
nodes = (
(223,332,l),
(320,332,ls),
(398,332,o),
(446,289,o),
(446,232,cs),
(446,164,o),
(398,132,o),
(320,132,cs),
(223,132,l)
);
},
{
closed = 1;
nodes = (
(223,568,l),
(315,568,ls),
(347,568,o),
(368,547,o),
(368,516,cs),
(368,486,o),
(348,465,o),
(316,465,cs),
(223,465,l)
);
}
);
width = 619;
},
{
anchors = (
{
name = bottom;
pos = (287,0);
},
{
name = top;
pos = (287,700);
}
);
hints = (
{
horizontal = 1;
place = (0,19);
type = Stem;
},
{
horizontal = 1;
place = (399,18);
type = Stem;
},
{
horizontal = 1;
place = (681,19);
type = Stem;
},
{
place = (96,21);
type = Stem;
},
{
place = (535,21);
type = Stem;
},
{
place = (442,21);
type = Stem;
}
);
layerId = "2AB56609-6B3E-483D-8034-BAE7113127E2";
shapes = (
{
closed = 1;
nodes = (
(541,345,o),
(456,411,o),
(354,411,cs),
(100,411,l),
(100,402,l),
(280,402,ls),
(430,402,o),
(448,477,o),
(448,549,cs),
(448,634,o),
(380,700,o),
(298,700,cs),
(80,700,l),
(80,0,l),
(317,0,ls),
(451,0,o),
(541,80,o),
(541,209,cs)
);
},
{
closed = 1;
nodes = (
(101,399,l),
(342,399,ls),
(476,399,o),
(519,297,o),
(519,209,cs),
(519,107,o),
(463,19,o),
(303,19,cs),
(101,19,l)
);
},
{
closed = 1;
nodes = (
(101,681,l),
(305,681,ls),
(367,681,o),
(426,622,o),
(426,549,cs),
(426,478,o),
(408,417,o),
(308,417,cs),
(101,417,l)
);
}
);
width = 570.66667;
},
{
anchors = (
{
name = bottom;
pos = (315,0);
},
{
name = top;
pos = (315,700);
}
);
hints = (
{
horizontal = 1;
place = (0,143);
type = Stem;
},
{
horizontal = 1;
place = (325,145);
type = Stem;
},
{
horizontal = 1;
place = (557,143);
type = Stem;
},
{
place = (69,155);
type = Stem;
},
{
place = (427,155);
type = Stem;
},
{
place = (351,155);
type = Stem;
}
);
layerId = "1DB3F64C-B148-42AA-8299-ED68ABA9E6AC";
shapes = (
{
closed = 1;
nodes = (
(594,367,o),
(456,411,o),
(396,411,cs),
(234,411,l),
(234,383,l),
(359,383,ls),
(460,383,o),
(517,422,o),
(517,513,cs),
(517,615,o),
(433,700,o),
(328,700,cs),
(80,700,l),
(80,0,l),
(352,0,ls),
(490,0,o),
(594,108,o),
(594,234,cs)
);
},
{
closed = 1;
nodes = (
(235,325,l),
(318,325,ls),
(390,325,o),
(439,288,o),
(439,234,cs),
(439,170,o),
(392,143,o),
(322,143,cs),
(235,143,l)
);
},
{
closed = 1;
nodes = (
(235,557,l),
(316,557,ls),
(345,557,o),
(362,540,o),
(362,513,cs),
(362,487,o),
(342,470,o),
(317,470,cs),
(235,470,l)
);
}
);
width = 623.83333;
}
);
note = B;
unicode = 66;
},
{
glyphname = C;
kernLeft = C;
kernRight = C;
lastChange = "2023-09-13 12:05:25 +0000";
layers = (
{
anchors = (
{
name = bottom;
pos = (378,-2);
},
{
name = top;
pos = (337,700);
}
);
hints = (
{
horizontal = 1;
place = (-2,64);
type = Stem;
},
{
horizontal = 1;
place = (637,64);
type = Stem;
},
{
place = (36,70);
type = Stem;
}
);
layerId = "1041D826-7B5A-4F1A-81FD-3B5FB25AF0FC";
shapes = (
{
closed = 1;
nodes = (
(486,-2,o),
(582,53,o),
(643,138,c),
(586,176,l),
(534,104,o),
(462,62,o),
(378,62,cs),
(236,62,o),
(115,189,o),
(115,350,cs),
(115,497,o),
(223,637,o),
(378,637,cs),
(456,637,o),
(524,601,o),
(576,537,c),
(630,578,l),
(569,654,o),
(479,701,o),
(378,701,cs),
(176,701,o),
(45,527,o),
(45,350,cs),
(45,156,o),
(194,-2,o),
(378,-2,cs)
);
}
);
width = 673;
},
{
anchors = (
{
name = bottom;
pos = (376,-2);
},
{
name = top;
pos = (354,700);
}
);
hints = (
{
horizontal = 1;
place = (-2,132);
type = Stem;
},
{
horizontal = 1;
place = (569,132);
type = Stem;
},
{
place = (38,143);
type = Stem;
}
);
layerId = "3B5F2A21-9AC0-43BD-916B-7DC2040966BF";
shapes = (
{
closed = 1;
nodes = (
(505,-2,o),
(620,74,o),
(672,172,c),
(556,248,l),
(512,170,o),
(455,130,o),
(382,130,cs),
(279,130,o),
(188,226,o),
(188,350,cs),
(188,464,o),
(270,569,o),
(382,569,cs),
(451,569,o),
(505,534,o),
(550,463,c),
(661,546,l),
(608,634,o),
(497,701,o),
(382,701,cs),
(176,701,o),
(45,525,o),
(45,350,cs),
(45,157,o),
(195,-2,o),
(382,-2,cs)
);
}
);
width = 702;
},
{
anchors = (
{
name = bottom;
pos = (379,-2);
},
{
name = top;
pos = (326,700);
}
);
hints = (
{
horizontal = 1;
place = (-2,19);
type = Stem;
},
{
horizontal = 1;
place = (682,19);
type = Stem;
},
{
place = (35,21);
type = Stem;
}
);
layerId = "2AB56609-6B3E-483D-8034-BAE7113127E2";
shapes = (
{
closed = 1;
nodes = (
(473,-2,o),
(557,39,o),
(624,115,c),
(606,128,l),
(549,60,o),
(467,17,o),
(375,17,cs),
(207,17,o),
(66,164,o),
(66,350,cs),
(66,519,o),
(192,682,o),
(375,682,cs),
(459,682,o),
(537,646,o),
(593,586,c),
(609,599,l),
(543,667,o),
(467,701,o),
(375,701,cs),
(176,701,o),
(45,528,o),
(45,350,cs),
(45,155,o),
(193,-2,o),
(375,-2,cs)
);
}
);
width = 653.66667;
},
{
anchors = (
{
name = bottom;
pos = (376,-2);
},
{
name = top;
pos = (357,700);
}
);
hints = (
{
horizontal = 1;
place = (-2,143);
type = Stem;
},
{
horizontal = 1;
place = (558,143);
type = Stem;
},
{
place = (38,155);
type = Stem;
}
);
layerId = "1DB3F64C-B148-42AA-8299-ED68ABA9E6AC";
shapes = (
{
closed = 1;
nodes = (
(508,-2,o),
(626,78,o),
(677,178,c),
(551,260,l),
(508,181,o),
(454,141,o),
(383,141,cs),
(286,141,o),
(200,232,o),
(200,350,cs),
(200,459,o),
(278,558,o),
(383,558,cs),
(450,558,o),
(502,523,o),
(546,451,c),
(666,541,l),
(615,631,o),
(500,701,o),
(383,701,cs),
(176,701,o),
(45,525,o),
(45,350,cs),
(45,157,o),
(195,-2,o),
(383,-2,cs)
);
}
);
width = 706.83333;
}
);
note = C;
unicode = 67;
},
{
glyphname = D;
kernLeft = H;
kernRight = D;
lastChange = "2023-09-13 12:05:25 +0000";
layers = (
{
anchors = (
{
name = bottom;
pos = (314,0);
},
{
name = top;
pos = (314,700);
}
);
hints = (
{
horizontal = 1;
place = (0,64);
type = Stem;
},
{
horizontal = 1;
place = (636,64);
type = Stem;
},
{
place = (86,70);
type = Stem;
},
{
place = (509,70);
type = Stem;
}
);
layerId = "1041D826-7B5A-4F1A-81FD-3B5FB25AF0FC";
shapes = (
{
closed = 1;
nodes = (
(242,0,ls),
(479,0,o),
(593,149,o),
(593,350,cs),
(593,553,o),
(486,700,o),
(237,700,cs),
(80,700,l),
(80,0,l)
);
},
{
closed = 1;
nodes = (
(150,636,l),
(237,636,ls),
(441,636,o),
(523,526,o),
(523,350,cs),
(523,177,o),
(435,64,o),
(242,64,cs),
(150,64,l)
);
}
);
width = 638;
},
{
anchors = (
{
name = bottom;
pos = (333,0);
},
{
name = top;
pos = (333,700);
}
);
hints = (
{
horizontal = 1;
place = (0,132);
type = Stem;
},
{
horizontal = 1;
place = (568,132);
type = Stem;
},
{
place = (102,143);
type = Stem;
},
{
place = (480,143);
type = Stem;
}
);
layerId = "3B5F2A21-9AC0-43BD-916B-7DC2040966BF";
shapes = (
{
closed = 1;
nodes = (
(277,0,ls),
(514,0,o),
(631,153,o),
(631,350,cs),
(631,548,o),
(522,700,o),
(272,700,cs),
(80,700,l),
(80,0,l)
);
},
{
closed = 1;
nodes = (
(223,568,l),
(272,568,ls),
(428,568,o),
(488,490,o),
(488,350,cs),
(488,213,o),
(423,132,o),
(277,132,cs),
(223,132,l)
);
}
);
width = 676;
},
{
anchors = (
{
name = bottom;
pos = (301,0);
},
{
name = top;
pos = (301,700);
}
);
hints = (
{
horizontal = 1;
place = (0,19);
type = Stem;
},
{
horizontal = 1;
place = (681,19);
type = Stem;
},
{
place = (75,21);
type = Stem;
},
{
place = (528,21);
type = Stem;
}
);
layerId = "2AB56609-6B3E-483D-8034-BAE7113127E2";
shapes = (
{
closed = 1;
nodes = (
(219,0,ls),
(456,0,o),
(568,146,o),
(568,350,cs),
(568,556,o),
(462,700,o),
(214,700,cs),
(80,700,l),
(80,0,l)
);
},
{
closed = 1;
nodes = (
(101,681,l),
(214,681,ls),
(450,681,o),
(546,550,o),
(546,350,cs),
(546,153,o),
(443,19,o),
(219,19,cs),
(101,19,l)
);
}
);
width = 612.66667;
},
{
anchors = (
{
name = bottom;
pos = (336,0);
},
{
name = top;
pos = (336,700);
}
);
hints = (
{
horizontal = 1;
place = (0,143);
type = Stem;
},
{
horizontal = 1;
place = (557,143);
type = Stem;
},
{
place = (105,155);
type = Stem;
},
{
place = (475,155);
type = Stem;
}
);
layerId = "1DB3F64C-B148-42AA-8299-ED68ABA9E6AC";
shapes = (
{
closed = 1;
nodes = (
(283,0,ls),
(520,0,o),
(637,154,o),
(637,350,cs),
(637,547,o),
(528,700,o),
(278,700,cs),
(80,700,l),
(80,0,l)
);
},
{
closed = 1;
nodes = (
(235,557,l),
(278,557,ls),
(426,557,o),
(482,484,o),
(482,350,cs),
(482,219,o),
(421,143,o),
(283,143,cs),
(235,143,l)
);
}
);
width = 682.33333;
}
);
note = D;
unicode = 68;
},
{
glyphname = Eth;
kernLeft = Eth;
kernRight = D;
lastChange = "2023-09-13 12:05:25 +0000";
layers = (
{
hints = (
{
horizontal = 1;
place = (0,64);
type = Stem;
},
{
horizontal = 1;
place = (295,62);
type = Stem;
},
{
horizontal = 1;
place = (636,64);
type = Stem;
},
{
place = (176,70);
type = Stem;
},
{
place = (599,70);
type = Stem;
}
);
layerId = "1041D826-7B5A-4F1A-81FD-3B5FB25AF0FC";
shapes = (
{
closed = 1;
nodes = (
(318,0,ls),
(555,0,o),
(669,149,o),
(669,350,cs),
(669,553,o),
(562,700,o),
(313,700,cs),
(176,700,l),
(176,357,l),
(20,357,l),
(20,295,l),
(176,295,l),
(176,0,l)
);
},
{
closed = 1;
nodes = (
(246,295,l),
(386,295,l),
(386,357,l),
(246,357,l),
(246,636,l),
(313,636,ls),
(517,636,o),
(599,526,o),
(599,350,cs),
(599,177,o),
(511,64,o),
(318,64,cs),
(246,64,l)
);
}
);
width = 721;
},
{
hints = (
{
horizontal = 1;
place = (0,132);
type = Stem;
},
{
horizontal = 1;
place = (260,130);
type = Stem;
},
{
horizontal = 1;
place = (568,132);
type = Stem;
},
{
place = (159,143);
type = Stem;
},
{
place = (537,143);
type = Stem;
}
);
layerId = "3B5F2A21-9AC0-43BD-916B-7DC2040966BF";
shapes = (
{
closed = 1;
nodes = (
(327,0,ls),
(564,0,o),
(680,153,o),
(680,350,cs),
(680,548,o),
(571,700,o),
(322,700,cs),
(159,700,l),
(159,390,l),
(61,390,l),
(61,260,l),
(159,260,l),
(159,0,l)
);
},
{
closed = 1;
nodes = (
(302,260,l),
(425,260,l),
(425,390,l),
(302,390,l),
(302,568,l),
(322,568,ls),
(478,568,o),
(537,490,o),
(537,350,cs),
(537,213,o),
(473,132,o),
(327,132,cs),
(302,132,l)
);
}
);
width = 721;
},
{
hints = (
{
horizontal = 1;
place = (0,19);
type = Stem;
},
{
horizontal = 1;
place = (318,17);
type = Stem;
},
{
horizontal = 1;
place = (681,19);
type = Stem;
},
{
place = (187,21);
type = Stem;
},
{
place = (640,21);
type = Stem;
}
);
layerId = "2AB56609-6B3E-483D-8034-BAE7113127E2";
shapes = (
{
closed = 1;
nodes = (
(312,0,ls),
(549,0,o),
(662,146,o),
(662,350,cs),
(662,556,o),
(556,700,o),
(307,700,cs),
(187,700,l),
(187,335,l),
(-7,335,l),
(-7,318,l),
(187,318,l),
(187,0,l)
);
},
{
closed = 1;
nodes = (
(209,318,l),
(360,318,l),
(360,335,l),
(209,335,l),
(209,681,l),
(307,681,ls),
(543,681,o),
(640,550,o),
(640,350,cs),
(640,153,o),
(536,19,o),
(312,19,cs),
(209,19,l)
);
}
);
width = 721;
},
{
hints = (
{
horizontal = 1;
place = (0,143);
type = Stem;
},
{
horizontal = 1;
place = (254,141);
type = Stem;
},
{
horizontal = 1;
place = (557,143);
type = Stem;
},
{
place = (156,155);
type = Stem;
},
{
place = (527,155);
type = Stem;
}
);
layerId = "1DB3F64C-B148-42AA-8299-ED68ABA9E6AC";
shapes = (
{
closed = 1;
nodes = (
(329,0,ls),
(566,0,o),
(682,154,o),
(682,350,cs),
(682,547,o),
(573,700,o),
(324,700,cs),
(156,700,l),
(156,396,l),
(68,396,l),
(68,254,l),
(156,254,l),
(156,0,l)
);
},
{
closed = 1;
nodes = (
(311,254,l),
(432,254,l),
(432,396,l),
(311,396,l),
(311,557,l),
(324,557,ls),
(472,557,o),
(527,484,o),
(527,350,cs),
(527,219,o),
(467,143,o),
(329,143,cs),
(311,143,l)
);
}
);
width = 721;
}
);
note = Eth;
unicode = 208;
},
{
glyphname = E;
kernLeft = H;
kernRight = E;
lastChange = "2023-09-13 12:05:25 +0000";
layers = (
{
anchors = (
{
name = bottom;
pos = (309,0);
},
{
name = ogonek;
pos = (406,-6);
},
{
name = top;
pos = (309,700);
}
);
hints = (
{
horizontal = 1;
place = (0,64);
type = Stem;
},
{
horizontal = 1;
place = (322,64);
type = Stem;
},
{
horizontal = 1;
place = (636,64);
type = Stem;
},
{
place = (86,70);
type = Stem;
}
);
layerId = "1041D826-7B5A-4F1A-81FD-3B5FB25AF0FC";
shapes = (
{
closed = 1;
nodes = (
(533,0,l),
(533,64,l),
(150,64,l),
(150,322,l),
(458,322,l),
(458,386,l),
(150,386,l),
(150,636,l),
(532,636,l),
(532,700,l),
(80,700,l),
(80,0,l)
);
}
);
width = 564;
},
{
anchors = (
{
name = bottom;
pos = (339,0);
},
{
name = ogonek;
pos = (422,-6);
},
{
name = top;
pos = (310,700);
}
);
hints = (
{
horizontal = 1;
place = (0,132);
type = Stem;
},
{
horizontal = 1;
place = (287,132);
type = Stem;
},
{
horizontal = 1;
place = (568,132);
type = Stem;
},
{
place = (70,143);
type = Stem;
}
);
layerId = "3B5F2A21-9AC0-43BD-916B-7DC2040966BF";
shapes = (
{
closed = 1;
nodes = (
(565,0,l),
(565,132,l),
(223,132,l),
(223,287,l),
(498,287,l),
(498,419,l),
(223,419,l),
(223,568,l),
(564,568,l),
(564,700,l),
(80,700,l),
(80,0,l)
);
}
);
width = 610;
},
{
anchors = (
{
name = bottom;
pos = (289,0);
},
{
name = ogonek;
pos = (395,-6);
},
{
name = top;
pos = (308,700);
}
);
hints = (
{
horizontal = 1;
place = (0,19);
type = Stem;
},
{
horizontal = 1;
place = (345,19);
type = Stem;
},
{
horizontal = 1;
place = (681,19);
type = Stem;
},
{
place = (97,21);
type = Stem;
}
);
layerId = "2AB56609-6B3E-483D-8034-BAE7113127E2";
shapes = (
{
closed = 1;
nodes = (
(512,0,l),
(512,19,l),
(101,19,l),
(101,345,l),
(431,345,l),
(431,364,l),
(101,364,l),
(101,681,l),
(511,681,l),
(511,700,l),
(80,700,l),
(80,0,l)
);
}
);
width = 533.33333;
},
{
anchors = (
{
name = bottom;
pos = (344,0);
},
{
name = ogonek;
pos = (425,-6);
},
{
name = top;
pos = (310,700);
}
);
hints = (
{
horizontal = 1;
place = (0,143);
type = Stem;
},
{
horizontal = 1;
place = (281,143);
type = Stem;
},
{
horizontal = 1;
place = (557,143);
type = Stem;
},
{
place = (67,155);
type = Stem;
}
);
layerId = "1DB3F64C-B148-42AA-8299-ED68ABA9E6AC";
shapes = (
{
closed = 1;
nodes = (
(570,0,l),
(570,143,l),
(235,143,l),
(235,281,l),
(505,281,l),
(505,425,l),
(235,425,l),
(235,557,l),
(569,557,l),
(569,700,l),
(80,700,l),
(80,0,l)
);
}
);
width = 617.66667;
}
);
note = E;
unicode = 69;
},
{
glyphname = F;
kernLeft = H;
kernRight = F;
lastChange = "2023-09-13 12:05:25 +0000";
layers = (
{
anchors = (
{
name = bottom;
pos = (261,0);
},
{
name = top;
pos = (261,700);
}
);
hints = (
{
horizontal = 1;
place = (322,64);
type = Stem;
},
{
horizontal = 1;
place = (637,64);
type = Stem;
},
{
place = (85,70);
type = Stem;
}
);
layerId = "1041D826-7B5A-4F1A-81FD-3B5FB25AF0FC";
shapes = (
{
closed = 1;
nodes = (
(150,0,l),
(150,322,l),
(438,322,l),
(438,386,l),
(150,386,l),
(150,637,l),
(513,637,l),
(513,701,l),
(80,701,l),
(80,0,l)
);
}
);
width = 528;
},
{
anchors = (
{
name = bottom;
pos = (293,0);
},
{
name = top;
pos = (293,700);
}
);
hints = (
{
horizontal = 1;
place = (288,132);
type = Stem;
},
{
horizontal = 1;
place = (569,132);
type = Stem;
},
{
place = (68,143);
type = Stem;
}
);
layerId = "3B5F2A21-9AC0-43BD-916B-7DC2040966BF";
shapes = (
{
closed = 1;
nodes = (
(223,0,l),
(223,288,l),
(480,288,l),
(480,420,l),
(223,420,l),
(223,569,l),
(547,569,l),
(547,701,l),
(80,701,l),
(80,0,l)
);
}
);
width = 575;
},
{
anchors = (
{
name = bottom;
pos = (240,0);
},
{
name = top;
pos = (240,700);
}
);
hints = (
{
horizontal = 1;
place = (345,19);
type = Stem;
},
{
horizontal = 1;
place = (682,19);
type = Stem;
},
{
place = (96,21);
type = Stem;
}
);
layerId = "2AB56609-6B3E-483D-8034-BAE7113127E2";
shapes = (
{
closed = 1;
nodes = (
(101,0,l),
(101,345,l),
(410,345,l),
(410,363,l),
(101,363,l),
(101,682,l),
(490,682,l),
(490,701,l),
(80,701,l),
(80,0,l)
);
}
);
width = 496.66667;
},
{
anchors = (
{
name = bottom;
pos = (298,0);
},
{
name = top;
pos = (298,700);
}
);
hints = (
{
horizontal = 1;
place = (282,143);
type = Stem;
},
{
horizontal = 1;
place = (558,143);
type = Stem;
},
{
place = (65,155);
type = Stem;
}
);
layerId = "1DB3F64C-B148-42AA-8299-ED68ABA9E6AC";
shapes = (
{
closed = 1;
nodes = (
(235,0,l),
(235,282,l),
(487,282,l),
(487,426,l),
(235,426,l),
(235,558,l),
(553,558,l),
(553,701,l),
(80,701,l),
(80,0,l)
);
}
);
width = 582.83333;
}
);
note = F;
unicode = 70;
},
{
glyphname = G;
kernLeft = C;
kernRight = G;
lastChange = "2023-09-13 12:05:25 +0000";
layers = (
{
anchors = (
{
name = bottom;
pos = (399,0);
},
{
name = top;
pos = (399,700);
}
);
associatedMasterId = "3B5F2A21-9AC0-43BD-916B-7DC2040966BF";
hints = (
{
horizontal = 1;
place = (-2,132);
type = Stem;
},
{
horizontal = 1;
place = (256,132);
type = Stem;
},
{
horizontal = 1;
place = (569,132);
type = Stem;
},
{
place = (28,143);
type = Stem;
},
{
place = (500,142);
type = Stem;
}
);
layerId = "01852D24-F79C-49D1-B1DA-4B332825E01E";
name = "26 juil. 23  14:57";
shapes = (
{
closed = 1;
nodes = (
(466,-2,o),
(578,51,o),
(642,150,c),
(642,388,l),
(331,388,l),
(331,256,l),
(500,256,l),
(500,192,l),
(460,148,o),
(415,130,o),
(365,130,cs),
(262,130,o),
(171,226,o),
(171,350,cs),
(171,474,o),
(262,569,o),
(365,569,cs),
(425,569,o),
(474,542,o),
(520,485,c),
(620,579,l),
(566,649,o),
(466,701,o),
(365,701,cs),
(178,701,o),
(28,543,o),
(28,350,cs),
(28,157,o),
(178,-2,o),
(365,-2,cs)
);
}
);
width = 798;
},
{
anchors = (
{
name = bottom;
pos = (407,0);
},
{
name = top;
pos = (399,700);
}
);
hints = (
{
horizontal = 1;
place = (-2,132);
type = Stem;
},
{
horizontal = 1;
place = (256,132);
type = Stem;
},
{
horizontal = 1;
place = (569,132);
type = Stem;
},
{
place = (28,143);
type = Stem;
},
{
place = (500,142);
type = Stem;
},
{
horizontal = 1;
place = (0,132);
type = Stem;
},
{
horizontal = 1;
place = (570,132);
type = Stem;
},
{
place = (45,143);
type = Stem;
},
{
place = (610,143);
type = Stem;
}
);
layerId = "3B5F2A21-9AC0-43BD-916B-7DC2040966BF";
name = Bold;
shapes = (
{
closed = 1;
nodes = (
(510,-6,o),
(626,49,o),
(694,150,c),
(694,388,l),
(380,388,l),
(380,256,l),
(549,256,l),
(549,191,l),
(508,149,o),
(453,126,o),
(399,126,cs),
(284,126,o),
(188,223,o),
(188,350,cs),
(188,476,o),
(283,574,o),
(399,574,cs),
(467,574,o),
(529,539,o),
(568,485,c),
(671,580,l),
(606,658,o),
(508,706,o),
(399,706,cs),
(199,706,o),
(45,546,o),
(45,350,cs),
(45,152,o),
(203,-6,o),
(399,-6,cs)
);
}
);
width = 724;
},
{
anchors = (
{
name = bottom;
pos = (387,0);
},
{
name = top;
pos = (387,700);
}
);
associatedMasterId = "1041D826-7B5A-4F1A-81FD-3B5FB25AF0FC";
hints = (
{
horizontal = 1;
place = (-2,64);
type = Stem;
},
{
horizontal = 1;
place = (287,64);
type = Stem;
},
{
horizontal = 1;
place = (637,64);
type = Stem;
},
{
place = (36,70);
type = Stem;
},
{
place = (564,70);
type = Stem;
}
);
layerId = "3738992D-5FD7-4959-8258-A57854DC9D16";
name = "26 juil. 23  14:57";
shapes = (
{
closed = 1;
nodes = (
(467,-2,o),
(567,43,o),
(634,138,c),
(634,351,l),
(375,351,l),
(375,287,l),
(564,287,l),
(564,158,l),
(510,91,o),
(441,62,o),
(369,62,cs),
(227,62,o),
(106,189,o),
(106,350,cs),
(106,510,o),
(227,637,o),
(369,637,cs),
(436,637,o),
(495,610,o),
(545,562,c),
(594,609,l),
(535,666,o),
(456,701,o),
(369,701,cs),
(185,701,o),
(36,544,o),
(36,350,cs),
(36,155,o),
(185,-2,o),
(369,-2,cs)
);
}
);
width = 774;
},
{
anchors = (
{
name = bottom;
pos = (396,0);
},
{
name = top;
pos = (396,700);
}
);
hints = (
{
horizontal = 1;
place = (-2,64);
type = Stem;
},
{
horizontal = 1;
place = (287,64);
type = Stem;
},
{
horizontal = 1;
place = (637,64);
type = Stem;
},
{
place = (36,70);
type = Stem;
},
{
place = (564,70);
type = Stem;
},
{
horizontal = 1;
place = (0,64);
type = Stem;
},
{
horizontal = 1;
place = (638,64);
type = Stem;
},
{
place = (36,70);
type = Stem;
},
{
place = (669,70);
type = Stem;
}
);
layerId = "1041D826-7B5A-4F1A-81FD-3B5FB25AF0FC";
name = Regular;
shapes = (
{
closed = 1;
nodes = (
(502,-6,o),
(612,44,o),
(680,136,c),
(680,351,l),
(420,351,l),
(420,287,l),
(609,287,l),
(609,156,l),
(554,93,o),
(473,58,o),
(396,58,cs),
(243,58,o),
(115,186,o),
(115,350,cs),
(115,513,o),
(240,642,o),
(396,642,cs),
(464,642,o),
(522,617,o),
(571,576,c),
(623,623,l),
(562,675,o),
(482,706,o),
(396,706,cs),
(199,706,o),
(45,546,o),
(45,350,cs),
(45,151,o),
(202,-6,o),
(396,-6,cs)
);
}
);
width = 710;
},
{
anchors = (
{
name = bottom;
pos = (389,0);
},
{
name = top;
pos = (394,700);
}
);
hints = (
{
horizontal = 1;
place = (-2,19);
type = Stem;
},
{
horizontal = 1;
place = (308,19);
type = Stem;
},
{
horizontal = 1;
place = (682,19);
type = Stem;
},
{
place = (41,21);
type = Stem;
},
{
place = (607,22);
type = Stem;
},
{
horizontal = 1;
place = (0,19);
type = Stem;
},
{
horizontal = 1;
place = (683,19);
type = Stem;
},
{
place = (30,21);
type = Stem;
},
{
place = (708,21);
type = Stem;
}
);
layerId = "2AB56609-6B3E-483D-8034-BAE7113127E2";
name = Regular;
shapes = (
{
closed = 1;
nodes = (
(497,-6,o),
(603,41,o),
(671,127,c),
(671,326,l),
(447,326,l),
(447,308,l),
(649,308,l),
(649,133,l),
(585,56,o),
(486,13,o),
(394,13,cs),
(216,13,o),
(66,161,o),
(66,350,cs),
(66,538,o),
(211,687,o),
(394,687,cs),
(462,687,o),
(517,669,o),
(573,637,c),
(591,652,l),
(533,686,o),
(465,706,o),
(394,706,cs),
(199,706,o),
(45,546,o),
(45,350,cs),
(45,150,o),
(201,-6,o),
(394,-6,cs)
);
}
);
width = 700.66667;
},
{
anchors = (
{
name = bottom;
pos = (409,0);
},
{
name = top;
pos = (400,700);
}
);
hints = (
{
horizontal = 1;
place = (-2,143);
type = Stem;
},
{
horizontal = 1;
place = (251,143);
type = Stem;
},
{
horizontal = 1;
place = (558,143);
type = Stem;
},
{
place = (27,155);
type = Stem;
},
{
place = (489,154);
type = Stem;
},
{
horizontal = 1;
place = (0,143);
type = Stem;
},
{
horizontal = 1;
place = (559,143);
type = Stem;
},
{
place = (46,155);
type = Stem;
},
{
place = (600,155);
type = Stem;
}
);
layerId = "1DB3F64C-B148-42AA-8299-ED68ABA9E6AC";
name = Regular;
shapes = (
{
closed = 1;
nodes = (
(511,-6,o),
(628,50,o),
(696,152,c),
(696,394,l),
(373,394,l),
(373,251,l),
(539,251,l),
(539,197,l),
(500,158,o),
(450,137,o),
(400,137,cs),
(291,137,o),
(200,229,o),
(200,350,cs),
(200,470,o),
(290,563,o),
(400,563,cs),
(468,563,o),
(530,526,o),
(568,470,c),
(679,573,l),
(613,655,o),
(512,706,o),
(400,706,cs),
(199,706,o),
(45,546,o),
(45,350,cs),
(45,152,o),
(203,-6,o),
(400,-6,cs)
);
}
);
width = 726.33333;
}
);
note = G;
unicode = 71;
},
{
glyphname = H;
kernLeft = H;
kernRight = H;
lastChange = "2023-09-13 12:05:25 +0000";
layers = (
{
anchors = (
{
name = bottom;
pos = (354,0);
},
{
name = top;
pos = (354,700);
}
);
hints = (
{
horizontal = 1;
place = (322,64);
type = Stem;
},
{
place = (86,70);
type = Stem;
},
{
place = (565,70);
type = Stem;
}
);
layerId = "1041D826-7B5A-4F1A-81FD-3B5FB25AF0FC";
shapes = (
{
closed = 1;
nodes = (
(150,0,l),
(150,322,l),
(559,322,l),
(559,0,l),
(629,0,l),
(629,700,l),
(559,700,l),
(559,386,l),
(150,386,l),
(150,700,l),
(80,700,l),
(80,0,l)
);
}
);
width = 709;
},
{
anchors = (
{
name = bottom;
pos = (365,0);
},
{
name = top;
pos = (365,700);
}
);
hints = (
{
horizontal = 1;
place = (287,132);
type = Stem;
},
{
place = (75,143);
type = Stem;
},
{
place = (503,143);
type = Stem;
}
);
layerId = "3B5F2A21-9AC0-43BD-916B-7DC2040966BF";
shapes = (
{
closed = 1;
nodes = (
(223,0,l),
(223,287,l),
(508,287,l),
(508,0,l),
(651,0,l),
(651,700,l),
(508,700,l),
(508,419,l),
(223,419,l),
(223,700,l),
(80,700,l),
(80,0,l)
);
}
);
width = 731;
},
{
anchors = (
{
name = bottom;
pos = (347,0);
},
{
name = top;
pos = (347,700);
}
);
hints = (
{
horizontal = 1;
place = (345,19);
type = Stem;
},
{
place = (93,21);
type = Stem;
},
{
place = (606,21);
type = Stem;
}
);
layerId = "2AB56609-6B3E-483D-8034-BAE7113127E2";
shapes = (
{
closed = 1;
nodes = (
(101,0,l),
(101,345,l),
(593,345,l),
(593,0,l),
(614,0,l),
(614,700,l),
(593,700,l),
(593,364,l),
(101,364,l),
(101,700,l),
(80,700,l),
(80,0,l)
);
}
);
width = 694.33333;
},
{
anchors = (
{
name = bottom;
pos = (367,0);
},
{
name = top;
pos = (367,700);
}
);
hints = (
{
horizontal = 1;
place = (281,143);
type = Stem;
},
{
place = (73,155);
type = Stem;
},
{
place = (493,155);
type = Stem;
}
);
layerId = "1DB3F64C-B148-42AA-8299-ED68ABA9E6AC";
shapes = (
{
closed = 1;
nodes = (
(235,0,l),
(235,281,l),
(500,281,l),
(500,0,l),
(655,0,l),
(655,700,l),
(500,700,l),
(500,425,l),
(235,425,l),
(235,700,l),
(80,700,l),
(80,0,l)
);
}
);
width = 734.66667;
}
);
note = H;
unicode = 72;
},
{
glyphname = I;
kernLeft = I;
kernRight = I;
lastChange = "2023-09-13 12:05:25 +0000";
layers = (
{
anchors = (
{
name = bottom;
pos = (115,0);
},
{
name = top;
pos = (115,700);
}
);
hints = (
{
horizontal = 1;
place = (0,700);
type = Stem;
},
{
place = (86,70);
type = Stem;
}
);
layerId = "1041D826-7B5A-4F1A-81FD-3B5FB25AF0FC";
shapes = (
{
closed = 1;
nodes = (
(150,0,l),
(150,700,l),
(80,700,l),
(80,0,l)
);
}
);
width = 230;
},
{
anchors = (
{
name = bottom;
pos = (151,0);
},
{
name = top;
pos = (151,700);
}
);
hints = (
{
horizontal = 1;
place = (0,700);
type = Stem;
},
{
place = (79,143);
type = Stem;
}
);
layerId = "3B5F2A21-9AC0-43BD-916B-7DC2040966BF";
shapes = (
{
closed = 1;
nodes = (
(223,0,l),
(223,700,l),
(80,700,l),
(80,0,l)
);
}
);
width = 303;
},
{
anchors = (
{
name = bottom;
pos = (91,0);
},
{
name = top;
pos = (91,700);
}
);
hints = (
{
horizontal = 1;
place = (0,700);
type = Stem;
},
{
place = (91,21);
type = Stem;
}
);
layerId = "2AB56609-6B3E-483D-8034-BAE7113127E2";
shapes = (
{
closed = 1;
nodes = (
(101,0,l),
(101,700,l),
(80,700,l),
(80,0,l)
);
}
);
width = 181.33333;
},
{
anchors = (
{
name = bottom;
pos = (157,0);
},
{
name = top;
pos = (157,700);
}
);
hints = (
{
horizontal = 1;
place = (0,700);
type = Stem;
},
{
place = (78,155);
type = Stem;
}
);
layerId = "1DB3F64C-B148-42AA-8299-ED68ABA9E6AC";
shapes = (
{
closed = 1;
nodes = (
(235,0,l),
(235,700,l),
(80,700,l),
(80,0,l)
);
}
);
width = 315.16667;
}
);
note = I;
unicode = 73;
},
{
glyphname = J;
kernLeft = J;
kernRight = J;
lastChange = "2023-09-13 12:05:25 +0000";
layers = (
{
anchors = (
{
name = bottom;
pos = (231,0);
},
{
name = top;
pos = (231,700);
}
);
hints = (
{
horizontal = 1;
place = (-2,64);
type = Stem;
},
{
place = (33,70);
type = Stem;
},
{
place = (323,71);
type = Stem;
}
);
layerId = "1041D826-7B5A-4F1A-81FD-3B5FB25AF0FC";
shapes = (
{
closed = 1;
nodes = (
(314,-2,o),
(394,59,o),
(394,179,cs),
(394,701,l),
(323,701,l),
(323,179,ls),
(323,93,o),
(273,62,o),
(214,62,cs),
(154,62,o),
(103,113,o),
(103,179,c),
(33,179,l),
(33,79,o),
(114,-2,o),
(214,-2,cs)
);
}
);
width = 463;
},
{
anchors = (
{
name = bottom;
pos = (261,0);
},
{
name = top;
pos = (261,700);
}
);
hints = (
{
horizontal = 1;
place = (-2,132);
type = Stem;
},
{
place = (42.48,142.31);
type = Stem;
},
{
place = (301,144);
type = Stem;
}
);
layerId = "3B5F2A21-9AC0-43BD-916B-7DC2040966BF";
shapes = (
{
closed = 1;
nodes = (
(356,-2,o),
(446,88,o),
(445,197,c),
(445,701,l),
(301,701,l),
(301,208,ls),
(302,149,o),
(274,130,o),
(244,130,cs),
(204,130,o),
(168,178,o),
(193,235,c),
(46,235,l),
(22,109,o),
(119,-2,o),
(244,-2,cs)
);
}
);
width = 523;
},
{
anchors = (
{
name = bottom;
pos = (211,0);
},
{
name = top;
pos = (211,700);
}
);
hints = (
{
horizontal = 1;
place = (-2,19);
type = Stem;
},
{
place = (27,22);
type = Stem;
},
{
place = (338,22);
type = Stem;
}
);
layerId = "2AB56609-6B3E-483D-8034-BAE7113127E2";
shapes = (
{
closed = 1;
nodes = (
(286,-2,o),
(359,40,o),
(360,167,cs),
(360,701,l),
(338,701,l),
(338,160,ls),
(337,56,o),
(272,17,o),
(194,17,cs),
(121,17,o),
(60,70,o),
(43,142,c),
(24,142,l),
(40,59,o),
(111,-2,o),
(194,-2,cs)
);
}
);
width = 423;
},
{
anchors = (
{
name = bottom;
pos = (266,0);
},
{
name = top;
pos = (266,700);
}
);
hints = (
{
horizontal = 1;
place = (-2,143);
type = Stem;
},
{
place = (44,154);
type = Stem;
},
{
place = (297,156);
type = Stem;
}
);
layerId = "1DB3F64C-B148-42AA-8299-ED68ABA9E6AC";
shapes = (
{
closed = 1;
nodes = (
(363,-2,o),
(455,93,o),
(454,200,cs),
(454,701,l),
(297,701,l),
(297,213,ls),
(299,158,o),
(274,141,o),
(249,141,cs),
(212,141,o),
(179,189,o),
(208,244,c),
(48,244,l),
(20,114,o),
(120,-2,o),
(249,-2,cs)
);
}
);
width = 533;
}
);
note = J;
unicode = 74;
},
{
glyphname = K;
kernLeft = H;
kernRight = K;
lastChange = "2023-09-13 12:05:25 +0000";
layers = (
{
anchors = (
{
name = bottom;
pos = (300,0);
},
{
name = top;
pos = (300,700);
}
);
hints = (
{
horizontal = 1;
place = (0,702);
type = Stem;
},
{
place = (87,70);
type = Stem;
}
);
layerId = "1041D826-7B5A-4F1A-81FD-3B5FB25AF0FC";
shapes = (
{
closed = 1;
nodes = (
(150,0,l),
(150,314,l),
(138,283,l),
(226,365,l),
(210,369,l),
(491,0,l),
(580,0,l),
(264,411,l),
(261,397,l),
(586,700,l),
(486,700,l),
(135,373,l),
(150,354,l),
(150,700,l),
(80,700,l),
(80,0,l)
);
}
);
width = 596;
},
{
anchors = (
{
name = bottom;
pos = (356,0);
},
{
name = top;
pos = (356,700);
}
);
hints = (
{
horizontal = 1;
place = (0,702);
type = Stem;
},
{
place = (76,143);
type = Stem;
}
);
layerId = "3B5F2A21-9AC0-43BD-916B-7DC2040966BF";
shapes = (
{
closed = 1;
nodes = (
(223,0,l),
(223,282,l),
(205,239,l),
(289,317,l),
(265,326,l),
(515,0,l),
(692,0,l),
(371,415,l),
(372,395,l),
(697,700,l),
(496,700,l),
(190,412,l),
(223,412,l),
(223,700,l),
(80,700,l),
(80,0,l)
);
}
);
width = 707;
},
{
anchors = (
{
name = bottom;
pos = (263,0);
},
{
name = top;
pos = (263,700);
}
);
hints = (
{
horizontal = 1;
place = (0,702);
type = Stem;
},
{
place = (94,21);
type = Stem;
}
);
layerId = "2AB56609-6B3E-483D-8034-BAE7113127E2";
shapes = (
{
closed = 1;
nodes = (
(101,0,l),
(101,335,l),
(93,312,l),
(184,397,l),
(173,398,l),
(475,0,l),
(505,0,l),
(193,408,l),
(187,398,l),
(512,700,l),
(479,700,l),
(98,347,l),
(101,315,l),
(101,700,l),
(80,700,l),
(80,0,l)
);
}
);
width = 522;
},
{
anchors = (
{
name = bottom;
pos = (365,0);
},
{
name = top;
pos = (365,700);
}
);
hints = (
{
horizontal = 1;
place = (0,702);
type = Stem;
},
{
place = (74,155);
type = Stem;
}
);
layerId = "1DB3F64C-B148-42AA-8299-ED68ABA9E6AC";
shapes = (
{
closed = 1;
nodes = (
(235,0,l),
(235,277,l),
(216,232,l),
(300,309,l),
(274,319,l),
(519,0,l),
(711,0,l),
(389,416,l),
(391,395,l),
(716,700,l),
(498,700,l),
(199,419,l),
(235,422,l),
(235,700,l),
(80,700,l),
(80,0,l)
);
}
);
width = 725.5;
}
);
note = K;
unicode = 75;
},
{
glyphname = L;
kernLeft = H;
kernRight = L;
lastChange = "2023-09-15 14:49:40 +0000";
layers = (
{
anchors = (
{
name = bottom;
pos = (279,0);
},
{
name = top;
pos = (249,700);
}
);
hints = (
{
horizontal = 1;
place = (0,64);
type = Stem;
},
{
place = (86,70);
type = Stem;
}
);
layerId = "1041D826-7B5A-4F1A-81FD-3B5FB25AF0FC";
shapes = (
{
closed = 1;
nodes = (
(474,0,l),
(474,64,l),
(150,64,l),
(150,700,l),
(80,700,l),
(80,0,l)
);
}
);
width = 494;
},
{
anchors = (
{
name = bottom;
pos = (292,0);
},
{
name = top;
pos = (272,700);
}
);
hints = (
{
horizontal = 1;
place = (0,132);
type = Stem;
},
{
place = (83,143);
type = Stem;
}
);
layerId = "3B5F2A21-9AC0-43BD-916B-7DC2040966BF";
shapes = (
{
closed = 1;
nodes = (
(520,0,l),
(520,132,l),
(223,132,l),
(223,700,l),
(80,700,l),
(80,0,l)
);
}
);
width = 540;
},
{
anchors = (
{
name = bottom;
pos = (270,0);
},
{
name = top;
pos = (234,700);
}
);
hints = (
{
horizontal = 1;
place = (0,19);
type = Stem;
},
{
place = (88,21);
type = Stem;
}
);
layerId = "2AB56609-6B3E-483D-8034-BAE7113127E2";
shapes = (
{
closed = 1;
nodes = (
(443,0,l),
(443,19,l),
(101,19,l),
(101,700,l),
(80,700,l),
(80,0,l)
);
}
);
width = 463.33333;
},
{
anchors = (
{
name = bottom;
pos = (294,0);
},
{
name = top;
pos = (276,700);
}
);
hints = (
{
horizontal = 1;
place = (0,143);
type = Stem;
},
{
place = (83,155);
type = Stem;
}
);
layerId = "1DB3F64C-B148-42AA-8299-ED68ABA9E6AC";
shapes = (
{
closed = 1;
nodes = (
(528,0,l),
(528,143,l),
(235,143,l),
(235,700,l),
(80,700,l),
(80,0,l)
);
}
);
width = 547.66667;
}
);
note = L;
unicode = 76;
},
{
glyphname = Lslash;
kernLeft = Lslash;
kernRight = L;
lastChange = "2023-09-13 12:05:25 +0000";
layers = (
{
hints = (
{
horizontal = 1;
place = (0,64);
type = Stem;
},
{
place = (117,70);
type = Stem;
}
);
layerId = "1041D826-7B5A-4F1A-81FD-3B5FB25AF0FC";
shapes = (
{
closed = 1;
nodes = (
(344,442,l),
(344,513,l),
(19,369,l),
(19,299,l)
);
},
{
ref = L;
}
);
width = 489;
},
{
hints = (
{
horizontal = 1;
place = (0,132);
type = Stem;
},
{
place = (114,143);
type = Stem;
}
);
layerId = "3B5F2A21-9AC0-43BD-916B-7DC2040966BF";
shapes = (
{
closed = 1;
nodes = (
(382,409,l),
(384,555,l),
(12,391,l),
(12,245,l)
);
},
{
ref = L;
}
);
width = 535;
},
{
hints = (
{
horizontal = 1;
place = (0,19);
type = Stem;
},
{
place = (119,21);
type = Stem;
}
);
layerId = "2AB56609-6B3E-483D-8034-BAE7113127E2";
shapes = (
{
closed = 1;
nodes = (
(319,464,l),
(317,485,l),
(24,354,l),
(24,335,l)
);
},
{
alignment = -1;
ref = L;
}
);
width = 458.33333;
},
{
hints = (
{
horizontal = 1;
place = (0,143);
type = Stem;
},
{
place = (114,155);
type = Stem;
}
);
layerId = "1DB3F64C-B148-42AA-8299-ED68ABA9E6AC";
shapes = (
{
closed = 1;
nodes = (
(388,404,l),
(391,562,l),
(11,395,l),
(11,236,l)
);
},
{
alignment = -1;
ref = L;
}
);
width = 542.66667;
}
);
note = Lslash;
unicode = 321;
},
{
glyphname = M;
kernLeft = H;
kernRight = H;
lastChange = "2023-09-13 12:05:25 +0000";
layers = (
{
anchors = (
{
name = bottom;
pos = (424,0);
},
{
name = top;
pos = (424,700);
}
);
hints = (
{
horizontal = 1;
place = (0,700);
type = Stem;
},
{
place = (86,70);
type = Stem;
},
{
place = (705,70);
type = Stem;
}
);
layerId = "1041D826-7B5A-4F1A-81FD-3B5FB25AF0FC";
shapes = (
{
closed = 1;
nodes = (
(699,565,l),
(699,0,l),
(769,0,l),
(769,700,l),
(691,700,l),
(424,199,l),
(159,700,l),
(80,700,l),
(80,0,l),
(150,0,l),
(150,567,l),
(424,48,l)
);
}
);
width = 849;
},
{
anchors = (
{
name = bottom;
pos = (427,0);
},
{
name = top;
pos = (427,700);
}
);
hints = (
{
horizontal = 1;
place = (-4,704);
type = Stem;
},
{
place = (83,143);
type = Stem;
},
{
place = (635,143);
type = Stem;
}
);
layerId = "3B5F2A21-9AC0-43BD-916B-7DC2040966BF";
shapes = (
{
closed = 1;
nodes = (
(632,430,l),
(632,0,l),
(775,0,l),
(775,700,l),
(613,700,l),
(427,321,l),
(242,700,l),
(80,700,l),
(80,0,l),
(223,0,l),
(223,431,l),
(427,12,l)
);
}
);
width = 855;
},
{
anchors = (
{
name = bottom;
pos = (422,0);
},
{
name = top;
pos = (422,700);
}
);
hints = (
{
horizontal = 1;
place = (3,697);
type = Stem;
},
{
place = (88,21);
type = Stem;
},
{
place = (752,21);
type = Stem;
}
);
layerId = "2AB56609-6B3E-483D-8034-BAE7113127E2";
shapes = (
{
closed = 1;
nodes = (
(744,655,l),
(744,0,l),
(765,0,l),
(765,700,l),
(743,700,l),
(422,118,l),
(104,700,l),
(80,700,l),
(80,0,l),
(101,0,l),
(101,658,l),
(422,72,l)
);
}
);
width = 845;
},
{
anchors = (
{
name = bottom;
pos = (428,0);
},
{
name = top;
pos = (428,700);
}
);
hints = (
{
horizontal = 1;
place = (-5,705);
type = Stem;
},
{
place = (83,155);
type = Stem;
},
{
place = (623,155);
type = Stem;
}
);
layerId = "1DB3F64C-B148-42AA-8299-ED68ABA9E6AC";
shapes = (
{
closed = 1;
nodes = (
(621,408,l),
(621,0,l),
(776,0,l),
(776,700,l),
(600,700,l),
(428,341,l),
(256,700,l),
(80,700,l),
(80,0,l),
(235,0,l),
(235,408,l),
(428,6,l)
);
}
);
width = 856;
}
);
note = M;
unicode = 77;
},
{
glyphname = N;
kernLeft = H;
kernRight = H;
lastChange = "2023-09-13 12:05:25 +0000";
layers = (
{
anchors = (
{
name = bottom;
pos = (344,0);
},
{
name = top;
pos = (344,700);
}
);
hints = (
{
horizontal = 1;
place = (0,700);
type = Stem;
},
{
place = (86,70);
type = Stem;
},
{
place = (568,71);
type = Stem;
}
);
layerId = "1041D826-7B5A-4F1A-81FD-3B5FB25AF0FC";
shapes = (
{
closed = 1;
nodes = (
(150,0,l),
(150,586,l),
(143,585,l),
(544,0,l),
(609,0,l),
(609,700,l),
(538,700,l),
(538,103,l),
(549,113,l),
(146,700,l),
(80,700,l),
(80,0,l)
);
}
);
width = 689;
},
{
anchors = (
{
name = bottom;
pos = (367,0);
},
{
name = top;
pos = (367,700);
}
);
hints = (
{
horizontal = 1;
place = (0,700);
type = Stem;
},
{
place = (75,143);
type = Stem;
},
{
place = (506,143);
type = Stem;
}
);
layerId = "3B5F2A21-9AC0-43BD-916B-7DC2040966BF";
shapes = (
{
closed = 1;
nodes = (
(223,0,l),
(223,456,l),
(210,456,l),
(524,0,l),
(654,0,l),
(654,700,l),
(511,700,l),
(511,220,l),
(530,233,l),
(208,700,l),
(80,700,l),
(80,0,l)
);
}
);
width = 734;
},
{
anchors = (
{
name = bottom;
pos = (329,0);
},
{
name = top;
pos = (329,700);
}
);
hints = (
{
horizontal = 1;
place = (0,700);
type = Stem;
},
{
place = (93,21);
type = Stem;
},
{
place = (609,23);
type = Stem;
}
);
layerId = "2AB56609-6B3E-483D-8034-BAE7113127E2";
shapes = (
{
closed = 1;
nodes = (
(101,0,l),
(101,673,l),
(98,671,l),
(557,0,l),
(579,0,l),
(579,700,l),
(556,700,l),
(556,25,l),
(562,33,l),
(105,700,l),
(80,700,l),
(80,0,l)
);
}
);
width = 659;
},
{
anchors = (
{
name = bottom;
pos = (371,0);
},
{
name = top;
pos = (371,700);
}
);
hints = (
{
horizontal = 1;
place = (0,700);
type = Stem;
},
{
place = (73,155);
type = Stem;
},
{
place = (496,155);
type = Stem;
}
);
layerId = "1DB3F64C-B148-42AA-8299-ED68ABA9E6AC";
shapes = (
{
closed = 1;
nodes = (
(235,0,l),
(235,434,l),
(221,435,l),
(521,0,l),
(662,0,l),
(662,700,l),
(507,700,l),
(507,240,l),
(527,253,l),
(218,700,l),
(80,700,l),
(80,0,l)
);
}
);
width = 741.5;
}
);
note = N;
unicode = 78;
},
{
glyphname = Nhookleft;
kernLeft = H;
kernRight = H;
lastChange = "2023-09-13 12:05:25 +0000";
layers = (
{
layerId = "1041D826-7B5A-4F1A-81FD-3B5FB25AF0FC";
shapes = (
{
closed = 1;
nodes = (
(75,0,l),
(75,-96,ls),
(75,-130,o),
(61,-140,o),
(45,-140,cs),
(20,-140,o),
(-5,-130,o),
(-31,-108,c),
(-31,-169,l),
(-17,-183,o),
(12,-203,o),
(55,-203,cs),
(120,-203,o),
(145,-149,o),
(145,-85,cs),
(145,0,l)
);
},
{
ref = N;
}
);
width = 679;
},
{
layerId = "3B5F2A21-9AC0-43BD-916B-7DC2040966BF";
shapes = (
{
closed = 1;
nodes = (
(75,0,l),
(75,-35,ls),
(75,-69,o),
(64,-76,o),
(48,-76,cs),
(26,-76,o),
(-5,-66,o),
(-31,-45,c),
(-31,-169,l),
(-6,-185,o),
(19,-203,o),
(73,-203,cs),
(155,-203,o),
(218,-159,o),
(218,-35,cs),
(218,0,l)
);
},
{
ref = N;
}
);
width = 724;
},
{
layerId = "2AB56609-6B3E-483D-8034-BAE7113127E2";
shapes = (
{
closed = 1;
nodes = (
(75,0,l),
(75,-137,ls),
(75,-171,o),
(59,-183,o),
(43,-183,cs),
(16,-183,o),
(-5,-173,o),
(-31,-150,c),
(-31,-169,l),
(-24,-182,o),
(7,-203,o),
(43,-203,cs),
(97,-203,o),
(96,-142,o),
(96,-118,cs),
(96,0,l)
);
},
{
alignment = -1;
ref = N;
}
);
width = 649;
},
{
layerId = "1DB3F64C-B148-42AA-8299-ED68ABA9E6AC";
shapes = (
{
closed = 1;
nodes = (
(75,0,l),
(75,-25,ls),
(75,-59,o),
(65,-65,o),
(49,-65,cs),
(27,-65,o),
(-5,-55,o),
(-31,-34,c),
(-31,-169,l),
(-4,-185,o),
(20,-203,o),
(76,-203,cs),
(161,-203,o),
(230,-161,o),
(230,-27,cs),
(230,0,l)
);
},
{
alignment = -1;
ref = N;
}
);
width = 731.5;
}
);
unicode = 413;
},
{
glyphname = Eng;
kernLeft = H;
kernRight = H;
lastChange = "2023-09-13 12:05:25 +0000";
layers = (
{
layerId = "1041D826-7B5A-4F1A-81FD-3B5FB25AF0FC";
shapes = (
{
closed = 1;
nodes = (
(539,0,l),
(539,-96,ls),
(539,-130,o),
(525,-140,o),
(509,-140,cs),
(484,-140,o),
(454,-130,o),
(428,-108,c),
(428,-169,l),
(442,-183,o),
(471,-203,o),
(514,-203,cs),
(579,-203,o),
(604,-149,o),
(604,-85,cs),
(604,0,l)
);
},
{
ref = N;
}
);
width = 679;
},
{
layerId = "3B5F2A21-9AC0-43BD-916B-7DC2040966BF";
shapes = (
{
closed = 1;
nodes = (
(519,0,l),
(519,-35,ls),
(519,-69,o),
(508,-76,o),
(492,-76,cs),
(470,-76,o),
(426,-66,o),
(400,-45,c),
(400,-169,l),
(425,-185,o),
(450,-203,o),
(504,-203,cs),
(586,-203,o),
(649,-159,o),
(649,-35,cs),
(649,0,l)
);
},
{
ref = N;
}
);
width = 724;
},
{
layerId = "2AB56609-6B3E-483D-8034-BAE7113127E2";
shapes = (
{
closed = 1;
nodes = (
(552,0,l),
(552,-137,ls),
(552,-171,o),
(536,-183,o),
(520,-183,cs),
(493,-183,o),
(473,-173,o),
(447,-150,c),
(447,-169,l),
(453,-182,o),
(485,-203,o),
(521,-203,cs),
(574,-203,o),
(574,-142,o),
(574,-118,cs),
(574,0,l)
);
},
{
alignment = -1;
ref = N;
}
);
width = 649;
},
{
layerId = "1DB3F64C-B148-42AA-8299-ED68ABA9E6AC";
shapes = (
{
closed = 1;
nodes = (
(516,0,l),
(516,-25,ls),
(516,-59,o),
(505,-65,o),
(489,-65,cs),
(468,-65,o),
(421,-55,o),
(395,-34,c),
(395,-169,l),
(422,-185,o),
(447,-203,o),
(502,-203,cs),
(587,-203,o),
(657,-161,o),
(657,-27,cs),
(657,0,l)
);
},
{
alignment = -1;
ref = N;
}
);
width = 731.5;
}
);
unicode = 330;
},
{
glyphname = O;
kernLeft = C;
kernRight = D;
lastChange = "2023-09-13 12:05:25 +0000";
layers = (
{
anchors = (
{
name = bottom;
pos = (396,0);
},
{
name = ogonek;
pos = (402,-6);
},
{
name = top;
pos = (396,700);
}
);
hints = (
{
horizontal = 1;
place = (0,64);
type = Stem;
},
{
horizontal = 1;
place = (638,64);
type = Stem;
},
{
place = (36,70);
type = Stem;
},
{
place = (669,70);
type = Stem;
}
);
layerId = "1041D826-7B5A-4F1A-81FD-3B5FB25AF0FC";
shapes = (
{
closed = 1;
nodes = (
(566,-6,o),
(748,124,o),
(748,350,cs),
(748,549,o),
(590,706,o),
(396,706,cs),
(199,706,o),
(45,546,o),
(45,350,cs),
(45,151,o),
(202,-6,o),
(396,-6,cs)
);
},
{
closed = 1;
nodes = (
(243,58,o),
(115,186,o),
(115,350,cs),
(115,513,o),
(240,642,o),
(396,642,cs),
(550,642,o),
(678,515,o),
(678,350,cs),
(678,165,o),
(532,58,o),
(396,58,cs)
);
}
);
width = 793;
},
{
anchors = (
{
name = bottom;
pos = (399,0);
},
{
name = ogonek;
pos = (402,-6);
},
{
name = top;
pos = (399,700);
}
);
guides = (
{
pos = (0,706);
}
);
hints = (
{
horizontal = 1;
place = (0,132);
type = Stem;
},
{
horizontal = 1;
place = (570,132);
type = Stem;
},
{
place = (45,143);
type = Stem;
},
{
place = (610,143);
type = Stem;
}
);
layerId = "3B5F2A21-9AC0-43BD-916B-7DC2040966BF";
shapes = (
{
closed = 1;
nodes = (
(569,-6,o),
(753,124,o),
(753,350,cs),
(753,549,o),
(595,706,o),
(399,706,cs),
(199,706,o),
(45,546,o),
(45,350,cs),
(45,152,o),
(203,-6,o),
(399,-6,cs)
);
},
{
closed = 1;
nodes = (
(284,126,o),
(188,223,o),
(188,350,cs),
(188,476,o),
(283,574,o),
(399,574,cs),
(513,574,o),
(610,478,o),
(610,350,cs),
(610,208,o),
(501,126,o),
(399,126,cs)
);
}
);
width = 798;
},
{
anchors = (
{
name = bottom;
pos = (394,0);
},
{
name = ogonek;
pos = (402,-6);
},
{
name = top;
pos = (394,700);
}
);
hints = (
{
horizontal = 1;
place = (0,19);
type = Stem;
},
{
horizontal = 1;
place = (683,19);
type = Stem;
},
{
place = (30,21);
type = Stem;
},
{
place = (708,21);
type = Stem;
}
);
layerId = "2AB56609-6B3E-483D-8034-BAE7113127E2";
shapes = (
{
closed = 1;
nodes = (
(564,-6,o),
(745,124,o),
(745,350,cs),
(745,549,o),
(587,706,o),
(394,706,cs),
(199,706,o),
(45,546,o),
(45,350,cs),
(45,150,o),
(201,-6,o),
(394,-6,cs)
);
},
{
closed = 1;
nodes = (
(216,13,o),
(66,161,o),
(66,350,cs),
(66,538,o),
(211,687,o),
(394,687,cs),
(575,687,o),
(723,540,o),
(723,350,cs),
(723,136,o),
(553,13,o),
(394,13,cs)
);
}
);
width = 789.66667;
},
{
anchors = (
{
name = bottom;
pos = (400,0);
},
{
name = ogonek;
pos = (402,-6);
},
{
name = top;
pos = (400,700);
}
);
hints = (
{
horizontal = 1;
place = (0,143);
type = Stem;
},
{
horizontal = 1;
place = (559,143);
type = Stem;
},
{
place = (47,155);
type = Stem;
},
{
place = (600,155);
type = Stem;
}
);
layerId = "1DB3F64C-B148-42AA-8299-ED68ABA9E6AC";
shapes = (
{
closed = 1;
nodes = (
(570,-6,o),
(754,124,o),
(754,350,cs),
(754,549,o),
(596,706,o),
(400,706,cs),
(199,706,o),
(45,546,o),
(45,350,cs),
(45,152,o),
(203,-6,o),
(400,-6,cs)
);
},
{
closed = 1;
nodes = (
(291,137,o),
(200,229,o),
(200,350,cs),
(200,470,o),
(290,563,o),
(400,563,cs),
(507,563,o),
(599,472,o),
(599,350,cs),
(599,215,o),
(496,137,o),
(400,137,cs)
);
}
);
width = 798.83333;
}
);
note = O;
unicode = 79;
},
{
glyphname = Oslash;
kernLeft = C;
kernRight = D;
lastChange = "2023-09-13 12:05:25 +0000";
layers = (
{
anchors = (
{
name = top;
pos = (393,700);
}
);
hints = (
{
horizontal = 1;
place = (0,64);
type = Stem;
},
{
horizontal = 1;
place = (638,64);
type = Stem;
},
{
place = (36,70);
type = Stem;
},
{
place = (669,70);
type = Stem;
}
);
layerId = "1041D826-7B5A-4F1A-81FD-3B5FB25AF0FC";
shapes = (
{
closed = 1;
nodes = (
(557,0,o),
(739,130,o),
(739,351,cs),
(739,545,o),
(581,702,o),
(387,702,cs),
(190,702,o),
(36,542,o),
(36,351,cs),
(36,157,o),
(193,0,o),
(387,0,cs)
);
},
{
closed = 1;
nodes = (
(546,766,l),
(485,785,l),
(230,-59,l),
(292,-77,l)
);
},
{
closed = 1;
nodes = (
(234,64,o),
(106,192,o),
(106,351,cs),
(106,509,o),
(231,638,o),
(387,638,cs),
(541,638,o),
(669,511,o),
(669,351,cs),
(669,171,o),
(523,64,o),
(387,64,cs)
);
}
);
width = 774;
},
{
anchors = (
{
name = top;
pos = (396,700);
}
);
hints = (
{
horizontal = 1;
place = (0,132);
type = Stem;
},
{
horizontal = 1;
place = (570,132);
type = Stem;
},
{
place = (45,143);
type = Stem;
},
{
place = (610,143);
type = Stem;
}
);
layerId = "3B5F2A21-9AC0-43BD-916B-7DC2040966BF";
shapes = (
{
closed = 1;
nodes = (
(569,0,o),
(753,130,o),
(753,351,cs),
(753,545,o),
(595,702,o),
(399,702,cs),
(199,702,o),
(45,542,o),
(45,351,cs),
(45,158,o),
(203,0,o),
(399,0,cs)
);
},
{
closed = 1;
nodes = (
(568,750,l),
(457,786,l),
(208,-44,l),
(320,-78,l)
);
},
{
closed = 1;
nodes = (
(284,132,o),
(188,229,o),
(188,351,cs),
(188,472,o),
(283,570,o),
(399,570,cs),
(513,570,o),
(610,474,o),
(610,351,cs),
(610,214,o),
(501,132,o),
(399,132,cs)
);
}
);
width = 798;
},
{
anchors = (
{
name = top;
pos = (391,700);
}
);
hints = (
{
horizontal = 1;
place = (0,19);
type = Stem;
},
{
horizontal = 1;
place = (683,19);
type = Stem;
},
{
place = (30,21);
type = Stem;
},
{
place = (708,21);
type = Stem;
}
);
layerId = "2AB56609-6B3E-483D-8034-BAE7113127E2";
shapes = (
{
closed = 1;
nodes = (
(549,0,o),
(730,130,o),
(730,351,cs),
(730,545,o),
(572,702,o),
(379,702,cs),
(184,702,o),
(30,542,o),
(30,351,cs),
(30,156,o),
(186,0,o),
(379,0,cs)
);
},
{
closed = 1;
nodes = (
(531,777,l),
(504,784,l),
(245,-69,l),
(273,-76,l)
);
},
{
closed = 1;
nodes = (
(201,19,o),
(51,167,o),
(51,351,cs),
(51,534,o),
(196,683,o),
(379,683,cs),
(560,683,o),
(708,536,o),
(708,351,cs),
(708,142,o),
(538,19,o),
(379,19,cs)
);
}
);
width = 758;
},
{
anchors = (
{
name = top;
pos = (397,700);
}
);
hints = (
{
horizontal = 1;
place = (0,143);
type = Stem;
},
{
horizontal = 1;
place = (559,143);
type = Stem;
},
{
place = (47,155);
type = Stem;
},
{
place = (600,155);
type = Stem;
}
);
layerId = "1DB3F64C-B148-42AA-8299-ED68ABA9E6AC";
shapes = (
{
closed = 1;
nodes = (
(571,0,o),
(755,130,o),
(755,351,cs),
(755,545,o),
(597,702,o),
(401,702,cs),
(201,702,o),
(47,542,o),
(47,351,cs),
(47,158,o),
(205,0,o),
(401,0,cs)
);
},
{
closed = 1;
nodes = (
(572,747,l),
(452,786,l),
(204,-41,l),
(325,-78,l)
);
},
{
closed = 1;
nodes = (
(292,143,o),
(202,235,o),
(202,351,cs),
(202,466,o),
(292,559,o),
(401,559,cs),
(508,559,o),
(600,468,o),
(600,351,cs),
(600,221,o),
(497,143,o),
(401,143,cs)
);
}
);
width = 802;
}
);
note = Oslash;
unicode = 216;
},
{
glyphname = OE;
kernLeft = C;
kernRight = E;
lastChange = "2023-09-13 12:05:25 +0000";
layers = (
{
hints = (
{
horizontal = 1;
place = (0,64);
type = Stem;
},
{
horizontal = 1;
place = (322,64);
type = Stem;
},
{
horizontal = 1;
place = (636,64);
type = Stem;
},
{
place = (36,70);
type = Stem;
},
{
place = (581,70);
type = Stem;
}
);
layerId = "1041D826-7B5A-4F1A-81FD-3B5FB25AF0FC";
shapes = (
{
closed = 1;
nodes = (
(454,0,o),
(522,20,o),
(581,58,c),
(581,0,l),
(1034,0,l),
(1034,64,l),
(651,64,l),
(651,322,l),
(959,322,l),
(959,386,l),
(651,386,l),
(651,636,l),
(1033,636,l),
(1033,700,l),
(581,700,l),
(581,644,l),
(525,681,o),
(459,702,o),
(387,702,cs),
(190,702,o),
(36,542,o),
(36,351,cs),
(36,157,o),
(193,0,o),
(387,0,cs)
);
},
{
closed = 1;
nodes = (
(234,64,o),
(106,192,o),
(106,351,cs),
(106,509,o),
(231,638,o),
(387,638,cs),
(462,638,o),
(530,608,o),
(581,559,c),
(581,142,l),
(527,91,o),
(456,64,o),
(387,64,cs)
);
}
);
width = 1065;
},
{
hints = (
{
horizontal = 1;
place = (0,132);
type = Stem;
},
{
horizontal = 1;
place = (287,132);
type = Stem;
},
{
horizontal = 1;
place = (568,132);
type = Stem;
},
{
place = (36,138);
type = Stem;
},
{
place = (515,143);
type = Stem;
},
{
horizontal = 1;
place = (558,144);
type = Stem;
}
);
layerId = "3B5F2A21-9AC0-43BD-916B-7DC2040966BF";
shapes = (
{
closed = 1;
nodes = (
(430,0,o),
(474,8,o),
(515,24,c),
(515,0,l),
(1000,0,l),
(1000,132,l),
(658,132,l),
(658,287,l),
(933,287,l),
(933,419,l),
(658,419,l),
(658,568,l),
(999,568,l),
(999,700,l),
(515,700,l),
(515,679,l),
(475,694,o),
(432,702,o),
(387,702,cs),
(190,702,o),
(36,542,o),
(36,351,cs),
(36,157,o),
(193,0,o),
(387,0,cs)
);
},
{
closed = 1;
nodes = (
(266,145,o),
(174,236,o),
(174,351,cs),
(174,464,o),
(264,558,o),
(376,558,cs),
(429,558,o),
(479,536,o),
(515,501,c),
(515,200,l),
(476,164,o),
(425,145,o),
(376,145,cs)
);
}
);
width = 1045;
},
{
hints = (
{
horizontal = 1;
place = (-191,19);
type = Stem;
},
{
horizontal = 1;
place = (165,11);
type = Stem;
},
{
horizontal = 1;
place = (681,19);
type = Stem;
},
{
place = (-283,21);
type = Stem;
},
{
place = (968,29);
type = Stem;
}
);
layerId = "2AB56609-6B3E-483D-8034-BAE7113127E2";
shapes = (
{
closed = 1;
nodes = (
(470,0,o),
(554,28,o),
(625,81,c),
(625,0,l),
(1057,0,l),
(1057,19,l),
(646,19,l),
(646,345,l),
(976,345,l),
(976,364,l),
(646,364,l),
(646,681,l),
(1056,681,l),
(1056,700,l),
(625,700,l),
(625,621,l),
(558,672,o),
(477,702,o),
(387,702,cs),
(190,702,o),
(36,542,o),
(36,351,cs),
(36,157,o),
(193,0,o),
(387,0,cs)
);
},
{
closed = 1;
nodes = (
(213,10,o),
(61,163,o),
(61,351,cs),
(61,539,o),
(209,691,o),
(394,691,cs),
(484,691,o),
(564,656,o),
(625,598,c),
(625,103,l),
(561,42,o),
(477,10,o),
(394,10,cs)
);
}
);
width = 1078.33333;
},
{
hints = (
{
horizontal = 1;
place = (335,143);
type = Stem;
},
{
horizontal = 1;
place = (597,157);
type = Stem;
},
{
horizontal = 1;
place = (557,143);
type = Stem;
},
{
place = (595,155);
type = Stem;
},
{
place = (-97,142);
type = Stem;
}
);
layerId = "1DB3F64C-B148-42AA-8299-ED68ABA9E6AC";
shapes = (
{
closed = 1;
nodes = (
(426,0,o),
(466,6,o),
(504,18,c),
(504,0,l),
(994,0,l),
(994,143,l),
(659,143,l),
(659,281,l),
(929,281,l),
(929,425,l),
(659,425,l),
(659,557,l),
(993,557,l),
(993,700,l),
(504,700,l),
(504,685,l),
(467,696,o),
(428,702,o),
(387,702,cs),
(190,702,o),
(36,542,o),
(36,351,cs),
(36,157,o),
(193,0,o),
(387,0,cs)
);
},
{
closed = 1;
nodes = (
(271,159,o),
(185,243,o),
(185,351,cs),
(185,457,o),
(270,545,o),
(374,545,cs),
(424,545,o),
(471,524,o),
(504,491,c),
(504,210,l),
(468,176,o),
(420,159,o),
(374,159,cs)
);
}
);
width = 1041.66667;
}
);
note = OE;
unicode = 338;
},
{
glyphname = P;
kernLeft = H;
kernRight = P;
lastChange = "2023-09-13 12:05:25 +0000";
layers = (
{
anchors = (
{
name = bottom;
pos = (279,0);
},
{
name = top;
pos = (279,700);
}
);
hints = (
{
horizontal = 1;
place = (322,64);
type = Stem;
},
{
horizontal = 1;
place = (643,64);
type = Stem;
},
{
place = (86,70);
type = Stem;
},
{
place = (466,70);
type = Stem;
}
);
layerId = "1041D826-7B5A-4F1A-81FD-3B5FB25AF0FC";
shapes = (
{
closed = 1;
nodes = (
(150,0,l),
(150,322,l),
(337,322,ls),
(443,322,o),
(530,409,o),
(530,514,cs),
(530,567,o),
(508,616,o),
(473,650,cs),
(439,685,o),
(390,707,o),
(337,707,cs),
(80,707,l),
(80,0,l)
);
},
{
closed = 1;
nodes = (
(150,643,l),
(337,643,ls),
(371,643,o),
(398,631,o),
(424,605,cs),
(445,584,o),
(460,550,o),
(460,514,cs),
(460,441,o),
(404,386,o),
(337,386,cs),
(150,386,l)
);
}
);
width = 565;
},
{
anchors = (
{
name = bottom;
pos = (297,0);
},
{
name = top;
pos = (297,700);
}
);
hints = (
{
horizontal = 1;
place = (288,132);
type = Stem;
},
{
horizontal = 1;
place = (574,132);
type = Stem;
},
{
place = (75,143);
type = Stem;
},
{
place = (414,143);
type = Stem;
}
);
layerId = "3B5F2A21-9AC0-43BD-916B-7DC2040966BF";
shapes = (
{
closed = 1;
nodes = (
(223,0,l),
(223,288,l),
(349,288,ls),
(467,288,o),
(562,383,o),
(562,497,cs),
(562,551,o),
(537,608,o),
(500,645,cs),
(465,680,o),
(406,706,o),
(349,706,cs),
(80,706,l),
(80,0,l)
);
},
{
closed = 1;
nodes = (
(223,574,l),
(349,574,ls),
(369,574,o),
(381,569,o),
(399,552,c),
(410,540,o),
(419,520,o),
(419,497,cs),
(419,452,o),
(387,420,o),
(349,420,cs),
(223,420,l)
);
}
);
width = 590;
},
{
anchors = (
{
name = bottom;
pos = (267,0);
},
{
name = top;
pos = (267,700);
}
);
hints = (
{
horizontal = 1;
place = (345,19);
type = Stem;
},
{
horizontal = 1;
place = (689,19);
type = Stem;
},
{
place = (93,21);
type = Stem;
},
{
place = (501,21);
type = Stem;
}
);
layerId = "2AB56609-6B3E-483D-8034-BAE7113127E2";
shapes = (
{
closed = 1;
nodes = (
(101,0,l),
(101,345,l),
(329,345,ls),
(427,345,o),
(509,426,o),
(509,525,cs),
(509,578,o),
(489,621,o),
(455,653,cs),
(422,688,o),
(379,708,o),
(329,708,cs),
(80,708,l),
(80,0,l)
);
},
{
closed = 1;
nodes = (
(101,689,l),
(329,689,ls),
(372,689,o),
(409,672,o),
(441,640,cs),
(468,613,o),
(487,570,o),
(487,525,cs),
(487,434,o),
(415,363,o),
(329,363,cs),
(101,363,l)
);
}
);
width = 548.33333;
},
{
anchors = (
{
name = bottom;
pos = (300,0);
},
{
name = top;
pos = (300,700);
}
);
hints = (
{
horizontal = 1;
place = (282,143);
type = Stem;
},
{
horizontal = 1;
place = (563,143);
type = Stem;
},
{
place = (73,155);
type = Stem;
},
{
place = (405,155);
type = Stem;
}
);
layerId = "1DB3F64C-B148-42AA-8299-ED68ABA9E6AC";
shapes = (
{
closed = 1;
nodes = (
(235,0,l),
(235,282,l),
(351,282,ls),
(471,282,o),
(567,379,o),
(567,494,cs),
(567,548,o),
(542,607,o),
(505,644,cs),
(469,679,o),
(409,706,o),
(351,706,cs),
(80,706,l),
(80,0,l)
);
},
{
closed = 1;
nodes = (
(235,563,l),
(351,563,ls),
(369,563,o),
(378,559,o),
(395,543,cs),
(404,533,o),
(412,515,o),
(412,494,cs),
(412,454,o),
(384,426,o),
(351,426,cs),
(235,426,l)
);
}
);
width = 594.16667;
}
);
note = P;
unicode = 80;
},
{
glyphname = Thorn;
kernLeft = H;
kernRight = Thorn;
lastChange = "2023-09-13 12:05:25 +0000";
layers = (
{
hints = (
{
horizontal = 1;
place = (164,64);
type = Stem;
},
{
horizontal = 1;
place = (533,64);
type = Stem;
},
{
place = (73,70);
type = Stem;
},
{
place = (479,70);
type = Stem;
}
);
layerId = "1041D826-7B5A-4F1A-81FD-3B5FB25AF0FC";
shapes = (
{
closed = 1;
nodes = (
(143,0,l),
(143,164,l),
(330,164,ls),
(451,164,o),
(549,262,o),
(549,381,cs),
(549,438,o),
(524,495,o),
(485,534,cs),
(448,570,o),
(389,597,o),
(330,597,cs),
(143,597,l),
(143,694,l),
(73,694,l),
(73,0,l)
);
},
{
closed = 1;
nodes = (
(143,533,l),
(330,533,ls),
(371,533,o),
(407,517,o),
(435,488,c),
(462,462,o),
(479,423,o),
(479,381,cs),
(479,295,o),
(412,228,o),
(330,228,cs),
(143,228,l)
);
}
);
width = 600;
},
{
hints = (
{
horizontal = 1;
place = (146,133);
type = Stem;
},
{
horizontal = 1;
place = (475,133);
type = Stem;
},
{
place = (58,143);
type = Stem;
},
{
place = (421,143);
type = Stem;
}
);
layerId = "3B5F2A21-9AC0-43BD-916B-7DC2040966BF";
shapes = (
{
closed = 1;
nodes = (
(201,0,l),
(201,146,l),
(328,146,ls),
(459,146,o),
(564,251,o),
(564,377,cs),
(564,436,o),
(535,500,o),
(495,540,cs),
(458,577,o),
(390,608,o),
(328,608,cs),
(201,608,l),
(201,694,l),
(58,694,l),
(58,0,l)
);
},
{
closed = 1;
nodes = (
(201,475,l),
(328,475,ls),
(353,475,o),
(374,466,o),
(394,447,c),
(410,430,o),
(421,406,o),
(421,377,cs),
(421,321,o),
(379,279,o),
(328,279,cs),
(201,279,l)
);
}
);
width = 600;
},
{
hints = (
{
horizontal = 1;
place = (176,18);
type = Stem;
},
{
horizontal = 1;
place = (572,18);
type = Stem;
},
{
place = (83,21);
type = Stem;
},
{
place = (518,21);
type = Stem;
}
);
layerId = "2AB56609-6B3E-483D-8034-BAE7113127E2";
shapes = (
{
closed = 1;
nodes = (
(104,0,l),
(104,176,l),
(331,176,ls),
(446,176,o),
(539,269,o),
(539,384,cs),
(539,439,o),
(517,492,o),
(478,530,cs),
(441,565,o),
(388,590,o),
(331,590,cs),
(104,590,l),
(104,694,l),
(83,694,l),
(83,0,l)
);
},
{
closed = 1;
nodes = (
(104,572,l),
(331,572,ls),
(383,572,o),
(429,551,o),
(462,515,c),
(497,483,o),
(518,434,o),
(518,384,cs),
(518,278,o),
(434,194,o),
(331,194,cs),
(104,194,l)
);
}
);
width = 600;
},
{
hints = (
{
horizontal = 1;
place = (143,145);
type = Stem;
},
{
horizontal = 1;
place = (465,145);
type = Stem;
},
{
place = (56,155);
type = Stem;
},
{
place = (411,155);
type = Stem;
}
);
layerId = "1DB3F64C-B148-42AA-8299-ED68ABA9E6AC";
shapes = (
{
closed = 1;
nodes = (
(211,0,l),
(211,143,l),
(328,143,ls),
(460,143,o),
(567,249,o),
(567,376,cs),
(567,436,o),
(537,501,o),
(497,541,cs),
(460,578,o),
(390,610,o),
(328,610,cs),
(211,610,l),
(211,694,l),
(56,694,l),
(56,0,l)
);
},
{
closed = 1;
nodes = (
(211,465,l),
(328,465,ls),
(350,465,o),
(369,458,o),
(387,440,c),
(401,425,o),
(411,403,o),
(411,376,cs),
(411,325,o),
(374,288,o),
(328,288,cs),
(211,288,l)
);
}
);
width = 600;
}
);
note = Thorn;
unicode = 222;
},
{
glyphname = Q;
kernLeft = C;
kernRight = Q;
lastChange = "2023-09-13 12:05:25 +0000";
layers = (
{
anchors = (
{
name = bottom;
pos = (387,0);
},
{
name = top;
pos = (387,700);
}
);
hints = (
{
horizontal = 1;
place = (0,64);
type = Stem;
},
{
horizontal = 1;
place = (638,64);
type = Stem;
},
{
place = (35,70);
type = Stem;
},
{
place = (668,70);
type = Stem;
}
);
layerId = "1041D826-7B5A-4F1A-81FD-3B5FB25AF0FC";
shapes = (
{
closed = 1;
nodes = (
(659,0,l),
(759,0,l),
(444,291,l),
(344,291,l)
);
},
{
ref = O;
}
);
width = 774;
},
{
anchors = (
{
name = bottom;
pos = (413,0);
},
{
name = top;
pos = (413,700);
}
);
hints = (
{
horizontal = 1;
place = (0,292);
type = Stem;
},
{
horizontal = 1;
place = (568,132);
type = Stem;
},
{
place = (44,143);
type = Stem;
},
{
place = (609,143);
type = Stem;
},
{
horizontal = 1;
place = (-2,132);
type = Stem;
}
);
layerId = "3B5F2A21-9AC0-43BD-916B-7DC2040966BF";
shapes = (
{
closed = 1;
nodes = (
(609,0,l),
(812,0,l),
(497,292,l),
(294,292,l)
);
},
{
ref = O;
}
);
width = 827;
},
{
anchors = (
{
name = bottom;
pos = (370,0);
},
{
name = top;
pos = (370,700);
}
);
hints = (
{
horizontal = 1;
place = (0,-88);
type = Stem;
},
{
horizontal = 1;
place = (685,19);
type = Stem;
},
{
place = (-348,21);
type = Stem;
},
{
place = (1115,29);
type = Stem;
}
);
layerId = "2AB56609-6B3E-483D-8034-BAE7113127E2";
shapes = (
{
closed = 1;
nodes = (
(692,0,l),
(724,0,l),
(409,290,l),
(377,290,l)
);
},
{
alignment = -1;
ref = O;
}
);
width = 738.66667;
},
{
anchors = (
{
name = bottom;
pos = (417,0);
},
{
name = top;
pos = (417,700);
}
);
hints = (
{
horizontal = 1;
place = (0,330);
type = Stem;
},
{
horizontal = 1;
place = (556,143);
type = Stem;
},
{
place = (705,155);
type = Stem;
},
{
place = (-114,142);
type = Stem;
}
);
layerId = "1DB3F64C-B148-42AA-8299-ED68ABA9E6AC";
shapes = (
{
closed = 1;
nodes = (
(601,0,l),
(821,0,l),
(506,292,l),
(286,292,l)
);
},
{
alignment = -1;
ref = O;
}
);
width = 835.83333;
}
);
note = Q;
unicode = 81;
},
{
glyphname = R;
kernLeft = H;
kernRight = R;
lastChange = "2023-09-13 12:05:25 +0000";
layers = (
{
anchors = (
{
name = bottom;
pos = (322,0);
},
{
name = top;
pos = (322,700);
}
);
hints = (
{
horizontal = 1;
place = (363,64);
type = Stem;
},
{
horizontal = 1;
place = (643,64);
type = Stem;
},
{
place = (86,70);
type = Stem;
},
{
place = (485,70);
type = Stem;
}
);
layerId = "1041D826-7B5A-4F1A-81FD-3B5FB25AF0FC";
shapes = (
{
closed = 1;
nodes = (
(303,371,l),
(542,0,l),
(625,0,l),
(384,372,l)
);
},
{
closed = 1;
nodes = (
(150,636,l),
(357,636,ls),
(438,636,o),
(479,589,o),
(479,528,cs),
(479,466,o),
(441,420,o),
(363,420,cs),
(150,420,l)
);
},
{
closed = 1;
nodes = (
(368,356,ls),
(482,356,o),
(549,434,o),
(549,528,cs),
(549,622,o),
(481,700,o),
(357,700,cs),
(80,700,l),
(80,0,l),
(150,0,l),
(150,356,l)
);
}
);
width = 640;
},
{
anchors = (
{
name = bottom;
pos = (347,0);
},
{
name = top;
pos = (347,700);
}
);
hints = (
{
horizontal = 1;
place = (324,133);
type = Stem;
},
{
horizontal = 1;
place = (574,132);
type = Stem;
},
{
place = (77,143);
type = Stem;
},
{
place = (436,140);
type = Stem;
}
);
layerId = "3B5F2A21-9AC0-43BD-916B-7DC2040966BF";
shapes = (
{
closed = 1;
nodes = (
(287,347,l),
(509,0,l),
(675,0,l),
(453,347,l)
);
},
{
closed = 1;
nodes = (
(223,568,l),
(375,568,ls),
(409,568,o),
(439,547,o),
(439,510,cs),
(439,472,o),
(419,451,o),
(377,451,cs),
(223,451,l)
);
},
{
closed = 1;
nodes = (
(394,318,ls),
(497,318,o),
(579,409,o),
(579,509,cs),
(579,613,o),
(499,700,o),
(372,700,cs),
(80,700,l),
(80,0,l),
(223,0,l),
(223,318,l)
);
}
);
width = 690;
},
{
anchors = (
{
name = bottom;
pos = (305,0);
},
{
name = top;
pos = (305,700);
}
);
hints = (
{
horizontal = 1;
place = (389,18);
type = Stem;
},
{
horizontal = 1;
place = (689,19);
type = Stem;
},
{
place = (92,21);
type = Stem;
},
{
place = (518,23);
type = Stem;
}
);
layerId = "2AB56609-6B3E-483D-8034-BAE7113127E2";
shapes = (
{
closed = 1;
nodes = (
(314,387,l),
(564,0,l),
(592,0,l),
(338,389,l)
);
},
{
closed = 1;
nodes = (
(101,681,l),
(345,681,ls),
(457,681,o),
(506,617,o),
(506,540,cs),
(506,462,o),
(456,399,o),
(354,399,cs),
(101,399,l)
);
},
{
closed = 1;
nodes = (
(351,381,ls),
(472,381,o),
(529,451,o),
(529,541,cs),
(529,628,o),
(469,700,o),
(347,700,cs),
(80,700,l),
(80,0,l),
(101,0,l),
(101,381,l)
);
}
);
width = 606.66667;
},
{
anchors = (
{
name = bottom;
pos = (351,0);
},
{
name = top;
pos = (351,700);
}
);
hints = (
{
horizontal = 1;
place = (318,145);
type = Stem;
},
{
horizontal = 1;
place = (563,143);
type = Stem;
},
{
place = (76,155);
type = Stem;
},
{
place = (428,152);
type = Stem;
}
);
layerId = "1DB3F64C-B148-42AA-8299-ED68ABA9E6AC";
shapes = (
{
closed = 1;
nodes = (
(284,343,l),
(504,0,l),
(683,0,l),
(465,343,l)
);
},
{
closed = 1;
nodes = (
(235,557,l),
(378,557,ls),
(404,557,o),
(432,540,o),
(432,507,cs),
(432,473,o),
(415,456,o),
(379,456,cs),
(235,456,l)
);
},
{
closed = 1;
nodes = (
(398,312,ls),
(500,312,o),
(584,405,o),
(584,506,cs),
(584,612,o),
(502,700,o),
(375,700,cs),
(80,700,l),
(80,0,l),
(235,0,l),
(235,312,l)
);
}
);
width = 698.33333;
}
);
note = R;
unicode = 82;
},
{
glyphname = S;
kernLeft = S;
kernRight = S;
lastChange = "2023-09-13 12:05:25 +0000";
layers = (
{
anchors = (
{
name = bottom;
pos = (257,0);
},
{
name = top;
pos = (257,700);
}
);
hints = (
{
horizontal = 1;
place = (-2,64);
type = Stem;
},
{
horizontal = 1;
place = (638,64);
type = Stem;
},
{
place = (57,70);
type = Stem;
},
{
place = (396,70);
type = Stem;
}
);
layerId = "1041D826-7B5A-4F1A-81FD-3B5FB25AF0FC";
shapes = (
{
closed = 1;
nodes = (
(366,-6,o),
(479,54,o),
(479,180,cs),
(479,323,o),
(380,360,o),
(270,405,cs),
(191,437,o),
(140,469,o),
(140,533,cs),
(140,598,o),
(192,642,o),
(256,642,cs),
(326,642,o),
(361,611,o),
(389,584,c),
(438,629,l),
(402,667,o),
(351,706,o),
(256,706,cs),
(158,706,o),
(70,634,o),
(70,533,cs),
(70,425,o),
(163,376,o),
(242,344,cs),
(329,308,o),
(409,284,o),
(409,180,cs),
(409,97,o),
(331,58,o),
(249,58,cs),
(174,58,o),
(121,93,o),
(87,131,c),
(35,88,l),
(74,45,o),
(149,-6,o),
(249,-6,cs)
);
}
);
width = 514;
},
{
anchors = (
{
name = bottom;
pos = (278,0);
},
{
name = top;
pos = (278,700);
}
);
hints = (
{
horizontal = 1;
place = (-2,133);
type = Stem;
},
{
horizontal = 1;
place = (573,132);
type = Stem;
},
{
place = (47,143);
type = Stem;
},
{
place = (350,142);
type = Stem;
}
);
layerId = "3B5F2A21-9AC0-43BD-916B-7DC2040966BF";
shapes = (
{
closed = 1;
nodes = (
(396,-6,o),
(522,61,o),
(521,200,cs),
(520,349,o),
(408,397,o),
(310,437,cs),
(244,464,o),
(219,480,o),
(219,514,cs),
(219,550,o),
(246,574,o),
(282,574,cs),
(344,574,o),
(369,543,o),
(401,506,c),
(499,596,l),
(457,654,o),
(394,706,o),
(282,706,cs),
(174,706,o),
(76,626,o),
(76,514,cs),
(76,394,o),
(184,344,o),
(256,315,cs),
(335,282,o),
(379,260,o),
(379,200,cs),
(379,152,o),
(342,123,o),
(276,123,cs),
(206,123,o),
(166,167,o),
(139,209,c),
(35,124,l),
(40,92,o),
(141,-6,o),
(276,-6,cs)
);
}
);
width = 556;
},
{
anchors = (
{
name = bottom;
pos = (243,0);
},
{
name = top;
pos = (243,700);
}
);
hints = (
{
horizontal = 1;
place = (-2,18);
type = Stem;
},
{
horizontal = 1;
place = (681,19);
type = Stem;
},
{
place = (64,21);
type = Stem;
},
{
place = (427,22);
type = Stem;
}
);
layerId = "2AB56609-6B3E-483D-8034-BAE7113127E2";
shapes = (
{
closed = 1;
nodes = (
(346,-6,o),
(450,49,o),
(451,167,cs),
(452,306,o),
(361,335,o),
(243,384,cs),
(156,419,o),
(87,462,o),
(87,546,cs),
(87,630,o),
(156,687,o),
(239,687,cs),
(314,687,o),
(356,656,o),
(381,636,c),
(397,651,l),
(365,676,o),
(322,706,o),
(239,706,cs),
(147,706,o),
(66,639,o),
(66,546,cs),
(66,446,o),
(149,397,o),
(233,363,cs),
(325,325,o),
(429,300,o),
(429,167,cs),
(429,60,o),
(324,15,o),
(231,15,cs),
(153,15,o),
(91,44,o),
(52,79,c),
(35,64,l),
(97,14,o),
(154,-6,o),
(231,-6,cs)
);
}
);
width = 486;
},
{
anchors = (
{
name = bottom;
pos = (282,0);
},
{
name = top;
pos = (282,700);
}
);
hints = (
{
horizontal = 1;
place = (-2,145);
type = Stem;
},
{
horizontal = 1;
place = (562,143);
type = Stem;
},
{
place = (45,155);
type = Stem;
},
{
place = (342,154);
type = Stem;
}
);
layerId = "1DB3F64C-B148-42AA-8299-ED68ABA9E6AC";
shapes = (
{
closed = 1;
nodes = (
(401,-6,o),
(529,62,o),
(528,203,cs),
(527,353,o),
(413,403,o),
(317,442,cs),
(253,469,o),
(232,482,o),
(232,511,cs),
(232,542,o),
(255,563,o),
(286,563,cs),
(347,563,o),
(370,532,o),
(403,493,c),
(509,591,l),
(466,652,o),
(401,706,o),
(286,706,cs),
(177,706,o),
(77,625,o),
(77,511,cs),
(77,389,o),
(188,339,o),
(258,310,cs),
(336,278,o),
(374,256,o),
(374,203,cs),
(374,161,o),
(344,134,o),
(281,134,cs),
(211,134,o),
(174,179,o),
(148,222,c),
(35,130,l),
(34,100,o),
(140,-6,o),
(281,-6,cs)
);
}
);
width = 563;
}
);
note = S;
unicode = 83;
},
{
glyphname = Germandbls;
lastChange = "2023-09-13 12:05:25 +0000";
layers = (
{
hints = (
{
horizontal = 1;
place = (-164,933);
type = Stem;
},
{
place = (36,70);
type = Stem;
},
{
horizontal = 1;
place = (-3,64);
type = Stem;
},
{
horizontal = 1;
place = (355,64);
type = Stem;
},
{
horizontal = 1;
place = (640,64);
type = Stem;
},
{
place = (366,70);
type = Stem;
},
{
place = (325,70);
type = Stem;
},
{
horizontal = 1;
place = (-3,64);
type = Stem;
},
{
horizontal = 1;
place = (355,64);
type = Stem;
},
{
horizontal = 1;
place = (640,64);
type = Stem;
},
{
place = (555,70);
type = Stem;
},
{
place = (514,70);
type = Stem;
}
);
layerId = "1041D826-7B5A-4F1A-81FD-3B5FB25AF0FC";
shapes = (
{
closed = 1;
nodes = (
(120,0,l),
(120,700,l),
(50,700,l),
(50,0,l)
);
},
{
closed = 1;
nodes = (
(527,-3,o),
(615,94,o),
(615,208,cs),
(615,335,o),
(529,407,o),
(366,407,c),
(366,389,l),
(609,700,l),
(488,630,l),
(314,416,l),
(314,358,l),
(376,358,ls),
(496,358,o),
(545,290,o),
(545,208,cs),
(545,125,o),
(486,65,o),
(396,65,cs),
(331,65,o),
(288,95,o),
(256,159,c),
(193,130,l),
(228,48,o),
(307,-3,o),
(396,-3,cs)
);
},
{
closed = 1;
nodes = (
(50,630,l),
(488,630,l),
(609,700,l),
(50,700,l)
);
}
);
width = 630;
},
{
hints = (
{
horizontal = 1;
place = (-3,133);
type = Stem;
},
{
horizontal = 1;
place = (323,116);
type = Stem;
},
{
horizontal = 1;
place = (571,133);
type = Stem;
},
{
place = (52,125);
type = Stem;
},
{
place = (331,142);
type = Stem;
},
{
place = (294,143);
type = Stem;
},
{
horizontal = 1;
place = (-152,909);
type = Stem;
},
{
place = (0,143);
type = Stem;
},
{
horizontal = 1;
place = (-3,133);
type = Stem;
},
{
horizontal = 1;
place = (323,116);
type = Stem;
},
{
horizontal = 1;
place = (571,133);
type = Stem;
},
{
place = (275,125);
type = Stem;
},
{
place = (554,142);
type = Stem;
},
{
place = (517,143);
type = Stem;
}
);
layerId = "3B5F2A21-9AC0-43BD-916B-7DC2040966BF";
shapes = (
{
closed = 1;
nodes = (
(193,0,l),
(193,700,l),
(50,700,l),
(50,0,l)
);
},
{
closed = 1;
nodes = (
(602,-3,o),
(696,102,o),
(696,223,cs),
(696,349,o),
(603,418,o),
(444,418,c),
(443,388,l),
(681,700,l),
(438,557,l),
(345,449,l),
(345,323,l),
(456,323,ls),
(519,323,o),
(554,277,o),
(554,223,cs),
(554,168,o),
(518,130,o),
(461,130,cs),
(394,130,o),
(370,180,o),
(363,221,c),
(233,165,l),
(248,95,o),
(331,-3,o),
(461,-3,cs)
);
},
{
closed = 1;
nodes = (
(50,557,l),
(438,557,l),
(681,700,l),
(50,700,l)
);
}
);
width = 733;
},
{
associatedMasterId = "1041D826-7B5A-4F1A-81FD-3B5FB25AF0FC";
hints = (
{
horizontal = 1;
place = (-164,933);
type = Stem;
},
{
place = (36,70);
type = Stem;
},
{
horizontal = 1;
place = (-3,64);
type = Stem;
},
{
horizontal = 1;
place = (355,64);
type = Stem;
},
{
horizontal = 1;
place = (640,64);
type = Stem;
},
{
place = (366,70);
type = Stem;
},
{
place = (325,70);
type = Stem;
},
{
horizontal = 1;
place = (-3,64);
type = Stem;
},
{
horizontal = 1;
place = (355,64);
type = Stem;
},
{
horizontal = 1;
place = (640,64);
type = Stem;
},
{
place = (555,70);
type = Stem;
},
{
place = (514,70);
type = Stem;
}
);
layerId = "A2B7EBD0-345C-4216-B4F3-E973222430BD";
name = "26 juil. 23  17:28";
shapes = (
{
closed = 1;
nodes = (
(120,0,l),
(120,700,l),
(50,700,l),
(50,0,l)
);
},
{
closed = 1;
nodes = (
(527,-3,o),
(615,94,o),
(615,208,cs),
(615,335,o),
(528,404,o),
(433,404,c),
(433,375,l),
(522,375,o),
(574,456,o),
(574,529,cs),
(574,621,o),
(494,700,o),
(396,700,c),
(396,632,l),
(456,632,o),
(504,588,o),
(504,529,cs),
(504,467,o),
(466,416,o),
(376,416,cs),
(364,416,l),
(364,358,l),
(376,358,ls),
(486,358,o),
(545,290,o),
(545,208,cs),
(545,125,o),
(486,65,o),
(396,65,cs),
(331,65,o),
(288,95,o),
(256,159,c),
(193,130,l),
(228,48,o),
(307,-3,o),
(396,-3,cs)
);
},
{
closed = 1;
nodes = (
(50,632,l),
(396,632,l),
(396,700,l),
(50,700,l)
);
}
);
width = 630;
},
{
associatedMasterId = "3B5F2A21-9AC0-43BD-916B-7DC2040966BF";
hints = (
{
horizontal = 1;
place = (-3,133);
type = Stem;
},
{
horizontal = 1;
place = (323,116);
type = Stem;
},
{
horizontal = 1;
place = (571,133);
type = Stem;
},
{
place = (52,125);
type = Stem;
},
{
place = (331,142);
type = Stem;
},
{
place = (294,143);
type = Stem;
},
{
horizontal = 1;
place = (-152,909);
type = Stem;
},
{
place = (0,143);
type = Stem;
},
{
horizontal = 1;
place = (-3,133);
type = Stem;
},
{
horizontal = 1;
place = (323,116);
type = Stem;
},
{
horizontal = 1;
place = (571,133);
type = Stem;
},
{
place = (275,125);
type = Stem;
},
{
place = (554,142);
type = Stem;
},
{
place = (517,143);
type = Stem;
}
);
layerId = "A9EC8282-FF15-49F1-9D5A-663D9E134332";
name = "26 juil. 23  17:28";
shapes = (
{
closed = 1;
nodes = (
(193,0,l),
(193,700,l),
(50,700,l),
(50,0,l)
);
},
{
closed = 1;
nodes = (
(602,-3,o),
(696,102,o),
(696,223,cs),
(696,349,o),
(627,418,o),
(518,418,c),
(518,355,l),
(624,355,o),
(664,451,o),
(664,505,cs),
(664,606,o),
(576,700,o),
(461,700,c),
(461,557,l),
(500,557,o),
(524,537,o),
(524,505,cs),
(524,468,o),
(502,439,o),
(437,439,cs),
(423,439,l),
(423,323,l),
(434,323,ls),
(518,323,o),
(554,277,o),
(554,223,cs),
(554,168,o),
(518,130,o),
(461,130,cs),
(394,130,o),
(370,180,o),
(363,221,c),
(233,165,l),
(248,95,o),
(331,-3,o),
(461,-3,cs)
);
},
{
closed = 1;
nodes = (
(50,557,l),
(461,557,l),
(461,700,l),
(50,700,l)
);
}
);
width = 733;
},
{
hints = (
{
horizontal = 1;
place = (-172,949);
type = Stem;
},
{
place = (-123,33);
type = Stem;
},
{
horizontal = 1;
place = (-3,18);
type = Stem;
},
{
horizontal = 1;
place = (376,29);
type = Stem;
},
{
horizontal = 1;
place = (686,18);
type = Stem;
},
{
place = (389,22);
type = Stem;
},
{
place = (346,21);
type = Stem;
},
{
horizontal = 1;
place = (-3,18);
type = Stem;
},
{
horizontal = 1;
place = (376,29);
type = Stem;
},
{
horizontal = 1;
place = (686,18);
type = Stem;
},
{
place = (556,22);
type = Stem;
},
{
place = (512,21);
type = Stem;
}
);
layerId = "2AB56609-6B3E-483D-8034-BAE7113127E2";
shapes = (
{
closed = 1;
nodes = (
(71,0,l),
(71,700,l),
(50,700,l),
(50,0,l)
);
},
{
closed = 1;
nodes = (
(477,-3,o),
(561,89,o),
(561,198,cs),
(561,326,o),
(480,400,o),
(314,400,c),
(315,390,l),
(561,700,l),
(521,679,l),
(293,394,l),
(293,381,l),
(323,381,ls),
(481,381,o),
(539,299,o),
(539,198,cs),
(539,96,o),
(465,22,o),
(353,22,cs),
(289,22,o),
(233,38,o),
(185,118,c),
(166,107,l),
(215,17,o),
(291,-3,o),
(353,-3,cs)
);
},
{
closed = 1;
nodes = (
(50,679,l),
(521,679,l),
(561,700,l),
(50,700,l)
);
}
);
width = 561.33333;
},
{
hints = (
{
horizontal = 1;
place = (-150,905);
type = Stem;
},
{
place = (315,134);
type = Stem;
},
{
horizontal = 1;
place = (-3,145);
type = Stem;
},
{
horizontal = 1;
place = (318,125);
type = Stem;
},
{
horizontal = 1;
place = (560,145);
type = Stem;
},
{
place = (325,154);
type = Stem;
},
{
place = (289,155);
type = Stem;
},
{
horizontal = 1;
place = (-3,145);
type = Stem;
},
{
horizontal = 1;
place = (318,125);
type = Stem;
},
{
horizontal = 1;
place = (560,145);
type = Stem;
},
{
place = (554,154);
type = Stem;
},
{
place = (518,155);
type = Stem;
}
);
layerId = "1DB3F64C-B148-42AA-8299-ED68ABA9E6AC";
shapes = (
{
closed = 1;
nodes = (
(205,0,l),
(205,700,l),
(50,700,l),
(50,0,l)
);
},
{
closed = 1;
nodes = (
(615,-3,o),
(710,103,o),
(710,226,cs),
(710,351,o),
(615,420,o),
(457,420,c),
(456,388,l),
(693,700,l),
(430,545,l),
(350,455,l),
(350,317,l),
(469,317,ls),
(523,317,o),
(556,275,o),
(556,226,cs),
(556,175,o),
(523,141,o),
(472,141,cs),
(405,141,o),
(384,194,o),
(381,231,c),
(240,171,l),
(251,103,o),
(335,-3,o),
(472,-3,cs)
);
},
{
closed = 1;
nodes = (
(50,545,l),
(430,545,l),
(693,700,l),
(50,700,l)
);
}
);
width = 750.16667;
}
);
unicode = 7838;
},
{
glyphname = T;
kernLeft = T;
kernRight = T;
lastChange = "2023-09-13 12:05:25 +0000";
layers = (
{
anchors = (
{
name = bottom;
pos = (317,0);
},
{
name = top;
pos = (317,700);
}
);
hints = (
{
horizontal = 1;
place = (636,64);
type = Stem;
},
{
place = (223,70);
type = Stem;
}
);
layerId = "1041D826-7B5A-4F1A-81FD-3B5FB25AF0FC";
shapes = (
{
closed = 1;
nodes = (
(352,0,l),
(352,636,l),
(609,636,l),
(609,700,l),
(25,700,l),
(25,636,l),
(282,636,l),
(282,0,l)
);
}
);
width = 634;
},
{
anchors = (
{
name = bottom;
pos = (330,0);
},
{
name = top;
pos = (330,700);
}
);
hints = (
{
horizontal = 1;
place = (568,132);
type = Stem;
},
{
place = (207,143);
type = Stem;
}
);
layerId = "3B5F2A21-9AC0-43BD-916B-7DC2040966BF";
shapes = (
{
closed = 1;
nodes = (
(402,0,l),
(402,568,l),
(635,568,l),
(635,700,l),
(25,700,l),
(25,568,l),
(259,568,l),
(259,0,l)
);
}
);
width = 660;
},
{
anchors = (
{
name = bottom;
pos = (308,0);
},
{
name = top;
pos = (308,700);
}
);
hints = (
{
horizontal = 1;
place = (681,19);
type = Stem;
},
{
place = (234,21);
type = Stem;
}
);
layerId = "2AB56609-6B3E-483D-8034-BAE7113127E2";
shapes = (
{
closed = 1;
nodes = (
(319,0,l),
(319,681,l),
(592,681,l),
(592,700,l),
(25,700,l),
(25,681,l),
(297,681,l),
(297,0,l)
);
}
);
width = 616.66667;
},
{
anchors = (
{
name = bottom;
pos = (332,0);
},
{
name = top;
pos = (332,700);
}
);
hints = (
{
horizontal = 1;
place = (557,143);
type = Stem;
},
{
place = (204,155);
type = Stem;
}
);
layerId = "1DB3F64C-B148-42AA-8299-ED68ABA9E6AC";
shapes = (
{
closed = 1;
nodes = (
(410,0,l),
(410,557,l),
(639,557,l),
(639,700,l),
(25,700,l),
(25,557,l),
(255,557,l),
(255,0,l)
);
}
);
width = 664.33333;
}
);
note = T;
unicode = 84;
},
{
glyphname = U;
kernLeft = U;
kernRight = U;
lastChange = "2023-09-13 12:05:25 +0000";
layers = (
{
anchors = (
{
name = bottom;
pos = (354,0);
},
{
name = ogonek;
pos = (342,-11);
},
{
name = top;
pos = (354,700);
}
);
hints = (
{
horizontal = 1;
place = (-9,64);
type = Stem;
},
{
place = (69,70);
type = Stem;
},
{
place = (527,70);
type = Stem;
}
);
layerId = "1041D826-7B5A-4F1A-81FD-3B5FB25AF0FC";
shapes = (
{
closed = 1;
nodes = (
(499,-6,o),
(628,70,o),
(628,265,cs),
(628,700,l),
(558,700,l),
(558,265,ls),
(558,125,o),
(470,58,o),
(354,58,cs),
(238,58,o),
(150,125,o),
(150,265,cs),
(150,700,l),
(80,700,l),
(80,265,ls),
(80,70,o),
(209,-6,o),
(354,-6,cs)
);
}
);
width = 708;
},
{
anchors = (
{
name = bottom;
pos = (364,0);
},
{
name = ogonek;
pos = (342,-11);
},
{
name = top;
pos = (364,700);
}
);
hints = (
{
horizontal = 1;
place = (-9,132);
type = Stem;
},
{
place = (67,143);
type = Stem;
},
{
place = (476,143);
type = Stem;
}
);
layerId = "3B5F2A21-9AC0-43BD-916B-7DC2040966BF";
shapes = (
{
closed = 1;
nodes = (
(519,-6,o),
(648,70,o),
(648,265,cs),
(648,700,l),
(508,700,l),
(508,259,ls),
(508,167,o),
(450,123,o),
(364,123,cs),
(278,123,o),
(220,167,o),
(220,259,cs),
(220,700,l),
(80,700,l),
(80,265,ls),
(80,70,o),
(209,-6,o),
(364,-6,cs)
);
}
);
width = 728;
},
{
anchors = (
{
name = bottom;
pos = (347,0);
},
{
name = ogonek;
pos = (342,-11);
},
{
name = top;
pos = (347,700);
}
);
hints = (
{
horizontal = 1;
place = (-9,19);
type = Stem;
},
{
place = (70,21);
type = Stem;
},
{
place = (561,21);
type = Stem;
}
);
layerId = "2AB56609-6B3E-483D-8034-BAE7113127E2";
shapes = (
{
closed = 1;
nodes = (
(486,-6,o),
(615,70,o),
(615,265,cs),
(615,700,l),
(591,700,l),
(591,269,ls),
(591,97,o),
(483,15,o),
(347,15,cs),
(211,15,o),
(103,97,o),
(103,269,cs),
(103,700,l),
(80,700,l),
(80,265,ls),
(80,70,o),
(209,-6,o),
(347,-6,cs)
);
}
);
width = 694.66667;
},
{
anchors = (
{
name = bottom;
pos = (366,0);
},
{
name = ogonek;
pos = (342,-11);
},
{
name = top;
pos = (366,700);
}
);
hints = (
{
horizontal = 1;
place = (-9,143);
type = Stem;
},
{
place = (67,155);
type = Stem;
},
{
place = (468,155);
type = Stem;
}
);
layerId = "1DB3F64C-B148-42AA-8299-ED68ABA9E6AC";
shapes = (
{
closed = 1;
nodes = (
(522,-6,o),
(651,70,o),
(651,265,cs),
(651,700,l),
(500,700,l),
(500,258,ls),
(500,174,o),
(447,134,o),
(366,134,cs),
(285,134,o),
(232,174,o),
(232,258,cs),
(232,700,l),
(80,700,l),
(80,265,ls),
(80,70,o),
(209,-6,o),
(366,-6,cs)
);
}
);
width = 731.33333;
}
);
note = U;
unicode = 85;
},
{
glyphname = V;
kernLeft = V;
kernRight = V;
lastChange = "2023-09-13 12:05:25 +0000";
layers = (
{
anchors = (
{
name = bottom;
pos = (328,0);
},
{
name = top;
pos = (328,700);
}
);
hints = (
{
horizontal = 1;
place = (0,700);
type = Stem;
},
{
place = (14,617);
type = Stem;
}
);
layerId = "1041D826-7B5A-4F1A-81FD-3B5FB25AF0FC";
shapes = (
{
closed = 1;
nodes = (
(357,0,l),
(628,700,l),
(554,700,l),
(315,82,l),
(334,82,l),
(94,700,l),
(20,700,l),
(292,0,l)
);
}
);
width = 648;
},
{
anchors = (
{
name = bottom;
pos = (352,0);
},
{
name = top;
pos = (352,700);
}
);
hints = (
{
horizontal = 1;
place = (0,700);
type = Stem;
},
{
place = (10,665);
type = Stem;
}
);
layerId = "3B5F2A21-9AC0-43BD-916B-7DC2040966BF";
shapes = (
{
closed = 1;
nodes = (
(441,0,l),
(712,700,l),
(560,700,l),
(350,158,l),
(382,158,l),
(172,700,l),
(20,700,l),
(291,0,l)
);
}
);
width = 732;
},
{
anchors = (
{
name = bottom;
pos = (312,0);
},
{
name = top;
pos = (312,700);
}
);
hints = (
{
horizontal = 1;
place = (0,700);
type = Stem;
},
{
place = (17,585);
type = Stem;
}
);
layerId = "2AB56609-6B3E-483D-8034-BAE7113127E2";
shapes = (
{
closed = 1;
nodes = (
(301,0,l),
(572,700,l),
(550,700,l),
(292,31,l),
(302,31,l),
(42,700,l),
(20,700,l),
(293,0,l)
);
}
);
width = 592;
},
{
anchors = (
{
name = bottom;
pos = (356,0);
},
{
name = top;
pos = (356,700);
}
);
hints = (
{
horizontal = 1;
place = (0,700);
type = Stem;
},
{
place = (9,673);
type = Stem;
}
);
layerId = "1DB3F64C-B148-42AA-8299-ED68ABA9E6AC";
shapes = (
{
closed = 1;
nodes = (
(455,0,l),
(726,700,l),
(561,700,l),
(356,171,l),
(390,171,l),
(185,700,l),
(20,700,l),
(291,0,l)
);
}
);
width = 746;
}
);
note = V;
unicode = 86;
},
{
glyphname = W;
kernLeft = W;
kernRight = W;
lastChange = "2023-09-13 12:05:25 +0000";
layers = (
{
anchors = (
{
name = bottom;
pos = (478,0);
},
{
name = top;
pos = (478,700);
}
);
hints = (
{
horizontal = 1;
place = (0,700);
type = Stem;
},
{
place = (23,917);
type = Stem;
}
);
layerId = "1041D826-7B5A-4F1A-81FD-3B5FB25AF0FC";
shapes = (
{
closed = 1;
nodes = (
(266,0,l),
(478,597,l),
(690,0,l),
(763,0,l),
(937,700,l),
(865,700,l),
(721,120,l),
(515,700,l),
(441,700,l),
(235,121,l),
(92,700,l),
(20,700,l),
(194,0,l)
);
}
);
width = 957;
},
{
anchors = (
{
name = bottom;
pos = (480,0);
},
{
name = top;
pos = (480,700);
}
);
hints = (
{
horizontal = 1;
place = (0,700);
type = Stem;
},
{
place = (11,920);
type = Stem;
}
);
layerId = "3B5F2A21-9AC0-43BD-916B-7DC2040966BF";
shapes = (
{
closed = 1;
nodes = (
(319,0,l),
(480,452,l),
(640,0,l),
(766,0,l),
(940,700,l),
(793,700,l),
(690,284,l),
(542,700,l),
(418,700,l),
(270,284,l),
(167,700,l),
(20,700,l),
(194,0,l)
);
}
);
width = 960;
},
{
anchors = (
{
name = bottom;
pos = (477,0);
},
{
name = top;
pos = (477,700);
}
);
hints = (
{
horizontal = 1;
place = (0,700);
type = Stem;
},
{
place = (31,915);
type = Stem;
}
);
layerId = "2AB56609-6B3E-483D-8034-BAE7113127E2";
shapes = (
{
closed = 1;
nodes = (
(231,0,l),
(477,694,l),
(723,0,l),
(761,0,l),
(935,700,l),
(913,700,l),
(742,11,l),
(497,700,l),
(456,700,l),
(212,12,l),
(42,700,l),
(20,700,l),
(194,0,l)
);
}
);
width = 955;
},
{
anchors = (
{
name = bottom;
pos = (480,0);
},
{
name = top;
pos = (480,700);
}
);
hints = (
{
horizontal = 1;
place = (0,700);
type = Stem;
},
{
place = (9,921);
type = Stem;
}
);
layerId = "1DB3F64C-B148-42AA-8299-ED68ABA9E6AC";
shapes = (
{
closed = 1;
nodes = (
(328,0,l),
(480,428,l),
(632,0,l),
(767,0,l),
(941,700,l),
(781,700,l),
(685,311,l),
(547,700,l),
(414,700,l),
(276,311,l),
(180,700,l),
(20,700,l),
(194,0,l)
);
}
);
width = 960.5;
}
);
note = W;
unicode = 87;
},
{
glyphname = X;
kernLeft = X;
kernRight = X;
lastChange = "2023-09-13 12:05:25 +0000";
layers = (
{
anchors = (
{
name = bottom;
pos = (360,0);
},
{
name = top;
pos = (360,700);
}
);
hints = (
{
horizontal = 1;
place = (0,700);
type = Stem;
},
{
place = (18,741);
type = Stem;
}
);
layerId = "1041D826-7B5A-4F1A-81FD-3B5FB25AF0FC";
shapes = (
{
closed = 1;
nodes = (
(325,383,l),
(15,0,l),
(102,0,l),
(369,330,l)
);
},
{
closed = 1;
nodes = (
(619,0,l),
(706,0,l),
(137,700,l),
(50,700,l)
);
},
{
closed = 1;
nodes = (
(398,360,l),
(675,700,l),
(588,700,l),
(354,414,l)
);
}
);
width = 721;
},
{
anchors = (
{
name = bottom;
pos = (401,0);
},
{
name = top;
pos = (401,700);
}
);
hints = (
{
horizontal = 1;
place = (0,700);
type = Stem;
},
{
place = (7,823);
type = Stem;
}
);
layerId = "3B5F2A21-9AC0-43BD-916B-7DC2040966BF";
shapes = (
{
closed = 1;
nodes = (
(327,380,l),
(15,0,l),
(193,0,l),
(417,270,l)
);
},
{
closed = 1;
nodes = (
(610,0,l),
(788,0,l),
(219,700,l),
(40,700,l)
);
},
{
closed = 1;
nodes = (
(482,346,l),
(767,700,l),
(588,700,l),
(391,455,l)
);
}
);
width = 803;
},
{
anchors = (
{
name = bottom;
pos = (333,0);
},
{
name = top;
pos = (333,700);
}
);
hints = (
{
horizontal = 1;
place = (0,700);
type = Stem;
},
{
place = (25,686);
type = Stem;
}
);
layerId = "2AB56609-6B3E-483D-8034-BAE7113127E2";
shapes = (
{
closed = 1;
nodes = (
(324,385,l),
(15,0,l),
(41,0,l),
(337,370,l)
);
},
{
closed = 1;
nodes = (
(625,0,l),
(651,0,l),
(82,700,l),
(57,700,l)
);
},
{
closed = 1;
nodes = (
(342,369,l),
(614,700,l),
(588,700,l),
(329,387,l)
);
}
);
width = 666.33333;
},
{
anchors = (
{
name = bottom;
pos = (408,0);
},
{
name = top;
pos = (408,700);
}
);
hints = (
{
horizontal = 1;
place = (0,700);
type = Stem;
},
{
place = (5,837);
type = Stem;
}
);
layerId = "1DB3F64C-B148-42AA-8299-ED68ABA9E6AC";
shapes = (
{
closed = 1;
nodes = (
(327,380,l),
(15,0,l),
(208,0,l),
(425,260,l)
);
},
{
closed = 1;
nodes = (
(609,0,l),
(802,0,l),
(233,700,l),
(38,700,l)
);
},
{
closed = 1;
nodes = (
(496,344,l),
(782,700,l),
(588,700,l),
(397,462,l)
);
}
);
width = 816.66667;
}
);
note = X;
unicode = 88;
},
{
glyphname = Y;
kernLeft = Y;
kernRight = Y;
lastChange = "2023-09-13 12:05:25 +0000";
layers = (
{
anchors = (
{
name = bottom;
pos = (330,0);
},
{
name = top;
pos = (330,700);
}
);
hints = (
{
horizontal = 1;
place = (0,700);
type = Stem;
},
{
place = (284,70);
type = Stem;
}
);
layerId = "1041D826-7B5A-4F1A-81FD-3B5FB25AF0FC";
shapes = (
{
closed = 1;
nodes = (
(365,0,l),
(365,339,l),
(645,700,l),
(559,700,l),
(330,405,l),
(101,700,l),
(15,700,l),
(295,339,l),
(295,0,l)
);
}
);
width = 660;
},
{
anchors = (
{
name = bottom;
pos = (375,0);
},
{
name = top;
pos = (375,700);
}
);
hints = (
{
horizontal = 1;
place = (0,700);
type = Stem;
},
{
place = (298,142);
type = Stem;
}
);
layerId = "3B5F2A21-9AC0-43BD-916B-7DC2040966BF";
shapes = (
{
closed = 1;
nodes = (
(446,0,l),
(446,328,l),
(735,700,l),
(559,700,l),
(375,463,l),
(191,700,l),
(15,700,l),
(304,328,l),
(304,0,l)
);
}
);
width = 750;
},
{
anchors = (
{
name = bottom;
pos = (300,0);
},
{
name = top;
pos = (300,700);
}
);
hints = (
{
horizontal = 1;
place = (0,700);
type = Stem;
},
{
place = (275,22);
type = Stem;
}
);
layerId = "2AB56609-6B3E-483D-8034-BAE7113127E2";
shapes = (
{
closed = 1;
nodes = (
(311,0,l),
(311,346,l),
(585,700,l),
(559,700,l),
(300,366,l),
(41,700,l),
(15,700,l),
(289,346,l),
(289,0,l)
);
}
);
width = 600;
},
{
anchors = (
{
name = bottom;
pos = (383,0);
},
{
name = top;
pos = (383,700);
}
);
hints = (
{
horizontal = 1;
place = (0,700);
type = Stem;
},
{
place = (300,154);
type = Stem;
}
);
layerId = "1DB3F64C-B148-42AA-8299-ED68ABA9E6AC";
shapes = (
{
closed = 1;
nodes = (
(460,0,l),
(460,326,l),
(750,700,l),
(559,700,l),
(383,473,l),
(206,700,l),
(15,700,l),
(306,326,l),
(306,0,l)
);
}
);
width = 765;
}
);
note = Y;
unicode = 89;
},
{
glyphname = Z;
kernLeft = Z;
kernRight = Z;
lastChange = "2023-09-13 12:05:25 +0000";
layers = (
{
anchors = (
{
name = bottom;
pos = (306,0);
},
{
name = top;
pos = (306,700);
}
);
hints = (
{
horizontal = 1;
place = (0,64);
type = Stem;
},
{
horizontal = 1;
place = (636,64);
type = Stem;
},
{
place = (20,591);
type = Stem;
}
);
layerId = "1041D826-7B5A-4F1A-81FD-3B5FB25AF0FC";
shapes = (
{
closed = 1;
nodes = (
(594,0,l),
(594,64,l),
(141,64,l),
(602,700,l),
(73,700,l),
(73,636,l),
(472,636,l),
(10,0,l)
);
}
);
width = 612;
},
{
anchors = (
{
name = bottom;
pos = (354,0);
},
{
name = top;
pos = (354,700);
}
);
hints = (
{
horizontal = 1;
place = (0,132);
type = Stem;
},
{
horizontal = 1;
place = (568,132);
type = Stem;
},
{
place = (6,679);
type = Stem;
}
);
layerId = "3B5F2A21-9AC0-43BD-916B-7DC2040966BF";
shapes = (
{
closed = 1;
nodes = (
(687,0,l),
(687,132,l),
(278,132,l),
(689,700,l),
(51,700,l),
(51,568,l),
(422,568,l),
(10,0,l)
);
}
);
width = 709;
},
{
anchors = (
{
name = bottom;
pos = (274,0);
},
{
name = top;
pos = (274,700);
}
);
hints = (
{
horizontal = 1;
place = (0,19);
type = Stem;
},
{
horizontal = 1;
place = (681,19);
type = Stem;
},
{
place = (29,532);
type = Stem;
}
);
layerId = "2AB56609-6B3E-483D-8034-BAE7113127E2";
shapes = (
{
closed = 1;
nodes = (
(532,0,l),
(532,19,l),
(50,19,l),
(544,700,l),
(88,700,l),
(88,681,l),
(505,681,l),
(10,0,l)
);
}
);
width = 547.33333;
},
{
anchors = (
{
name = bottom;
pos = (362,0);
},
{
name = top;
pos = (362,700);
}
);
hints = (
{
horizontal = 1;
place = (0,143);
type = Stem;
},
{
horizontal = 1;
place = (557,143);
type = Stem;
},
{
place = (4,694);
type = Stem;
}
);
layerId = "1DB3F64C-B148-42AA-8299-ED68ABA9E6AC";
shapes = (
{
closed = 1;
nodes = (
(703,0,l),
(703,143,l),
(301,143,l),
(704,700,l),
(47,700,l),
(47,557,l),
(414,557,l),
(10,0,l)
);
}
);
width = 725.16667;
}
);
note = Z;
unicode = 90;
},
{
glyphname = a;
kernLeft = a;
kernRight = a;
lastChange = "2023-09-13 12:05:25 +0000";
layers = (
{
anchors = (
{
name = bottom;
pos = (251,0);
},
{
name = ogonek;
pos = (365,-6);
},
{
name = top;
pos = (251,500);
}
);
hints = (
{
horizontal = 1;
place = (-6,64);
type = Stem;
},
{
horizontal = 1;
place = (246,57);
type = Stem;
},
{
horizontal = 1;
place = (445,64);
type = Stem;
},
{
place = (47,70);
type = Stem;
},
{
place = (371,70);
type = Stem;
}
);
layerId = "1041D826-7B5A-4F1A-81FD-3B5FB25AF0FC";
shapes = (
{
closed = 1;
nodes = (
(298,-6,o),
(352,48,o),
(364,108,c),
(364,0,l),
(434,0,l),
(434,336,ls),
(434,456,o),
(342,506,o),
(239,506,cs),
(143,506,o),
(87,459,o),
(52,415,c),
(100,373,l),
(136,416,o),
(176,442,o),
(239,442,cs),
(317,442,o),
(364,410,o),
(364,336,cs),
(364,290,l),
(333,297,o),
(296,301,o),
(263,301,cs),
(147,301,o),
(40,267,o),
(40,137,cs),
(40,71,o),
(87,-6,o),
(208,-6,cs)
);
},
{
closed = 1;
nodes = (
(142,60,o),
(110,104,o),
(110,145,cs),
(110,219,o),
(173,247,o),
(277,247,cs),
(310,247,o),
(343,242,o),
(364,237,c),
(364,123,o),
(305,60,o),
(208,60,cs)
);
}
);
width = 509;
},
{
anchors = (
{
name = bottom;
pos = (253,0);
},
{
name = ogonek;
pos = (326,-6);
},
{
name = top;
pos = (253,500);
}
);
hints = (
{
horizontal = 1;
place = (-5,126);
type = Stem;
},
{
horizontal = 1;
place = (220,99);
type = Stem;
},
{
horizontal = 1;
place = (392,117);
type = Stem;
},
{
place = (37,127);
type = Stem;
},
{
place = (324,137);
type = Stem;
}
);
layerId = "3B5F2A21-9AC0-43BD-916B-7DC2040966BF";
shapes = (
{
closed = 1;
nodes = (
(272,-5,o),
(311,19,o),
(324,54,c),
(324,0,l),
(461,0,l),
(461,316,ls),
(461,441,o),
(358,506,o),
(239,506,cs),
(142,506,o),
(73,458,o),
(36,406,c),
(129,322,l),
(158,364,o),
(194,382,o),
(239,382,cs),
(298,382,o),
(324,358,o),
(324,322,cs),
(324,311,l),
(302,317,o),
(270,322,o),
(239,322,cs),
(133,322,o),
(27,276,o),
(27,153,cs),
(27,72,o),
(81,-5,o),
(213,-5,cs)
);
},
{
closed = 1;
nodes = (
(181,121,o),
(164,141,o),
(164,161,cs),
(164,203,o),
(201,220,o),
(263,220,cs),
(282,220,o),
(306,217,o),
(324,211,c),
(323,157,o),
(284,121,o),
(220,121,cs)
);
}
);
width = 506;
},
{
anchors = (
{
name = bottom;
pos = (250,0);
},
{
name = ogonek;
pos = (391,-6);
},
{
name = top;
pos = (250,500);
}
);
hints = (
{
horizontal = 1;
place = (-7,23);
type = Stem;
},
{
horizontal = 1;
place = (263,29);
type = Stem;
},
{
horizontal = 1;
place = (480,29);
type = Stem;
},
{
place = (54,32);
type = Stem;
},
{
place = (402,25);
type = Stem;
}
);
layerId = "2AB56609-6B3E-483D-8034-BAE7113127E2";
shapes = (
{
closed = 1;
nodes = (
(315,-7,o),
(379,67,o),
(391,144,c),
(391,0,l),
(416,0,l),
(416,349,ls),
(416,466,o),
(331,506,o),
(239,506,cs),
(144,506,o),
(96,460,o),
(63,421,c),
(81,407,l),
(121,451,o),
(164,482,o),
(239,482,cs),
(330,482,o),
(391,445,o),
(391,345,cs),
(391,276,l),
(354,284,o),
(313,287,o),
(279,287,cs),
(156,287,o),
(49,261,o),
(49,126,cs),
(49,70,o),
(91,-7,o),
(205,-7,cs)
);
},
{
closed = 1;
nodes = (
(116,19,o),
(74,79,o),
(74,134,cs),
(74,230,o),
(154,265,o),
(286,265,cs),
(329,265,o),
(368,259,o),
(391,254,c),
(391,100,o),
(319,19,o),
(200,19,cs)
);
}
);
width = 511;
},
{
anchors = (
{
name = bottom;
pos = (253,0);
},
{
name = ogonek;
pos = (320,-6);
},
{
name = top;
pos = (253,500);
}
);
hints = (
{
horizontal = 1;
place = (-5,136);
type = Stem;
},
{
horizontal = 1;
place = (216,106);
type = Stem;
},
{
horizontal = 1;
place = (383,126);
type = Stem;
},
{
place = (35,137);
type = Stem;
},
{
place = (316,148);
type = Stem;
}
);
layerId = "1DB3F64C-B148-42AA-8299-ED68ABA9E6AC";
shapes = (
{
closed = 1;
nodes = (
(268,-5,o),
(304,14,o),
(317,45,c),
(317,0,l),
(466,0,l),
(466,313,ls),
(466,439,o),
(361,506,o),
(239,506,cs),
(142,506,o),
(71,458,o),
(33,405,c),
(134,314,l),
(162,355,o),
(197,372,o),
(239,372,cs),
(295,372,o),
(317,349,o),
(317,320,cs),
(317,315,l),
(297,320,o),
(266,326,o),
(235,326,cs),
(131,326,o),
(25,278,o),
(25,156,cs),
(25,72,o),
(80,-5,o),
(214,-5,cs)
);
},
{
closed = 1;
nodes = (
(188,131,o),
(173,147,o),
(173,164,cs),
(173,200,o),
(206,216,o),
(261,216,cs),
(277,216,o),
(300,213,o),
(317,207,c),
(316,163,o),
(281,131,o),
(222,131,cs)
);
}
);
width = 505.5;
}
);
note = a;
unicode = 97;
},
{
glyphname = b;
kernLeft = b;
kernRight = b;
lastChange = "2023-09-13 12:05:25 +0000";
layers = (
{
anchors = (
{
name = bottom;
pos = (283,0);
},
{
name = top;
pos = (283,500);
}
);
hints = (
{
horizontal = 1;
place = (-6,64);
type = Stem;
},
{
horizontal = 1;
place = (454,64);
type = Stem;
},
{
place = (76,70);
type = Stem;
},
{
place = (488,70);
type = Stem;
}
);
layerId = "1041D826-7B5A-4F1A-81FD-3B5FB25AF0FC";
shapes = (
{
pos = (0,500);
ref = p;
scale = (1,-1);
}
);
width = 576;
},
{
anchors = (
{
name = bottom;
pos = (298,0);
},
{
name = top;
pos = (298,500);
}
);
hints = (
{
horizontal = 1;
place = (-7,128);
type = Stem;
},
{
horizontal = 1;
place = (382,127);
type = Stem;
},
{
place = (72,137);
type = Stem;
},
{
place = (425,137);
type = Stem;
}
);
layerId = "3B5F2A21-9AC0-43BD-916B-7DC2040966BF";
shapes = (
{
pos = (0,500);
ref = p;
scale = (1,-1);
}
);
width = 606;
},
{
anchors = (
{
name = bottom;
pos = (293,0);
},
{
name = top;
pos = (293,500);
}
);
associatedMasterId = "3B5F2A21-9AC0-43BD-916B-7DC2040966BF";
hints = (
{
horizontal = 1;
place = (-7,128);
type = Stem;
},
{
horizontal = 1;
place = (382,127);
type = Stem;
},
{
place = (72,137);
type = Stem;
},
{
place = (425,137);
type = Stem;
}
);
layerId = "503A9756-814F-4858-832D-3855755A0157";
name = "26 juil. 23  11:52";
shapes = (
{
closed = 1;
nodes = (
(453,-7,o),
(562,110,o),
(562,253,cs),
(562,397,o),
(448,509,o),
(304,509,cs),
(263,509,o),
(232,499,o),
(209,483,c),
(209,700,l),
(72,700,l),
(72,0,l),
(209,0,l),
(209,20,l),
(236,3,o),
(269,-7,o),
(310,-7,cs)
);
},
{
closed = 1;
nodes = (
(263,121,o),
(229,139,o),
(209,163,c),
(209,333,l),
(222,360,o),
(252,382,o),
(304,382,cs),
(368,382,o),
(425,330,o),
(425,253,cs),
(425,176,o),
(373,121,o),
(310,121,cs)
);
}
);
width = 587;
},
{
anchors = (
{
name = bottom;
pos = (293,0);
},
{
name = top;
pos = (293,500);
}
);
associatedMasterId = "1041D826-7B5A-4F1A-81FD-3B5FB25AF0FC";
hints = (
{
horizontal = 1;
place = (-6,64);
type = Stem;
},
{
horizontal = 1;
place = (454,64);
type = Stem;
},
{
place = (76,70);
type = Stem;
},
{
place = (488,70);
type = Stem;
}
);
layerId = "8130054F-8247-43B9-AA21-8BD55B4CF1A9";
name = "26 juil. 23  11:52";
shapes = (
{
closed = 1;
nodes = (
(450,-6,o),
(558,108,o),
(558,254,cs),
(558,399,o),
(443,518,o),
(302,518,cs),
(232,518,o),
(181,489,o),
(146,453,c),
(146,700,l),
(76,700,l),
(76,0,l),
(146,0,l),
(146,59,l),
(185,18,o),
(240,-6,o),
(309,-6,cs)
);
},
{
closed = 1;
nodes = (
(223,58,o),
(166,107,o),
(146,158,c),
(146,356,l),
(163,403,o),
(214,454,o),
(302,454,cs),
(402,454,o),
(488,366,o),
(488,254,cs),
(488,141,o),
(408,58,o),
(309,58,cs)
);
}
);
width = 587;
},
{
anchors = (
{
name = bottom;
pos = (273,0);
},
{
name = top;
pos = (273,500);
}
);
hints = (
{
horizontal = 1;
place = (-5,21);
type = Stem;
},
{
horizontal = 1;
place = (502,22);
type = Stem;
},
{
place = (79,25);
type = Stem;
},
{
place = (530,25);
type = Stem;
}
);
layerId = "2AB56609-6B3E-483D-8034-BAE7113127E2";
shapes = (
{
pos = (0,500);
ref = p;
scale = (1,-1);
}
);
width = 556;
},
{
anchors = (
{
name = bottom;
pos = (301,0);
},
{
name = top;
pos = (301,500);
}
);
hints = (
{
horizontal = 1;
place = (-7,139);
type = Stem;
},
{
horizontal = 1;
place = (370,138);
type = Stem;
},
{
place = (71,148);
type = Stem;
},
{
place = (415,148);
type = Stem;
}
);
layerId = "1DB3F64C-B148-42AA-8299-ED68ABA9E6AC";
shapes = (
{
pos = (0,500);
ref = p;
scale = (1,-1);
}
);
width = 611;
}
);
note = b;
unicode = 98;
},
{
glyphname = c;
kernLeft = c;
kernRight = c;
lastChange = "2023-09-13 12:05:25 +0000";
layers = (
{
anchors = (
{
name = bottom;
pos = (260,0);
},
{
name = top;
pos = (260,500);
}
);
hints = (
{
horizontal = 1;
place = (-11,64);
type = Stem;
},
{
horizontal = 1;
place = (452,64);
type = Stem;
},
{
place = (37,70);
type = Stem;
}
);
layerId = "1041D826-7B5A-4F1A-81FD-3B5FB25AF0FC";
shapes = (
{
closed = 1;
nodes = (
(396,-6,o),
(463,38,o),
(501,93,c),
(448,136,l),
(421,94,o),
(380,58,o),
(298,58,cs),
(193,58,o),
(105,126,o),
(105,251,cs),
(105,369,o),
(191,442,o),
(298,442,cs),
(363,442,o),
(420,410,o),
(442,361,c),
(494,406,l),
(458,474,o),
(372,506,o),
(298,506,cs),
(149,506,o),
(35,402,o),
(35,251,cs),
(35,92,o),
(153,-6,o),
(298,-6,cs)
);
}
);
width = 531;
},
{
anchors = (
{
name = bottom;
pos = (279,0);
},
{
name = top;
pos = (279,500);
}
);
hints = (
{
horizontal = 1;
place = (-9,126);
type = Stem;
},
{
horizontal = 1;
place = (388,127);
type = Stem;
},
{
place = (32,137);
type = Stem;
}
);
layerId = "3B5F2A21-9AC0-43BD-916B-7DC2040966BF";
shapes = (
{
closed = 1;
nodes = (
(419,-6,o),
(498,45,o),
(538,111,c),
(436,194,l),
(411,143,o),
(367,120,o),
(309,120,cs),
(231,120,o),
(172,168,o),
(172,250,cs),
(172,327,o),
(230,379,o),
(309,379,cs),
(353,379,o),
(406,359,o),
(431,313,c),
(527,404,l),
(487,461,o),
(403,506,o),
(309,506,cs),
(148,506,o),
(35,392,o),
(35,250,cs),
(35,100,o),
(153,-6,o),
(309,-6,cs)
);
}
);
width = 568;
},
{
anchors = (
{
name = bottom;
pos = (247,0);
},
{
name = top;
pos = (247,500);
}
);
hints = (
{
horizontal = 1;
place = (-12,23);
type = Stem;
},
{
horizontal = 1;
place = (495,22);
type = Stem;
},
{
place = (40,25);
type = Stem;
}
);
layerId = "2AB56609-6B3E-483D-8034-BAE7113127E2";
shapes = (
{
closed = 1;
nodes = (
(381,-6,o),
(440,33,o),
(476,81,c),
(456,97,l),
(428,61,o),
(389,17,o),
(291,17,cs),
(168,17,o),
(60,98,o),
(60,252,cs),
(60,397,o),
(165,484,o),
(291,484,cs),
(370,484,o),
(429,444,o),
(449,393,c),
(472,407,l),
(439,483,o),
(351,506,o),
(291,506,cs),
(150,506,o),
(35,409,o),
(35,252,cs),
(35,87,o),
(153,-6,o),
(291,-6,cs)
);
}
);
width = 506.33333;
},
{
anchors = (
{
name = bottom;
pos = (282,0);
},
{
name = top;
pos = (282,500);
}
);
hints = (
{
horizontal = 1;
place = (-9,136);
type = Stem;
},
{
horizontal = 1;
place = (377,138);
type = Stem;
},
{
place = (31,148);
type = Stem;
}
);
layerId = "1DB3F64C-B148-42AA-8299-ED68ABA9E6AC";
shapes = (
{
closed = 1;
nodes = (
(423,-6,o),
(504,46,o),
(544,114,c),
(434,204,l),
(409,151,o),
(365,130,o),
(311,130,cs),
(237,130,o),
(183,175,o),
(183,250,cs),
(183,320,o),
(237,369,o),
(311,369,cs),
(351,369,o),
(404,351,o),
(429,305,c),
(533,404,l),
(492,459,o),
(408,506,o),
(311,506,cs),
(148,506,o),
(35,390,o),
(35,250,cs),
(35,101,o),
(153,-6,o),
(311,-6,cs)
);
}
);
width = 574.16667;
}
);
note = c;
unicode = 99;
},
{
glyphname = eth;
kernLeft = c;
kernRight = eth;
lastChange = "2023-09-13 12:05:25 +0000";
layers = (
{
hints = (
{
horizontal = 1;
place = (-9,64);
type = Stem;
},
{
horizontal = 1;
place = (403,64);
type = Stem;
},
{
horizontal = 1;
place = (674,64);
type = Stem;
},
{
place = (93,70);
type = Stem;
},
{
place = (425,70);
type = Stem;
}
);
layerId = "1041D826-7B5A-4F1A-81FD-3B5FB25AF0FC";
shapes = (
{
closed = 1;
nodes = (
(411,-9,o),
(495,106,o),
(495,229,cs),
(495,407,o),
(432,567,o),
(320,658,c),
(395,744,l),
(342,786,l),
(264,696,l),
(213,723,o),
(155,738,o),
(90,738,c),
(90,674,l),
(137,674,o),
(180,664,o),
(219,644,c),
(179,598,l),
(232,556,l),
(276,607,l),
(326,566,o),
(364,508,o),
(390,439,c),
(361,457,o),
(329,467,o),
(294,467,cs),
(174,467,o),
(93,351,o),
(93,229,cs),
(93,98,o),
(183,-9,o),
(294,-9,cs)
);
},
{
closed = 1;
nodes = (
(227,55,o),
(163,129,o),
(163,229,cs),
(163,316,o),
(217,403,o),
(294,403,cs),
(361,403,o),
(425,329,o),
(425,229,cs),
(425,148,o),
(375,55,o),
(294,55,cs)
);
}
);
width = 600;
},
{
hints = (
{
horizontal = 1;
place = (-3,133);
type = Stem;
},
{
horizontal = 1;
place = (366,132);
type = Stem;
},
{
horizontal = 1;
place = (607.13,129.87);
type = Stem;
},
{
place = (74,143);
type = Stem;
},
{
place = (371,142);
type = Stem;
}
);
layerId = "3B5F2A21-9AC0-43BD-916B-7DC2040966BF";
shapes = (
{
closed = 1;
nodes = (
(421,-3,o),
(513,114,o),
(513,261,cs),
(513,412,o),
(460,564,o),
(349,655,c),
(413,728,l),
(331,798,l),
(256,711,l),
(202,733,o),
(140,744,o),
(71,737,c),
(71,604,l),
(103,609,o),
(133,608,o),
(161,602,c),
(135,572,l),
(216,502,l),
(258,551,l),
(275,536,o),
(294,516,o),
(307,496,c),
(305,497,o),
(299,498,o),
(294,498,cs),
(171,498,o),
(74,381,o),
(74,248,cs),
(74,112,o),
(170,-3,o),
(294,-3,cs)
);
},
{
closed = 1;
nodes = (
(258,130,o),
(217,177,o),
(217,248,cs),
(217,319,o),
(249,366,o),
(294,366,cs),
(329,366,o),
(371,319,o),
(371,249,cs),
(371,174,o),
(338,130,o),
(294,130,cs)
);
}
);
width = 600;
},
{
hints = (
{
horizontal = 1;
place = (-13,18);
type = Stem;
},
{
horizontal = 1;
place = (428,19);
type = Stem;
},
{
horizontal = 1;
place = (719,20);
type = Stem;
},
{
place = (106,21);
type = Stem;
},
{
place = (461,22);
type = Stem;
}
);
layerId = "2AB56609-6B3E-483D-8034-BAE7113127E2";
shapes = (
{
closed = 1;
nodes = (
(404,-13,o),
(483,101,o),
(483,208,cs),
(483,404,o),
(413,569,o),
(301,660,c),
(383,755,l),
(349,778,l),
(269,686,l),
(220,716,o),
(165,734,o),
(103,739,c),
(103,721,l),
(160,717,o),
(211,701,o),
(258,672,c),
(208,615,l),
(243,592,l),
(288,644,l),
(360,586,o),
(411,503,o),
(445,401,c),
(398,430,o),
(349,446,o),
(294,446,cs),
(176,446,o),
(106,331,o),
(106,216,cs),
(106,89,o),
(192,-13,o),
(294,-13,cs)
);
},
{
closed = 1;
nodes = (
(206,5,o),
(127,97,o),
(127,216,cs),
(127,314,o),
(196,428,o),
(294,428,cs),
(382,428,o),
(461,336,o),
(461,216,cs),
(461,131,o),
(400,5,o),
(294,5,cs)
);
}
);
width = 600;
},
{
hints = (
{
horizontal = 1;
place = (-2,145);
type = Stem;
},
{
horizontal = 1;
place = (360,143);
type = Stem;
},
{
horizontal = 1;
place = (596,141);
type = Stem;
},
{
place = (71,155);
type = Stem;
},
{
place = (362,154);
type = Stem;
}
);
layerId = "1DB3F64C-B148-42AA-8299-ED68ABA9E6AC";
shapes = (
{
closed = 1;
nodes = (
(423,-2,o),
(516,115,o),
(516,266,cs),
(516,413,o),
(465,564,o),
(354,655,c),
(416,725,l),
(329,800,l),
(255,714,l),
(200,735,o),
(138,745,o),
(68,737,c),
(68,592,l),
(97,598,o),
(125,599,o),
(151,595,c),
(128,568,l),
(213,493,l),
(255,542,l),
(267,531,o),
(282,517,o),
(293,506,c),
(296,504,o),
(294,503,o),
(294,503,cs),
(171,503,o),
(71,386,o),
(71,251,cs),
(71,114,o),
(168,-2,o),
(294,-2,cs)
);
},
{
closed = 1;
nodes = (
(263,143,o),
(226,185,o),
(226,251,cs),
(226,320,o),
(254,360,o),
(294,360,cs),
(324,360,o),
(362,317,o),
(362,252,cs),
(362,178,o),
(332,143,o),
(294,143,cs)
);
}
);
width = 600;
}
);
note = eth;
unicode = 240;
},
{
glyphname = e;
kernLeft = c;
kernRight = e;
lastChange = "2023-09-13 12:05:25 +0000";
layers = (
{
anchors = (
{
name = bottom;
pos = (286,0);
},
{
name = ogonek;
pos = (405,33);
},
{
name = top;
pos = (286,500);
}
);
background = {
shapes = (
{
closed = 1;
nodes = (
(111,292,l),
(144,282,l),
(128,376,o),
(189,449,o),
(287,449,cs),
(380,449,o),
(469,394,o),
(469,260,cs),
(469,115,o),
(381,54,o),
(286,54,cs),
(214,54,o),
(157,89,o),
(126,151,c),
(71,107,l),
(111,42,o),
(185,-10,o),
(286,-10,cs),
(455,-10,o),
(539,118,o),
(539,260,cs),
(539,401,o),
(444,513,o),
(287,513,cs),
(138,513,o),
(47,398,o),
(76,237,c),
(503,237,l),
(503,292,l)
);
}
);
};
hints = (
{
horizontal = 1;
place = (-10,64);
type = Stem;
},
{
horizontal = 1;
place = (247,61);
type = Stem;
},
{
horizontal = 1;
place = (454,64);
type = Stem;
},
{
place = (38,70);
type = Stem;
},
{
place = (439,68.04);
type = Stem;
}
);
layerId = "1041D826-7B5A-4F1A-81FD-3B5FB25AF0FC";
shapes = (
{
closed = 1;
nodes = (
(71,237,l),
(498,237,l),
(525,380,o),
(444,513,o),
(277,513,cs),
(120,513,o),
(35,401,o),
(35,260,cs),
(35,118,o),
(119,-10,o),
(288,-10,cs),
(427,-10,o),
(485,78,o),
(501,108,c),
(447,150,l),
(425,97,o),
(378,54,o),
(288,54,cs),
(183,54,o),
(105,125,o),
(105,260,cs),
(105,394,o),
(184,455,o),
(277,455,cs),
(385,455,o),
(444,383,o),
(428,272,c),
(447,292,l),
(71,292,l)
);
}
);
width = 533;
},
{
anchors = (
{
name = bottom;
pos = (298,0);
},
{
name = ogonek;
pos = (409,38);
},
{
name = top;
pos = (298,500);
}
);
background = {
shapes = (
{
closed = 1;
nodes = (
(187,322,l),
(224,300,l),
(210,350,o),
(231,402,o),
(316,402,cs),
(396,402,o),
(430,345,o),
(430,257,cs),
(430,142,o),
(379,112,o),
(301,112,cs),
(232,112,o),
(192,147,o),
(179,191,c),
(75,107,l),
(115,40,o),
(186,-11,o),
(301,-11,cs),
(483,-11,o),
(566,119,o),
(566,257,cs),
(566,405,o),
(475,513,o),
(316,513,cs),
(202,513,o),
(47,458,o),
(80,219,c),
(500,219,l),
(500,322,l)
);
}
);
};
hints = (
{
horizontal = 1;
place = (-11,123);
type = Stem;
},
{
horizontal = 1;
place = (219,108);
type = Stem;
},
{
horizontal = 1;
place = (402,111);
type = Stem;
},
{
place = (35,137);
type = Stem;
},
{
place = (377,129.53);
type = Stem;
}
);
layerId = "3B5F2A21-9AC0-43BD-916B-7DC2040966BF";
shapes = (
{
closed = 1;
nodes = (
(101,219,l),
(521,219,l),
(554,458,o),
(399,513,o),
(285,513,cs),
(126,513,o),
(35,405,o),
(35,257,cs),
(35,119,o),
(118,-11,o),
(300,-11,cs),
(415,-11,o),
(487,40,o),
(527,107,c),
(423,191,l),
(410,147,o),
(379,112,o),
(300,112,cs),
(222,112,o),
(171,152,o),
(171,257,cs),
(171,355,o),
(205,400,o),
(285,400,cs),
(370,400,o),
(391,350,o),
(377,290,c),
(417,322,l),
(101,322,l)
);
}
);
width = 557;
},
{
anchors = (
{
name = bottom;
pos = (278,0);
},
{
name = ogonek;
pos = (402,30);
},
{
name = top;
pos = (278,500);
}
);
hints = (
{
horizontal = 1;
place = (-9,25);
type = Stem;
},
{
horizontal = 1;
place = (266,30);
type = Stem;
},
{
horizontal = 1;
place = (489,33);
type = Stem;
},
{
place = (40,25);
type = Stem;
},
{
place = (480,27);
type = Stem;
}
);
layerId = "2AB56609-6B3E-483D-8034-BAE7113127E2";
shapes = (
{
closed = 1;
nodes = (
(51,249,l),
(483,249,l),
(506,328,o),
(474,513,o),
(272,513,cs),
(116,513,o),
(35,398,o),
(35,262,cs),
(35,117,o),
(120,-9,o),
(280,-9,cs),
(435,-9,o),
(484,103,o),
(484,109,c),
(463,123,l),
(435,64,o),
(377,15,o),
(280,15,cs),
(157,15,o),
(61,107,o),
(61,262,cs),
(61,420,o),
(170,492,o),
(272,492,cs),
(395,492,o),
(479,405,o),
(462,260,c),
(467,272,l),
(51,272,l)
);
}
);
width = 517;
},
{
anchors = (
{
name = bottom;
pos = (300,0);
},
{
name = ogonek;
pos = (410,39);
},
{
name = top;
pos = (300,500);
}
);
hints = (
{
horizontal = 1;
place = (-11,133);
type = Stem;
},
{
horizontal = 1;
place = (214,116);
type = Stem;
},
{
horizontal = 1;
place = (393,119);
type = Stem;
},
{
place = (35,148);
type = Stem;
},
{
place = (367,140);
type = Stem;
}
);
layerId = "1DB3F64C-B148-42AA-8299-ED68ABA9E6AC";
shapes = (
{
closed = 1;
nodes = (
(106,216,l),
(525,216,l),
(559,471,o),
(392,513,o),
(286,513,cs),
(127,513,o),
(35,406,o),
(35,257,cs),
(35,119,o),
(118,-11,o),
(302,-11,cs),
(413,-11,o),
(487,34,o),
(531,107,c),
(419,198,l),
(408,155,o),
(379,122,o),
(302,122,cs),
(229,122,o),
(182,157,o),
(182,257,cs),
(182,349,o),
(209,391,o),
(286,391,cs),
(368,391,o),
(382,345,o),
(369,293,c),
(412,327,l),
(106,327,l)
);
}
);
width = 561;
}
);
note = e;
unicode = 101;
},
{
glyphname = f;
kernLeft = f;
kernRight = f;
lastChange = "2023-09-13 12:05:25 +0000";
layers = (
{
anchors = (
{
name = bottom;
pos = (172,0);
},
{
name = top;
pos = (172,500);
}
);
hints = (
{
horizontal = 1;
place = (443,64);
type = Stem;
},
{
horizontal = 1;
place = (653,62);
type = Stem;
},
{
place = (103,70);
type = Stem;
}
);
layerId = "1041D826-7B5A-4F1A-81FD-3B5FB25AF0FC";
shapes = (
{
closed = 1;
nodes = (
(173,0,l),
(173,436,l),
(316,436,l),
(316,500,l),
(173,500,l),
(173,571,ls),
(173,622,o),
(190,653,o),
(236,653,cs),
(255,653,o),
(283,646,o),
(309,616,c),
(345,667,l),
(323,698,o),
(279,715,o),
(231,715,cs),
(133,715,o),
(103,653,o),
(103,571,cs),
(103,500,l),
(9,500,l),
(9,436,l),
(103,436,l),
(103,0,l)
);
}
);
width = 344;
},
{
anchors = (
{
name = bottom;
pos = (197,0);
},
{
name = top;
pos = (197,500);
}
);
hints = (
{
horizontal = 1;
place = (380,127);
type = Stem;
},
{
horizontal = 1;
place = (591,120);
type = Stem;
},
{
place = (96,137);
type = Stem;
}
);
layerId = "3B5F2A21-9AC0-43BD-916B-7DC2040966BF";
shapes = (
{
closed = 1;
nodes = (
(233,0,l),
(233,373,l),
(355,373,l),
(355,500,l),
(233,500,l),
(233,542,ls),
(233,579,o),
(249,591,o),
(265,591,cs),
(283,591,o),
(302,580,o),
(323,551,c),
(388,653,l),
(349,699,o),
(296,711,o),
(248,711,cs),
(120,711,o),
(96,622,o),
(96,542,cs),
(96,500,l),
(15,500,l),
(15,373,l),
(96,373,l),
(96,0,l)
);
}
);
width = 394;
},
{
anchors = (
{
name = bottom;
pos = (155,0);
},
{
name = top;
pos = (155,500);
}
);
hints = (
{
horizontal = 1;
place = (485,22);
type = Stem;
},
{
horizontal = 1;
place = (694,23);
type = Stem;
},
{
place = (108,25);
type = Stem;
}
);
layerId = "2AB56609-6B3E-483D-8034-BAE7113127E2";
shapes = (
{
closed = 1;
nodes = (
(133,0,l),
(133,478,l),
(290,478,l),
(290,500,l),
(133,500,l),
(133,590,ls),
(133,651,o),
(151,694,o),
(217,694,cs),
(236,694,o),
(270,690,o),
(300,659,c),
(316,676,l),
(306,697,o),
(268,718,o),
(220,718,cs),
(142,718,o),
(108,674,o),
(108,590,cs),
(108,500,l),
(5,500,l),
(5,478,l),
(108,478,l),
(108,0,l)
);
}
);
width = 310.66667;
},
{
anchors = (
{
name = bottom;
pos = (201,0);
},
{
name = top;
pos = (201,500);
}
);
hints = (
{
horizontal = 1;
place = (370,138);
type = Stem;
},
{
horizontal = 1;
place = (581,130);
type = Stem;
},
{
place = (95,148);
type = Stem;
}
);
layerId = "1DB3F64C-B148-42AA-8299-ED68ABA9E6AC";
shapes = (
{
closed = 1;
nodes = (
(243,0,l),
(243,363,l),
(362,363,l),
(362,500,l),
(243,500,l),
(243,537,ls),
(243,572,o),
(259,581,o),
(270,581,cs),
(288,581,o),
(305,569,o),
(325,540,c),
(395,651,l),
(353,699,o),
(299,710,o),
(251,710,cs),
(118,710,o),
(95,617,o),
(95,537,cs),
(95,500,l),
(16,500,l),
(16,363,l),
(95,363,l),
(95,0,l)
);
}
);
width = 402.33333;
}
);
note = f;
unicode = 102;
},
{
glyphname = g;
kernLeft = g;
kernRight = g;
lastChange = "2023-09-13 12:05:25 +0000";
layers = (
{
anchors = (
{
name = bottom;
pos = (280,0);
},
{
name = top;
pos = (280,500);
}
);
hints = (
{
horizontal = 1;
place = (-301,64);
type = Stem;
},
{
horizontal = 1;
place = (-20,64);
type = Stem;
},
{
horizontal = 1;
place = (147,64);
type = Stem;
},
{
horizontal = 1;
place = (436,58.5);
type = Stem;
},
{
place = (38.87,70.13);
type = Stem;
},
{
place = (455,70);
type = Stem;
},
{
horizontal = 1;
place = (446,64);
type = Stem;
},
{
place = (90,70);
type = Stem;
},
{
place = (33,67);
type = Stem;
},
{
place = (385,70);
type = Stem;
}
);
layerId = "1041D826-7B5A-4F1A-81FD-3B5FB25AF0FC";
shapes = (
{
closed = 1;
nodes = (
(404,434,l),
(520,417,l),
(531,495,l),
(342,484,l)
);
},
{
closed = 1;
nodes = (
(212,207,o),
(160,255,o),
(160,325,cs),
(160,395,o),
(212,442,o),
(272,442,cs),
(332,442,o),
(385,395,o),
(385,325,cs),
(385,255,o),
(333,207,o),
(272,207,cs)
);
},
{
closed = 1;
nodes = (
(372,506,o),
(272,506,cs),
(172,506,o),
(90,425,o),
(90,325,cs),
(90,269,o),
(114,220,o),
(154,186,c),
(189,199,l),
(98,211,o),
(39,156,o),
(39,91,cs),
(39,-27,o),
(175,-24,o),
(297,-24,cs),
(390,-24,o),
(456,-37,o),
(456,-111,cs),
(456,-201,o),
(371,-241,o),
(251,-241,cs),
(131,-241,o),
(95,-184,o),
(96,-124,cs),
(97,-75,o),
(138,-28,o),
(184,-17,c),
(139,2,l),
(78,-25,o),
(33,-79,o),
(33,-149,cs),
(33,-228,o),
(95,-305,o),
(250,-305,cs),
(444,-305,o),
(525,-213,o),
(525,-107,cs),
(525,26,o),
(411,40,o),
(284,40,cs),
(256,40,o),
(230,39,o),
(209,39,cs),
(150,39,o),
(103,51,o),
(103,100,cs),
(103,163,o),
(166,169,o),
(192,159,cs),
(227,146,o),
(245,143,o),
(272,143,cs),
(373,143,o),
(455,224,o),
(455,325,cs),
(455,425,o)
);
}
);
width = 561;
},
{
anchors = (
{
name = bottom;
pos = (283,0);
},
{
name = top;
pos = (283,500);
}
);
hints = (
{
horizontal = 1;
place = (-301,111);
type = Stem;
},
{
horizontal = 1;
place = (-51,120);
type = Stem;
},
{
horizontal = 1;
place = (126,126);
type = Stem;
},
{
horizontal = 1;
place = (382,127);
type = Stem;
},
{
place = (77,137);
type = Stem;
},
{
place = (409,129);
type = Stem;
},
{
place = (20,102);
type = Stem;
},
{
place = (21,121);
type = Stem;
},
{
place = (331,137);
type = Stem;
}
);
layerId = "3B5F2A21-9AC0-43BD-916B-7DC2040966BF";
shapes = (
{
closed = 1;
nodes = (
(437,390,l),
(549,371,l),
(555,496,l),
(337,487,l)
);
},
{
closed = 1;
nodes = (
(242,249,o),
(214,272,o),
(214,314,cs),
(214,356,o),
(242,379,o),
(272,379,cs),
(302,379,o),
(331,356,o),
(331,314,cs),
(331,272,o),
(303,249,o),
(272,249,cs)
);
},
{
closed = 1;
nodes = (
(380,506,o),
(272,506,cs),
(164,506,o),
(77,420,o),
(77,314,cs),
(77,263,o),
(98,216,o),
(131,182,c),
(197,203,l),
(108,231,o),
(6,191,o),
(6,88,cs),
(6,-39,o),
(110,-54,o),
(319,-54,cs),
(361,-54,o),
(406,-66,o),
(406,-114,cs),
(406,-166,o),
(327,-180,o),
(251,-180,cs),
(173,-180,o),
(141,-155,o),
(141,-119,cs),
(141,-73,o),
(184,-46,o),
(201,-46,c),
(128,-17,l),
(72,-39,o),
(20,-90,o),
(20,-156,cs),
(20,-262,o),
(119,-304,o),
(249,-304,cs),
(435,-304,o),
(538,-239,o),
(538,-95,cs),
(538,49,o),
(398,66,o),
(282,66,cs),
(255,66,o),
(230,65,o),
(210,65,cs),
(152,65,o),
(125,75,o),
(125,106,cs),
(125,141,o),
(167,141,o),
(194,133,cs),
(216,126,o),
(243,123,o),
(272,123,cs),
(380,123,o),
(468,209,o),
(468,314,cs),
(468,420,o)
);
}
);
width = 567;
},
{
anchors = (
{
name = bottom;
pos = (283,0);
},
{
name = top;
pos = (283,500);
}
);
associatedMasterId = "3B5F2A21-9AC0-43BD-916B-7DC2040966BF";
hints = (
{
horizontal = 1;
place = (-301,111);
type = Stem;
},
{
horizontal = 1;
place = (-51,120);
type = Stem;
},
{
horizontal = 1;
place = (126,126);
type = Stem;
},
{
horizontal = 1;
place = (382,127);
type = Stem;
},
{
place = (77,137);
type = Stem;
},
{
place = (409,129);
type = Stem;
},
{
place = (20,102);
type = Stem;
},
{
place = (21,121);
type = Stem;
},
{
place = (331,137);
type = Stem;
}
);
layerId = "00060772-D605-4FE6-B0F1-D2CD124D3AFE";
name = "26 juil. 23  10:57";
shapes = (
{
closed = 1;
nodes = (
(435,-301,o),
(538,-236,o),
(538,-92,cs),
(538,52,o),
(398,69,o),
(282,69,cs),
(255,69,o),
(230,68,o),
(210,68,cs),
(152,68,o),
(125,78,o),
(125,109,cs),
(125,131,o),
(152,153,o),
(194,136,cs),
(217,127,o),
(243,126,o),
(272,126,cs),
(380,126,o),
(468,212,o),
(468,317,cs),
(468,343,o),
(462,367,o),
(453,390,c),
(533,379,l),
(539,504,l),
(353,491,l),
(328,503,o),
(301,509,o),
(272,509,cs),
(164,509,o),
(77,423,o),
(77,317,cs),
(77,266,o),
(98,219,o),
(131,185,c),
(197,206,l),
(99,236,o),
(6,186,o),
(6,91,cs),
(6,32,o),
(50,-10,o),
(94,-27,c),
(84,-32,o),
(27,-55,o),
(21,-125,cs),
(10,-243,o),
(112,-301,o),
(249,-301,cs)
);
},
{
closed = 1;
nodes = (
(164,-190,o),
(134,-151,o),
(142,-115,cs),
(148,-84,o),
(177,-58,o),
(192,-49,c),
(205,-49,o),
(253,-51,o),
(319,-51,cs),
(365,-51,o),
(405,-65,o),
(409,-100,cs),
(419,-175,o),
(331,-190,o),
(251,-190,cs)
);
},
{
closed = 1;
nodes = (
(242,252,o),
(214,280,o),
(214,317,cs),
(214,354,o),
(242,382,o),
(272,382,cs),
(303,382,o),
(331,354,o),
(331,317,cs),
(331,280,o),
(303,252,o),
(272,252,cs)
);
}
);
width = 567;
},
{
anchors = (
{
name = bottom;
pos = (278,0);
},
{
name = top;
pos = (278,500);
}
);
hints = (
{
horizontal = 1;
place = (-774,21);
type = Stem;
},
{
horizontal = 1;
place = (167,33);
type = Stem;
},
{
horizontal = 1;
place = (279,27);
type = Stem;
},
{
horizontal = 1;
place = (643,13);
type = Stem;
},
{
place = (51,49);
type = Stem;
},
{
place = (538,25);
type = Stem;
},
{
horizontal = 1;
place = (489,22);
type = Stem;
},
{
place = (136,36);
type = Stem;
},
{
place = (55,112);
type = Stem;
},
{
place = (590,25);
type = Stem;
}
);
layerId = "2AB56609-6B3E-483D-8034-BAE7113127E2";
shapes = (
{
closed = 1;
nodes = (
(382,463,l),
(501,448,l),
(515,494,l),
(345,482,l)
);
},
{
closed = 1;
nodes = (
(192,179,o),
(124,244,o),
(124,332,cs),
(124,421,o),
(192,484,o),
(272,484,cs),
(352,484,o),
(421,421,o),
(421,332,cs),
(421,244,o),
(353,179,o),
(272,179,cs)
);
},
{
closed = 1;
nodes = (
(367,506,o),
(272,506,cs),
(177,506,o),
(99,428,o),
(99,332,cs),
(99,273,o),
(125,223,o),
(169,189,c),
(184,196,l),
(91,198,o),
(61,133,o),
(61,93,cs),
(61,-19,o),
(218,-4,o),
(282,-4,cs),
(409,-4,o),
(489,-18,o),
(489,-109,cs),
(489,-224,o),
(400,-282,o),
(251,-282,cs),
(103,-282,o),
(64,-203,o),
(66,-127,cs),
(68,-76,o),
(107,-16,o),
(173,2,c),
(146,15,l),
(82,-16,o),
(42,-72,o),
(42,-144,cs),
(42,-205,o),
(79,-306,o),
(251,-306,cs),
(450,-306,o),
(516,-196,o),
(516,-115,cs),
(516,11,o),
(420,23,o),
(285,23,cs),
(257,23,o),
(230,22,o),
(208,22,cs),
(149,22,o),
(88,35,o),
(88,96,cs),
(88,178,o),
(165,188,o),
(191,176,cs),
(234,159,o),
(246,156,o),
(272,156,cs),
(368,156,o),
(446,234,o),
(446,332,cs),
(446,428,o)
);
}
);
width = 557;
},
{
anchors = (
{
name = bottom;
pos = (284,0);
},
{
name = top;
pos = (284,500);
}
);
hints = (
{
horizontal = 1;
place = (527,140);
type = Stem;
},
{
horizontal = 1;
place = (-348,119);
type = Stem;
},
{
horizontal = 1;
place = (-84,129);
type = Stem;
},
{
horizontal = 1;
place = (82,137);
type = Stem;
},
{
place = (17,104);
type = Stem;
},
{
place = (308,148);
type = Stem;
},
{
horizontal = 1;
place = (364,138);
type = Stem;
},
{
place = (9,130);
type = Stem;
},
{
place = (-5,-8);
type = Stem;
},
{
place = (28,148);
type = Stem;
}
);
layerId = "1DB3F64C-B148-42AA-8299-ED68ABA9E6AC";
shapes = (
{
closed = 1;
nodes = (
(443,383,l),
(554,363,l),
(559,496,l),
(336,488,l)
);
},
{
closed = 1;
nodes = (
(247,256,o),
(223,275,o),
(223,312,cs),
(223,350,o),
(247,369,o),
(272,369,cs),
(297,369,o),
(322,350,o),
(322,312,cs),
(322,275,o),
(298,256,o),
(272,256,cs)
);
},
{
closed = 1;
nodes = (
(381,506,o),
(272,506,cs),
(163,506,o),
(75,419,o),
(75,312,cs),
(75,262,o),
(95,215,o),
(127,181,c),
(198,204,l),
(110,234,o),
(1,197,o),
(1,88,cs),
(1,-41,o),
(99,-59,o),
(323,-59,cs),
(356,-59,o),
(398,-71,o),
(398,-114,cs),
(398,-160,o),
(320,-170,o),
(251,-170,cs),
(180,-170,o),
(149,-150,o),
(149,-118,cs),
(148,-73,o),
(192,-49,o),
(204,-51,c),
(126,-20,l),
(71,-41,o),
(18,-92,o),
(18,-157,cs),
(18,-268,o),
(123,-304,o),
(249,-304,cs),
(434,-304,o),
(540,-243,o),
(540,-93,cs),
(540,53,o),
(396,70,o),
(282,70,cs),
(255,70,o),
(230,69,o),
(210,69,cs),
(152,69,o),
(129,79,o),
(129,107,cs),
(129,137,o),
(167,136,o),
(194,129,cs),
(214,123,o),
(243,120,o),
(272,120,cs),
(381,120,o),
(470,207,o),
(470,312,cs),
(470,419,o)
);
}
);
width = 568;
}
);
note = g;
unicode = 103;
},
{
glyphname = h;
kernLeft = b;
kernRight = h;
lastChange = "2023-09-13 12:05:25 +0000";
layers = (
{
anchors = (
{
name = bottom;
pos = (280,0);
},
{
name = top;
pos = (280,500);
}
);
hints = (
{
horizontal = 1;
place = (450,63);
type = Stem;
},
{
place = (76,70);
type = Stem;
},
{
place = (425,70);
type = Stem;
}
);
layerId = "1041D826-7B5A-4F1A-81FD-3B5FB25AF0FC";
shapes = (
{
closed = 1;
nodes = (
(120,0,l),
(120,318,l),
(130,376,o),
(191,442,o),
(271,442,cs),
(359,442,o),
(406,396,o),
(406,293,cs),
(406,0,l),
(476,0,l),
(476,294,ls),
(476,437,o),
(411,506,o),
(281,506,cs),
(202,506,o),
(140,449,o),
(120,396,c),
(120,700,l),
(50,700,l),
(50,0,l)
);
}
);
width = 526;
},
{
anchors = (
{
name = bottom;
pos = (280,0);
},
{
name = top;
pos = (280,500);
}
);
hints = (
{
horizontal = 1;
place = (385,126);
type = Stem;
},
{
place = (67,137);
type = Stem;
},
{
place = (384,137);
type = Stem;
}
);
layerId = "3B5F2A21-9AC0-43BD-916B-7DC2040966BF";
shapes = (
{
closed = 1;
nodes = (
(187,0,l),
(187,319,l),
(207,360,o),
(255,379,o),
(292,379,cs),
(354,379,o),
(387,347,o),
(387,282,cs),
(387,0,l),
(524,0,l),
(524,282,ls),
(524,403,o),
(466,506,o),
(317,506,cs),
(257,506,o),
(207,476,o),
(187,436,c),
(187,700,l),
(50,700,l),
(50,0,l)
);
}
);
width = 574;
},
{
anchors = (
{
name = bottom;
pos = (280,0);
},
{
name = top;
pos = (280,500);
}
);
associatedMasterId = "3B5F2A21-9AC0-43BD-916B-7DC2040966BF";
hints = (
{
horizontal = 1;
place = (385,126);
type = Stem;
},
{
place = (67,137);
type = Stem;
},
{
place = (384,137);
type = Stem;
}
);
layerId = "CDA2E786-E03E-4F7E-9EC4-3A8C577C3254";
name = "26 juil. 23  12:20";
shapes = (
{
closed = 1;
nodes = (
(204,0,l),
(204,325,l),
(227,370,o),
(268,385,o),
(299,385,cs),
(351,385,o),
(384,352,o),
(384,297,cs),
(384,0,l),
(521,0,l),
(521,297,ls),
(521,418,o),
(434,511,o),
(304,511,cs),
(265,511,o),
(232,500,o),
(204,481,c),
(204,700,l),
(67,700,l),
(67,0,l)
);
}
);
width = 561;
},
{
anchors = (
{
name = bottom;
pos = (280,0);
},
{
name = top;
pos = (280,500);
}
);
associatedMasterId = "1041D826-7B5A-4F1A-81FD-3B5FB25AF0FC";
hints = (
{
horizontal = 1;
place = (450,63);
type = Stem;
},
{
place = (76,70);
type = Stem;
},
{
place = (425,70);
type = Stem;
}
);
layerId = "2875B733-FB26-4244-AA3B-27AD42F863E3";
name = "26 juil. 23  12:20";
shapes = (
{
closed = 1;
nodes = (
(146,0,l),
(146,352,l),
(164,402,o),
(212,450,o),
(280,450,cs),
(367,450,o),
(425,395,o),
(425,285,cs),
(425,0,l),
(495,0,l),
(495,285,ls),
(495,433,o),
(406,513,o),
(280,513,cs),
(227,513,o),
(181,491,o),
(146,437,c),
(146,700,l),
(76,700,l),
(76,0,l)
);
}
);
width = 561;
},
{
anchors = (
{
name = bottom;
pos = (280,0);
},
{
name = top;
pos = (280,500);
}
);
hints = (
{
horizontal = 1;
place = (493,21);
type = Stem;
},
{
place = (82,25);
type = Stem;
},
{
place = (452,25);
type = Stem;
}
);
layerId = "2AB56609-6B3E-483D-8034-BAE7113127E2";
shapes = (
{
closed = 1;
nodes = (
(75,0,l),
(75,317,l),
(79,387,o),
(148,484,o),
(257,484,cs),
(362,484,o),
(419,429,o),
(419,300,cs),
(419,0,l),
(444,0,l),
(444,302,ls),
(444,460,o),
(374,506,o),
(257,506,cs),
(165,506,o),
(95,431,o),
(75,369,c),
(75,700,l),
(50,700,l),
(50,0,l)
);
}
);
width = 494;
},
{
anchors = (
{
name = bottom;
pos = (280,0);
},
{
name = top;
pos = (280,500);
}
);
hints = (
{
horizontal = 1;
place = (374,137);
type = Stem;
},
{
place = (66,148);
type = Stem;
},
{
place = (377,148);
type = Stem;
}
);
layerId = "1DB3F64C-B148-42AA-8299-ED68ABA9E6AC";
shapes = (
{
closed = 1;
nodes = (
(198,0,l),
(198,319,l),
(220,357,o),
(266,369,o),
(296,369,cs),
(353,369,o),
(384,339,o),
(384,280,cs),
(384,0,l),
(532,0,l),
(532,280,ls),
(532,397,o),
(475,506,o),
(323,506,cs),
(266,506,o),
(218,481,o),
(198,443,c),
(198,700,l),
(50,700,l),
(50,0,l)
);
}
);
width = 582;
}
);
metricRight = n;
note = h;
unicode = 104;
},
{
glyphname = idotless;
kernLeft = i;
kernRight = i;
lastChange = "2023-09-15 14:44:46 +0000";
layers = (
{
anchors = (
{
name = bottom;
pos = (96,0);
},
{
name = ogonek;
pos = (64,-6);
},
{
name = top;
pos = (96,500);
}
);
layerId = "1041D826-7B5A-4F1A-81FD-3B5FB25AF0FC";
shapes = (
{
closed = 1;
nodes = (
(132,0,l),
(132,500,l),
(62,500,l),
(62,0,l)
);
}
);
width = 193;
},
{
anchors = (
{
name = bottom;
pos = (118,0);
},
{
name = ogonek;
pos = (54,-6);
},
{
name = top;
pos = (118,500);
}
);
layerId = "3B5F2A21-9AC0-43BD-916B-7DC2040966BF";
shapes = (
{
closed = 1;
nodes = (
(187,0,l),
(187,500,l),
(50,500,l),
(50,0,l)
);
}
);
width = 237;
},
{
anchors = (
{
name = bottom;
pos = (81,0);
},
{
name = ogonek;
pos = (70,-6);
},
{
name = top;
pos = (81,500);
}
);
layerId = "2AB56609-6B3E-483D-8034-BAE7113127E2";
shapes = (
{
closed = 1;
nodes = (
(95,0,l),
(95,500,l),
(70,500,l),
(70,0,l)
);
}
);
width = 163.66667;
},
{
anchors = (
{
name = bottom;
pos = (122,0);
},
{
name = ogonek;
pos = (52,-6);
},
{
name = top;
pos = (122,500);
}
);
layerId = "1DB3F64C-B148-42AA-8299-ED68ABA9E6AC";
shapes = (
{
closed = 1;
nodes = (
(196,0,l),
(196,500,l),
(48,500,l),
(48,0,l)
);
}
);
width = 244.33333;
}
);
unicode = 305;
},
{
glyphname = jdotless;
kernLeft = j;
kernRight = j;
lastChange = "2023-09-13 12:05:25 +0000";
layers = (
{
anchors = (
{
name = top;
pos = (97,500);
}
);
layerId = "1041D826-7B5A-4F1A-81FD-3B5FB25AF0FC";
shapes = (
{
closed = 1;
nodes = (
(34,-204,o),
(132,-136,o),
(132,-9,cs),
(132,500,l),
(62,500,l),
(62,-9,ls),
(62,-95,o),
(-1,-140,o),
(-74,-140,c),
(-74,-204,l)
);
}
);
width = 182;
},
{
anchors = (
{
name = top;
pos = (118,500);
}
);
layerId = "3B5F2A21-9AC0-43BD-916B-7DC2040966BF";
shapes = (
{
closed = 1;
nodes = (
(56,-197,o),
(187,-126,o),
(187,22,cs),
(187,500,l),
(50,500,l),
(50,22,ls),
(50,-43,o),
(-5,-66,o),
(-67,-49,c),
(-67,-178,l)
);
}
);
width = 237;
},
{
anchors = (
{
name = top;
pos = (83,500);
}
);
layerId = "2AB56609-6B3E-483D-8034-BAE7113127E2";
shapes = (
{
closed = 1;
nodes = (
(19,-209,o),
(95,-143,o),
(95,-30,cs),
(95,500,l),
(70,500,l),
(70,-30,ls),
(70,-130,o),
(2,-189,o),
(-79,-201,c),
(-79,-221,l)
);
}
);
width = 145.33333;
},
{
anchors = (
{
name = top;
pos = (122,500);
}
);
layerId = "1DB3F64C-B148-42AA-8299-ED68ABA9E6AC";
shapes = (
{
closed = 1;
nodes = (
(60,-196,o),
(196,-124,o),
(196,27,cs),
(196,500,l),
(48,500,l),
(48,27,ls),
(48,-34,o),
(-6,-54,o),
(-66,-34,c),
(-66,-174,l)
);
}
);
width = 246.16667;
}
);
unicode = 567;
},
{
glyphname = k;
kernLeft = b;
kernRight = k;
lastChange = "2023-09-13 12:05:25 +0000";
layers = (
{
anchors = (
{
name = bottom;
pos = (234,0);
},
{
name = top;
pos = (234,500);
}
);
hints = (
{
horizontal = 1;
place = (0,700);
type = Stem;
},
{
place = (76,70);
type = Stem;
}
);
layerId = "1041D826-7B5A-4F1A-81FD-3B5FB25AF0FC";
shapes = (
{
closed = 1;
nodes = (
(130,0,l),
(130,297,l),
(109,219,l),
(198,290,l),
(379,0,l),
(457,0,l),
(234,358,l),
(217,305,l),
(467,500,l),
(355,500,l),
(116,314,l),
(130,301,l),
(130,700,l),
(60,700,l),
(60,0,l)
);
}
);
width = 482;
},
{
anchors = (
{
name = bottom;
pos = (282,0);
},
{
name = top;
pos = (282,500);
}
);
hints = (
{
horizontal = 1;
place = (0,700);
type = Stem;
},
{
place = (71,137);
type = Stem;
}
);
layerId = "3B5F2A21-9AC0-43BD-916B-7DC2040966BF";
shapes = (
{
closed = 1;
nodes = (
(197,0,l),
(197,280,l),
(165,185,l),
(252,255,l),
(412,0,l),
(560,0,l),
(324,377,l),
(323,311,l),
(566,500,l),
(349,500,l),
(182,373,l),
(197,356,l),
(197,700,l),
(60,700,l),
(60,0,l)
);
}
);
width = 581;
},
{
anchors = (
{
name = bottom;
pos = (202,0);
},
{
name = top;
pos = (202,500);
}
);
hints = (
{
horizontal = 1;
place = (0,700);
type = Stem;
},
{
place = (79,25);
type = Stem;
}
);
layerId = "2AB56609-6B3E-483D-8034-BAE7113127E2";
shapes = (
{
closed = 1;
nodes = (
(85,0,l),
(85,308,l),
(72,242,l),
(162,313,l),
(357,0,l),
(388,0,l),
(174,345,l),
(146,301,l),
(401,500,l),
(359,500,l),
(72,275,l),
(85,264,l),
(85,700,l),
(60,700,l),
(60,0,l)
);
}
);
width = 416;
},
{
anchors = (
{
name = bottom;
pos = (290,0);
},
{
name = top;
pos = (290,500);
}
);
hints = (
{
horizontal = 1;
place = (0,700);
type = Stem;
},
{
place = (70,148);
type = Stem;
}
);
layerId = "1DB3F64C-B148-42AA-8299-ED68ABA9E6AC";
shapes = (
{
closed = 1;
nodes = (
(208,0,l),
(208,277,l),
(174,179,l),
(261,249,l),
(418,0,l),
(577,0,l),
(339,380,l),
(341,312,l),
(583,500,l),
(348,500,l),
(193,383,l),
(208,365,l),
(208,700,l),
(60,700,l),
(60,0,l)
);
}
);
width = 597.5;
}
);
note = k;
unicode = 107;
},
{
glyphname = kgreenlandic;
kernLeft = b;
kernRight = k;
lastChange = "2023-09-13 12:05:25 +0000";
layers = (
{
anchors = (
{
name = bottom;
pos = (249,0);
},
{
name = top;
pos = (249,500);
}
);
hints = (
{
horizontal = 1;
place = (0,700);
type = Stem;
},
{
place = (76,70);
type = Stem;
}
);
layerId = "1041D826-7B5A-4F1A-81FD-3B5FB25AF0FC";
shapes = (
{
closed = 1;
nodes = (
(145,0,l),
(145,297,l),
(124,219,l),
(213,290,l),
(394,0,l),
(472,0,l),
(249,358,l),
(232,305,l),
(482,500,l),
(370,500,l),
(131,314,l),
(145,301,l),
(145,500,l),
(75,500,l),
(75,0,l)
);
}
);
width = 498;
},
{
anchors = (
{
name = bottom;
pos = (297,0);
},
{
name = top;
pos = (297,500);
}
);
hints = (
{
horizontal = 1;
place = (0,700);
type = Stem;
},
{
place = (71,137);
type = Stem;
}
);
layerId = "3B5F2A21-9AC0-43BD-916B-7DC2040966BF";
shapes = (
{
closed = 1;
nodes = (
(212,0,l),
(212,280,l),
(180,185,l),
(267,255,l),
(427,0,l),
(575,0,l),
(339,377,l),
(338,311,l),
(578,500,l),
(361,500,l),
(197,373,l),
(212,356,l),
(212,500,l),
(75,500,l),
(75,0,l)
);
}
);
width = 595;
},
{
anchors = (
{
name = bottom;
pos = (217,0);
},
{
name = top;
pos = (217,500);
}
);
hints = (
{
horizontal = 1;
place = (0,700);
type = Stem;
},
{
place = (79,25);
type = Stem;
}
);
layerId = "2AB56609-6B3E-483D-8034-BAE7113127E2";
shapes = (
{
closed = 1;
nodes = (
(100,0,l),
(100,308,l),
(87,242,l),
(177,313,l),
(372,0,l),
(403,0,l),
(189,345,l),
(161,301,l),
(418,500,l),
(376,500,l),
(87,275,l),
(100,264,l),
(100,500,l),
(75,500,l),
(75,0,l)
);
}
);
width = 433.33333;
},
{
anchors = (
{
name = bottom;
pos = (305,0);
},
{
name = top;
pos = (305,500);
}
);
hints = (
{
horizontal = 1;
place = (0,700);
type = Stem;
},
{
place = (70,148);
type = Stem;
}
);
layerId = "1DB3F64C-B148-42AA-8299-ED68ABA9E6AC";
shapes = (
{
closed = 1;
nodes = (
(223,0,l),
(223,277,l),
(189,179,l),
(276,249,l),
(433,0,l),
(592,0,l),
(354,380,l),
(356,312,l),
(594,500,l),
(360,500,l),
(208,383,l),
(223,365,l),
(223,500,l),
(75,500,l),
(75,0,l)
);
}
);
width = 611.16667;
}
);
unicode = 312;
},
{
glyphname = l;
kernLeft = b;
kernRight = l;
lastChange = "2023-09-13 12:05:25 +0000";
layers = (
{
anchors = (
{
name = bottom;
pos = (96,0);
},
{
name = top;
pos = (96,700);
}
);
hints = (
{
horizontal = 1;
place = (0,700);
type = Stem;
},
{
place = (76,70);
type = Stem;
}
);
layerId = "1041D826-7B5A-4F1A-81FD-3B5FB25AF0FC";
shapes = (
{
closed = 1;
nodes = (
(130,0,l),
(130,700,l),
(60,700,l),
(60,0,l)
);
}
);
width = 190;
},
{
anchors = (
{
name = bottom;
pos = (128,0);
},
{
name = top;
pos = (120,700);
}
);
hints = (
{
horizontal = 1;
place = (0,700);
type = Stem;
},
{
place = (52,137);
type = Stem;
}
);
layerId = "3B5F2A21-9AC0-43BD-916B-7DC2040966BF";
shapes = (
{
closed = 1;
nodes = (
(197,0,l),
(197,700,l),
(60,700,l),
(60,0,l)
);
}
);
width = 257;
},
{
anchors = (
{
name = bottom;
pos = (75,0);
},
{
name = top;
pos = (80,700);
}
);
hints = (
{
horizontal = 1;
place = (0,700);
type = Stem;
},
{
place = (92,25);
type = Stem;
}
);
layerId = "2AB56609-6B3E-483D-8034-BAE7113127E2";
shapes = (
{
closed = 1;
nodes = (
(85,0,l),
(85,700,l),
(60,700,l),
(60,0,l)
);
}
);
width = 145.33333;
},
{
anchors = (
{
name = bottom;
pos = (133,0);
},
{
name = top;
pos = (124,700);
}
);
hints = (
{
horizontal = 1;
place = (0,700);
type = Stem;
},
{
place = (48,148);
type = Stem;
}
);
layerId = "1DB3F64C-B148-42AA-8299-ED68ABA9E6AC";
shapes = (
{
closed = 1;
nodes = (
(208,0,l),
(208,700,l),
(60,700,l),
(60,0,l)
);
}
);
width = 268.16667;
}
);
note = l;
unicode = 108;
},
{
glyphname = lslash;
kernLeft = lslash;
lastChange = "2023-09-13 12:05:25 +0000";
layers = (
{
hints = (
{
horizontal = 1;
place = (0,700);
type = Stem;
},
{
place = (136,70);
type = Stem;
}
);
layerId = "1041D826-7B5A-4F1A-81FD-3B5FB25AF0FC";
shapes = (
{
closed = 1;
nodes = (
(206,0,l),
(206,351,l),
(325,405,l),
(296,464,l),
(206,423,l),
(206,700,l),
(136,700,l),
(136,391,l),
(33,344,l),
(62,286,l),
(136,320,l),
(136,0,l)
);
}
);
width = 355;
},
{
hints = (
{
horizontal = 1;
place = (0,700);
type = Stem;
},
{
place = (112,138);
type = Stem;
}
);
layerId = "3B5F2A21-9AC0-43BD-916B-7DC2040966BF";
shapes = (
{
closed = 1;
nodes = (
(250,0,l),
(250,359,l),
(350,405,l),
(304,501,l),
(250,476,l),
(250,700,l),
(112,700,l),
(112,412,l),
(19,369,l),
(65,273,l),
(112,295,l),
(112,0,l)
);
}
);
width = 355;
},
{
hints = (
{
horizontal = 1;
place = (0,700);
type = Stem;
},
{
place = (152,25);
type = Stem;
}
);
layerId = "2AB56609-6B3E-483D-8034-BAE7113127E2";
shapes = (
{
closed = 1;
nodes = (
(177,0,l),
(177,346,l),
(308,405,l),
(291,439,l),
(177,388,l),
(177,700,l),
(152,700,l),
(152,377,l),
(42,327,l),
(60,295,l),
(152,337,l),
(152,0,l)
);
}
);
width = 355;
},
{
hints = (
{
horizontal = 1;
place = (0,700);
type = Stem;
},
{
place = (108,149);
type = Stem;
}
);
layerId = "1DB3F64C-B148-42AA-8299-ED68ABA9E6AC";
shapes = (
{
closed = 1;
nodes = (
(257,0,l),
(257,360,l),
(354,405,l),
(305,507,l),
(257,485,l),
(257,700,l),
(108,700,l),
(108,416,l),
(17,373,l),
(66,271,l),
(108,291,l),
(108,0,l)
);
}
);
width = 355;
}
);
note = lslash;
unicode = 322;
},
{
glyphname = m;
kernLeft = m;
kernRight = h;
lastChange = "2023-09-13 12:05:25 +0000";
layers = (
{
anchors = (
{
name = bottom;
pos = (436,0);
},
{
name = top;
pos = (436,500);
}
);
hints = (
{
horizontal = 1;
place = (450,63);
type = Stem;
},
{
place = (76,70);
type = Stem;
},
{
place = (409,70);
type = Stem;
},
{
place = (744,70);
type = Stem;
}
);
layerId = "1041D826-7B5A-4F1A-81FD-3B5FB25AF0FC";
shapes = (
{
closed = 1;
nodes = (
(120,0,l),
(120,318,l),
(130,376,o),
(191,442,o),
(271,442,cs),
(359,442,o),
(406,396,o),
(406,293,cs),
(406,0,l),
(476,0,l),
(476,294,ls),
(476,437,o),
(411,506,o),
(281,506,cs),
(202,506,o),
(140,449,o),
(120,396,c),
(120,500,l),
(50,500,l),
(50,0,l)
);
},
{
closed = 1;
nodes = (
(476,0,l),
(476,318,l),
(486,376,o),
(547,442,o),
(627,442,cs),
(715,442,o),
(762,396,o),
(762,293,cs),
(762,0,l),
(832,0,l),
(832,294,ls),
(832,437,o),
(767,506,o),
(637,506,cs),
(508,506,o),
(455,383,o),
(455,323,cs),
(455,0,l)
);
}
);
width = 882;
},
{
anchors = (
{
name = bottom;
pos = (450,0);
},
{
name = top;
pos = (450,500);
}
);
hints = (
{
horizontal = 1;
place = (385,120);
type = Stem;
},
{
place = (78,137);
type = Stem;
},
{
place = (393,137);
type = Stem;
},
{
place = (713,137);
type = Stem;
},
{
horizontal = 1;
place = (385,125);
type = Stem;
}
);
layerId = "3B5F2A21-9AC0-43BD-916B-7DC2040966BF";
shapes = (
{
closed = 1;
nodes = (
(187,0,l),
(187,319,l),
(207,360,o),
(255,379,o),
(292,379,cs),
(354,379,o),
(387,347,o),
(387,282,cs),
(387,0,l),
(524,0,l),
(524,282,ls),
(524,403,o),
(476,506,o),
(317,506,cs),
(257,506,o),
(207,476,o),
(187,436,c),
(187,500,l),
(50,500,l),
(50,0,l)
);
},
{
closed = 1;
nodes = (
(524,0,l),
(524,319,l),
(544,360,o),
(592,379,o),
(629,379,cs),
(691,379,o),
(724,347,o),
(724,282,cs),
(724,0,l),
(861,0,l),
(861,282,ls),
(861,403,o),
(813,506,o),
(654,506,cs),
(526,506,o),
(486,375,o),
(487,320,cs),
(490,0,l)
);
}
);
width = 911;
},
{
anchors = (
{
name = bottom;
pos = (427,0);
},
{
name = top;
pos = (427,500);
}
);
hints = (
{
horizontal = 1;
place = (493,22);
type = Stem;
},
{
place = (-135,25);
type = Stem;
},
{
place = (206,25);
type = Stem;
},
{
place = (983,37);
type = Stem;
}
);
layerId = "2AB56609-6B3E-483D-8034-BAE7113127E2";
shapes = (
{
closed = 1;
nodes = (
(75,0,l),
(75,317,l),
(79,387,o),
(148,484,o),
(257,484,cs),
(362,484,o),
(419,429,o),
(419,300,cs),
(419,0,l),
(444,0,l),
(444,302,ls),
(444,460,o),
(368,506,o),
(257,506,cs),
(165,506,o),
(95,431,o),
(75,369,c),
(75,500,l),
(50,500,l),
(50,0,l)
);
},
{
closed = 1;
nodes = (
(444,0,l),
(444,317,l),
(447,387,o),
(517,484,o),
(626,484,cs),
(731,484,o),
(787,429,o),
(787,300,cs),
(787,0,l),
(813,0,l),
(813,302,ls),
(813,460,o),
(736,506,o),
(626,506,cs),
(496,506,o),
(434,388,o),
(434,325,cs),
(432,0,l)
);
}
);
width = 862.66667;
},
{
anchors = (
{
name = bottom;
pos = (452,0);
},
{
name = top;
pos = (452,500);
}
);
hints = (
{
horizontal = 1;
place = (374,135);
type = Stem;
},
{
place = (446,148);
type = Stem;
},
{
place = (764,148);
type = Stem;
},
{
place = (325,128);
type = Stem;
}
);
layerId = "1DB3F64C-B148-42AA-8299-ED68ABA9E6AC";
shapes = (
{
closed = 1;
nodes = (
(198,0,l),
(198,319,l),
(220,357,o),
(266,369,o),
(296,369,cs),
(353,369,o),
(384,339,o),
(384,280,cs),
(384,0,l),
(532,0,l),
(532,280,ls),
(532,397,o),
(487,506,o),
(323,506,cs),
(266,506,o),
(218,481,o),
(198,443,c),
(198,500,l),
(50,500,l),
(50,0,l)
);
},
{
closed = 1;
nodes = (
(532,0,l),
(532,319,l),
(554,357,o),
(600,369,o),
(629,369,cs),
(687,369,o),
(718,339,o),
(718,280,cs),
(718,0,l),
(866,0,l),
(866,280,ls),
(866,397,o),
(821,506,o),
(657,506,cs),
(529,506,o),
(491,374,o),
(492,320,cs),
(496,0,l)
);
}
);
width = 915.83333;
}
);
note = m;
unicode = 109;
},
{
glyphname = n;
kernLeft = m;
kernRight = h;
lastChange = "2023-09-13 12:05:25 +0000";
layers = (
{
anchors = (
{
name = bottom;
pos = (258,0);
},
{
name = top;
pos = (258,500);
}
);
hints = (
{
horizontal = 1;
place = (450,63);
type = Stem;
},
{
place = (76,70);
type = Stem;
},
{
place = (432,70);
type = Stem;
}
);
layerId = "1041D826-7B5A-4F1A-81FD-3B5FB25AF0FC";
shapes = (
{
closed = 1;
nodes = (
(120,0,l),
(120,318,l),
(130,376,o),
(191,442,o),
(271,442,cs),
(359,442,o),
(406,396,o),
(406,293,cs),
(406,0,l),
(476,0,l),
(476,294,ls),
(476,437,o),
(411,506,o),
(281,506,cs),
(202,506,o),
(140,449,o),
(120,396,c),
(120,500,l),
(50,500,l),
(50,0,l)
);
}
);
width = 526;
},
{
anchors = (
{
name = bottom;
pos = (282,0);
},
{
name = top;
pos = (282,500);
}
);
hints = (
{
horizontal = 1;
place = (385,126);
type = Stem;
},
{
place = (57,137);
type = Stem;
},
{
place = (374,137);
type = Stem;
}
);
layerId = "3B5F2A21-9AC0-43BD-916B-7DC2040966BF";
shapes = (
{
closed = 1;
nodes = (
(187,0,l),
(187,319,l),
(207,360,o),
(255,379,o),
(292,379,cs),
(354,379,o),
(387,347,o),
(387,282,cs),
(387,0,l),
(524,0,l),
(524,282,ls),
(524,403,o),
(476,506,o),
(317,506,cs),
(257,506,o),
(207,476,o),
(187,436,c),
(187,500,l),
(50,500,l),
(50,0,l)
);
}
);
width = 574;
},
{
anchors = (
{
name = bottom;
pos = (242,0);
},
{
name = top;
pos = (242,500);
}
);
hints = (
{
horizontal = 1;
place = (493,21);
type = Stem;
},
{
place = (89,25);
type = Stem;
},
{
place = (471,25);
type = Stem;
}
);
layerId = "2AB56609-6B3E-483D-8034-BAE7113127E2";
shapes = (
{
closed = 1;
nodes = (
(75,0,l),
(75,317,l),
(79,387,o),
(148,484,o),
(257,484,cs),
(362,484,o),
(419,429,o),
(419,300,cs),
(419,0,l),
(444,0,l),
(444,302,ls),
(444,460,o),
(368,506,o),
(257,506,cs),
(165,506,o),
(95,431,o),
(75,369,c),
(75,500,l),
(50,500,l),
(50,0,l)
);
}
);
width = 494;
},
{
anchors = (
{
name = bottom;
pos = (286,0);
},
{
name = top;
pos = (286,500);
}
);
hints = (
{
horizontal = 1;
place = (374,137);
type = Stem;
},
{
place = (54,148);
type = Stem;
},
{
place = (364,148);
type = Stem;
}
);
layerId = "1DB3F64C-B148-42AA-8299-ED68ABA9E6AC";
shapes = (
{
closed = 1;
nodes = (
(198,0,l),
(198,319,l),
(220,357,o),
(266,369,o),
(296,369,cs),
(353,369,o),
(384,339,o),
(384,280,cs),
(384,0,l),
(532,0,l),
(532,280,ls),
(532,397,o),
(487,506,o),
(323,506,cs),
(266,506,o),
(218,481,o),
(198,443,c),
(198,500,l),
(50,500,l),
(50,0,l)
);
}
);
width = 582;
}
);
note = n;
unicode = 110;
},
{
glyphname = nhookleft;
kernLeft = m;
kernRight = h;
lastChange = "2023-09-13 12:05:25 +0000";
layers = (
{
layerId = "1041D826-7B5A-4F1A-81FD-3B5FB25AF0FC";
shapes = (
{
closed = 1;
nodes = (
(50,0,l),
(50,-96,ls),
(50,-130,o),
(36,-140,o),
(20,-140,cs),
(-5,-140,o),
(-30,-130,o),
(-56,-108,c),
(-56,-169,l),
(-42,-183,o),
(-13,-203,o),
(30,-203,cs),
(95,-203,o),
(120,-149,o),
(120,-85,cs),
(120,0,l)
);
},
{
ref = n;
}
);
width = 516;
},
{
layerId = "3B5F2A21-9AC0-43BD-916B-7DC2040966BF";
shapes = (
{
closed = 1;
nodes = (
(50,0,l),
(50,-35,ls),
(50,-69,o),
(39,-76,o),
(23,-76,cs),
(1,-76,o),
(-30,-66,o),
(-56,-45,c),
(-56,-169,l),
(-31,-185,o),
(-6,-203,o),
(48,-203,cs),
(130,-203,o),
(187,-159,o),
(187,-35,cs),
(187,0,l)
);
},
{
ref = n;
}
);
width = 564;
},
{
layerId = "2AB56609-6B3E-483D-8034-BAE7113127E2";
shapes = (
{
closed = 1;
nodes = (
(50,0,l),
(50,-137,ls),
(50,-171,o),
(34,-183,o),
(18,-183,cs),
(-9,-183,o),
(-30,-173,o),
(-56,-150,c),
(-56,-169,l),
(-49,-182,o),
(-18,-203,o),
(18,-203,cs),
(72,-203,o),
(75,-142,o),
(75,-118,cs),
(75,0,l)
);
},
{
alignment = -1;
ref = n;
}
);
width = 484;
},
{
layerId = "1DB3F64C-B148-42AA-8299-ED68ABA9E6AC";
shapes = (
{
closed = 1;
nodes = (
(50,0,l),
(50,-25,ls),
(50,-59,o),
(40,-65,o),
(24,-65,cs),
(2,-65,o),
(-30,-55,o),
(-56,-34,c),
(-56,-169,l),
(-29,-185,o),
(-5,-203,o),
(51,-203,cs),
(136,-203,o),
(198,-161,o),
(198,-27,cs),
(198,0,l)
);
},
{
alignment = -1;
ref = n;
}
);
width = 572;
}
);
unicode = 626;
},
{
glyphname = eng;
kernLeft = m;
kernRight = h;
lastChange = "2023-09-13 12:05:25 +0000";
layers = (
{
layerId = "1041D826-7B5A-4F1A-81FD-3B5FB25AF0FC";
shapes = (
{
closed = 1;
nodes = (
(406,0,l),
(406,-96,ls),
(406,-130,o),
(392,-140,o),
(376,-140,cs),
(351,-140,o),
(326,-130,o),
(300,-108,c),
(300,-169,l),
(314,-183,o),
(343,-203,o),
(386,-203,cs),
(451,-203,o),
(476,-149,o),
(476,-85,cs),
(476,0,l)
);
},
{
ref = n;
}
);
width = 516;
},
{
layerId = "3B5F2A21-9AC0-43BD-916B-7DC2040966BF";
shapes = (
{
closed = 1;
nodes = (
(387,0,l),
(387,-35,ls),
(387,-69,o),
(376,-76,o),
(360,-76,cs),
(338,-76,o),
(307,-66,o),
(281,-45,c),
(281,-169,l),
(306,-185,o),
(331,-203,o),
(385,-203,cs),
(467,-203,o),
(524,-159,o),
(524,-35,cs),
(524,0,l)
);
},
{
ref = n;
}
);
width = 564;
},
{
layerId = "2AB56609-6B3E-483D-8034-BAE7113127E2";
shapes = (
{
closed = 1;
nodes = (
(419,0,l),
(419,-137,ls),
(419,-171,o),
(403,-183,o),
(387,-183,cs),
(360,-183,o),
(339,-173,o),
(313,-150,c),
(313,-169,l),
(319,-182,o),
(351,-203,o),
(387,-203,cs),
(440,-203,o),
(444,-142,o),
(444,-118,cs),
(444,0,l)
);
},
{
alignment = -1;
ref = n;
}
);
width = 484;
},
{
layerId = "1DB3F64C-B148-42AA-8299-ED68ABA9E6AC";
shapes = (
{
closed = 1;
nodes = (
(384,0,l),
(384,-25,ls),
(384,-59,o),
(373,-65,o),
(357,-65,cs),
(336,-65,o),
(304,-55,o),
(278,-34,c),
(278,-169,l),
(305,-185,o),
(329,-203,o),
(385,-203,cs),
(470,-203,o),
(532,-161,o),
(532,-27,cs),
(532,0,l)
);
},
{
alignment = -1;
ref = n;
}
);
width = 572;
}
);
unicode = 331;
},
{
glyphname = o;
kernLeft = c;
kernRight = o;
lastChange = "2023-09-13 12:05:25 +0000";
layers = (
{
anchors = (
{
name = bottom;
pos = (293,0);
},
{
name = top;
pos = (293,500);
}
);
hints = (
{
horizontal = 1;
place = (0,64);
type = Stem;
},
{
horizontal = 1;
place = (454,64);
type = Stem;
},
{
place = (37,70);
type = Stem;
},
{
place = (483,70);
type = Stem;
}
);
layerId = "1041D826-7B5A-4F1A-81FD-3B5FB25AF0FC";
shapes = (
{
closed = 1;
nodes = (
(436,-6,o),
(551,101,o),
(551,250,cs),
(551,400,o),
(435,506,o),
(293,506,cs),
(152,506,o),
(35,400,o),
(35,250,cs),
(35,100,o),
(151,-6,o),
(293,-6,cs)
);
},
{
closed = 1;
nodes = (
(191,58,o),
(105,134,o),
(105,250,cs),
(105,366,o),
(192,442,o),
(293,442,cs),
(395,442,o),
(481,366,o),
(481,250,cs),
(481,135,o),
(395,58,o),
(293,58,cs)
);
}
);
width = 586;
},
{
anchors = (
{
name = bottom;
pos = (295,0);
},
{
name = top;
pos = (295,500);
}
);
hints = (
{
horizontal = 1;
place = (-8,128);
type = Stem;
},
{
horizontal = 1;
place = (382,128);
type = Stem;
},
{
place = (35,137);
type = Stem;
},
{
place = (418,137);
type = Stem;
}
);
layerId = "3B5F2A21-9AC0-43BD-916B-7DC2040966BF";
shapes = (
{
closed = 1;
nodes = (
(440,-6,o),
(555,102,o),
(555,250,cs),
(555,399,o),
(439,506,o),
(295,506,cs),
(152,506,o),
(35,400,o),
(35,250,cs),
(35,101,o),
(150,-6,o),
(295,-6,cs)
);
},
{
closed = 1;
nodes = (
(229,122,o),
(172,169,o),
(172,250,cs),
(172,331,o),
(230,378,o),
(295,378,cs),
(361,378,o),
(418,331,o),
(418,250,cs),
(418,170,o),
(361,122,o),
(295,122,cs)
);
}
);
width = 590;
},
{
anchors = (
{
name = bottom;
pos = (292,0);
},
{
name = top;
pos = (292,500);
}
);
hints = (
{
horizontal = 1;
place = (5,21);
type = Stem;
},
{
horizontal = 1;
place = (502,21);
type = Stem;
},
{
place = (38,25);
type = Stem;
},
{
place = (526,25);
type = Stem;
}
);
layerId = "2AB56609-6B3E-483D-8034-BAE7113127E2";
shapes = (
{
closed = 1;
nodes = (
(433,-6,o),
(548,100,o),
(548,250,cs),
(548,401,o),
(432,506,o),
(292,506,cs),
(152,506,o),
(35,400,o),
(35,250,cs),
(35,99,o),
(152,-6,o),
(292,-6,cs)
);
},
{
closed = 1;
nodes = (
(166,15,o),
(60,111,o),
(60,250,cs),
(60,389,o),
(167,485,o),
(292,485,cs),
(418,485,o),
(523,389,o),
(523,250,cs),
(523,112,o),
(418,15,o),
(292,15,cs)
);
}
);
width = 583.33333;
},
{
anchors = (
{
name = bottom;
pos = (295,0);
},
{
name = top;
pos = (295,500);
}
);
hints = (
{
horizontal = 1;
place = (-9,139);
type = Stem;
},
{
horizontal = 1;
place = (370,139);
type = Stem;
},
{
place = (35,148);
type = Stem;
},
{
place = (407,148);
type = Stem;
}
);
layerId = "1DB3F64C-B148-42AA-8299-ED68ABA9E6AC";
shapes = (
{
closed = 1;
nodes = (
(441,-6,o),
(556,102,o),
(556,250,cs),
(556,399,o),
(440,506,o),
(295,506,cs),
(152,506,o),
(35,400,o),
(35,250,cs),
(35,101,o),
(150,-6,o),
(295,-6,cs)
);
},
{
closed = 1;
nodes = (
(235,133,o),
(183,175,o),
(183,250,cs),
(183,325,o),
(236,367,o),
(295,367,cs),
(355,367,o),
(408,325,o),
(408,250,cs),
(408,176,o),
(355,133,o),
(295,133,cs)
);
}
);
width = 590.66667;
}
);
note = o;
unicode = 111;
},
{
glyphname = oslash;
kernLeft = c;
kernRight = o;
lastChange = "2023-09-13 12:05:25 +0000";
layers = (
{
hints = (
{
horizontal = 1;
place = (0,64);
type = Stem;
},
{
horizontal = 1;
place = (454,64);
type = Stem;
},
{
place = (37,70);
type = Stem;
},
{
place = (483,70);
type = Stem;
}
);
layerId = "1041D826-7B5A-4F1A-81FD-3B5FB25AF0FC";
shapes = (
{
closed = 1;
nodes = (
(454,624,l),
(394,640,l),
(147,-109,l),
(207,-125,l)
);
},
{
closed = 1;
nodes = (
(438,0,o),
(553,117,o),
(553,259,cs),
(553,402,o),
(437,518,o),
(295,518,cs),
(154,518,o),
(37,402,o),
(37,259,cs),
(37,116,o),
(153,0,o),
(295,0,cs)
);
},
{
closed = 1;
nodes = (
(193,64,o),
(107,150,o),
(107,259,cs),
(107,368,o),
(194,454,o),
(295,454,cs),
(397,454,o),
(483,368,o),
(483,259,cs),
(483,151,o),
(397,64,o),
(295,64,cs)
);
}
);
width = 591;
},
{
hints = (
{
horizontal = 1;
place = (-126,783);
type = Stem;
},
{
place = (35,137);
type = Stem;
},
{
place = (418,137);
type = Stem;
},
{
horizontal = 1;
place = (381,129);
type = Stem;
}
);
layerId = "3B5F2A21-9AC0-43BD-916B-7DC2040966BF";
shapes = (
{
closed = 1;
nodes = (
(476,623,l),
(368,657,l),
(125,-95,l),
(233,-126,l)
);
},
{
closed = 1;
nodes = (
(440,-8,o),
(555,110,o),
(555,251,cs),
(555,393,o),
(439,510,o),
(295,510,cs),
(152,510,o),
(35,394,o),
(35,251,cs),
(35,109,o),
(150,-8,o),
(295,-8,cs)
);
},
{
closed = 1;
nodes = (
(229,120,o),
(172,177,o),
(172,251,cs),
(172,325,o),
(230,382,o),
(295,382,cs),
(361,382,o),
(418,325,o),
(418,251,cs),
(418,178,o),
(361,120,o),
(295,120,cs)
);
}
);
width = 591;
},
{
hints = (
{
horizontal = 1;
place = (84,-415);
type = Stem;
},
{
horizontal = 1;
place = (503,21);
type = Stem;
},
{
place = (38,25);
type = Stem;
},
{
place = (526,25);
type = Stem;
}
);
layerId = "2AB56609-6B3E-483D-8034-BAE7113127E2";
shapes = (
{
closed = 1;
nodes = (
(439,625,l),
(411,629,l),
(162,-118,l),
(190,-124,l)
);
},
{
closed = 1;
nodes = (
(437,5,o),
(552,122,o),
(552,264,cs),
(552,408,o),
(436,523,o),
(295,523,cs),
(155,523,o),
(38,407,o),
(38,264,cs),
(38,121,o),
(155,5,o),
(295,5,cs)
);
},
{
closed = 1;
nodes = (
(169,27,o),
(64,132,o),
(64,264,cs),
(64,397,o),
(170,502,o),
(295,502,cs),
(421,502,o),
(526,397,o),
(526,264,cs),
(526,133,o),
(421,27,o),
(295,27,cs)
);
}
);
width = 591;
},
{
hints = (
{
horizontal = 1;
place = (-147,903);
type = Stem;
},
{
horizontal = 1;
place = (369,140);
type = Stem;
},
{
place = (35,148);
type = Stem;
},
{
place = (407,148);
type = Stem;
}
);
layerId = "1DB3F64C-B148-42AA-8299-ED68ABA9E6AC";
shapes = (
{
closed = 1;
nodes = (
(480,623,l),
(364,660,l),
(121,-93,l),
(237,-126,l)
);
},
{
closed = 1;
nodes = (
(440,-9,o),
(555,109,o),
(555,250,cs),
(555,392,o),
(439,509,o),
(295,509,cs),
(152,509,o),
(35,393,o),
(35,250,cs),
(35,108,o),
(150,-9,o),
(295,-9,cs)
);
},
{
closed = 1;
nodes = (
(235,129,o),
(183,182,o),
(183,250,cs),
(183,318,o),
(236,370,o),
(295,370,cs),
(355,370,o),
(407,318,o),
(407,250,cs),
(407,183,o),
(355,129,o),
(295,129,cs)
);
}
);
width = 591;
}
);
note = oslash;
unicode = 248;
},
{
glyphname = oe;
kernLeft = c;
kernRight = e;
lastChange = "2023-09-13 12:05:25 +0000";
layers = (
{
hints = (
{
horizontal = 1;
place = (0,64);
type = Stem;
},
{
horizontal = 1;
place = (247,61);
type = Stem;
},
{
horizontal = 1;
place = (454,64);
type = Stem;
},
{
place = (37,70);
type = Stem;
},
{
place = (483,73);
type = Stem;
},
{
place = (887,68.04);
type = Stem;
},
{
horizontal = 1;
place = (-10,64);
type = Stem;
}
);
layerId = "1041D826-7B5A-4F1A-81FD-3B5FB25AF0FC";
shapes = (
{
closed = 1;
nodes = (
(840,-10,o),
(914,42,o),
(954,107,c),
(896,154,l),
(865,92,o),
(811,54,o),
(739,54,cs),
(621,54,o),
(559,143,o),
(556,247,c),
(950,247,l),
(964,348,o),
(948,402,o),
(913,444,cs),
(873,491,o),
(813,518,o),
(738,518,cs),
(630,518,o),
(557,463,o),
(518,389,c),
(474,466,o),
(390,518,o),
(295,518,cs),
(154,518,o),
(37,402,o),
(37,259,cs),
(37,116,o),
(153,0,o),
(295,0,cs),
(389,0,o),
(470,50,o),
(515,124,c),
(553,47,o),
(628,-10,o),
(739,-10,cs)
);
},
{
closed = 1;
nodes = (
(193,64,o),
(107,150,o),
(107,259,cs),
(107,368,o),
(194,454,o),
(295,454,cs),
(397,454,o),
(483,368,o),
(483,259,cs),
(483,151,o),
(397,64,o),
(295,64,cs)
);
},
{
closed = 1;
nodes = (
(580,390,o),
(640,454,o),
(738,454,cs),
(832,454,o),
(897,395,o),
(887,308,c),
(562,308,l)
);
}
);
width = 1001;
},
{
hints = (
{
horizontal = 1;
place = (-8,128);
type = Stem;
},
{
horizontal = 1;
place = (219,108);
type = Stem;
},
{
horizontal = 1;
place = (382,128);
type = Stem;
},
{
place = (35,137);
type = Stem;
},
{
place = (418,202);
type = Stem;
},
{
place = (825,129.53);
type = Stem;
},
{
horizontal = 1;
place = (402,111);
type = Stem;
},
{
horizontal = 1;
place = (-11,123);
type = Stem;
}
);
layerId = "3B5F2A21-9AC0-43BD-916B-7DC2040966BF";
shapes = (
{
closed = 1;
nodes = (
(843,-11,o),
(914,40,o),
(954,107,c),
(850,191,l),
(837,147,o),
(797,112,o),
(738,112,cs),
(669,112,o),
(620,147,o),
(620,219,c),
(949,219,l),
(965,329,o),
(945,390,o),
(907,437,cs),
(869,483,o),
(811,513,o),
(737,513,cs),
(629,513,o),
(556,459,o),
(517,387,c),
(471,460,o),
(389,510,o),
(295,510,cs),
(152,510,o),
(35,394,o),
(35,251,cs),
(35,109,o),
(150,-8,o),
(295,-8,cs),
(389,-8,o),
(471,42,o),
(516,115,c),
(556,43,o),
(629,-11,o),
(738,-11,cs)
);
},
{
closed = 1;
nodes = (
(229,120,o),
(172,177,o),
(172,251,cs),
(172,325,o),
(230,382,o),
(295,382,cs),
(361,382,o),
(418,325,o),
(418,251,cs),
(418,178,o),
(361,120,o),
(295,120,cs)
);
},
{
closed = 1;
nodes = (
(644,369,o),
(681,402,o),
(737,402,cs),
(789,402,o),
(828,359,o),
(825,327,c),
(632,327,l)
);
}
);
width = 1003;
},
{
hints = (
{
horizontal = 1;
place = (-146,35);
type = Stem;
},
{
horizontal = 1;
place = (157,16);
type = Stem;
},
{
horizontal = 1;
place = (489,33);
type = Stem;
},
{
place = (-217,-18);
type = Stem;
},
{
place = (255,35);
type = Stem;
},
{
place = (1486,31);
type = Stem;
},
{
horizontal = 1;
place = (-11,21);
type = Stem;
}
);
layerId = "2AB56609-6B3E-483D-8034-BAE7113127E2";
shapes = (
{
closed = 1;
nodes = (
(838,-9,o),
(914,43,o),
(954,107,c),
(927,129,l),
(884,55,o),
(820,15,o),
(740,15,cs),
(589,15,o),
(518,140,o),
(513,266,c),
(951,266,l),
(963,361,o),
(950,410,o),
(917,449,cs),
(876,496,o),
(814,521,o),
(739,521,cs),
(631,521,o),
(558,466,o),
(519,390,c),
(476,470,o),
(391,523,o),
(295,523,cs),
(155,523,o),
(38,407,o),
(38,264,cs),
(38,121,o),
(155,5,o),
(295,5,cs),
(389,5,o),
(469,55,o),
(514,130,c),
(551,50,o),
(627,-9,o),
(740,-9,cs)
);
},
{
closed = 1;
nodes = (
(169,27,o),
(64,132,o),
(64,264,cs),
(64,397,o),
(170,502,o),
(295,502,cs),
(421,502,o),
(526,397,o),
(526,264,cs),
(526,133,o),
(421,27,o),
(295,27,cs)
);
},
{
closed = 1;
nodes = (
(537,404,o),
(613,489,o),
(739,489,cs),
(861,489,o),
(943,419,o),
(928,295,c),
(515,295,l)
);
}
);
width = 999.66667;
},
{
hints = (
{
horizontal = 1;
place = (249,116);
type = Stem;
},
{
horizontal = 1;
place = (405,139);
type = Stem;
},
{
horizontal = 1;
place = (393,119);
type = Stem;
},
{
place = (482,224);
type = Stem;
},
{
place = (882,139);
type = Stem;
},
{
place = (-161,132);
type = Stem;
},
{
horizontal = 1;
place = (-1,138);
type = Stem;
}
);
layerId = "1DB3F64C-B148-42AA-8299-ED68ABA9E6AC";
shapes = (
{
closed = 1;
nodes = (
(844,-11,o),
(914,40,o),
(954,107,c),
(842,197,l),
(832,156,o),
(795,122,o),
(738,122,cs),
(677,122,o),
(630,148,o),
(631,214,c),
(949,214,l),
(965,326,o),
(945,388,o),
(906,436,cs),
(868,482,o),
(811,512,o),
(737,512,cs),
(629,512,o),
(556,458,o),
(517,387,c),
(471,459,o),
(389,509,o),
(295,509,cs),
(152,509,o),
(35,393,o),
(35,250,cs),
(35,108,o),
(150,-9,o),
(295,-9,cs),
(389,-9,o),
(471,41,o),
(516,114,c),
(557,42,o),
(629,-11,o),
(738,-11,cs)
);
},
{
closed = 1;
nodes = (
(235,129,o),
(183,182,o),
(183,250,cs),
(183,318,o),
(236,370,o),
(295,370,cs),
(355,370,o),
(407,318,o),
(407,250,cs),
(407,183,o),
(355,129,o),
(295,129,cs)
);
},
{
closed = 1;
nodes = (
(655,366,o),
(688,393,o),
(737,393,cs),
(782,393,o),
(817,353,o),
(815,330,c),
(644,330,l)
);
}
);
width = 1003.33333;
}
);
note = oe;
unicode = 339;
},
{
glyphname = p;
kernLeft = m;
kernRight = b;
lastChange = "2023-09-13 12:05:25 +0000";
layers = (
{
anchors = (
{
name = bottom;
pos = (293,0);
},
{
name = top;
pos = (293,500);
}
);
hints = (
{
horizontal = 1;
place = (-6,64);
type = Stem;
},
{
horizontal = 1;
place = (454,64);
type = Stem;
},
{
place = (75,70);
type = Stem;
},
{
place = (486,70);
type = Stem;
}
);
layerId = "1041D826-7B5A-4F1A-81FD-3B5FB25AF0FC";
shapes = (
{
closed = 1;
nodes = (
(130,-200,l),
(130,71,l),
(169,15,o),
(224,-6,o),
(292,-6,cs),
(433,-6,o),
(541,104,o),
(541,250,cs),
(541,395,o),
(427,506,o),
(286,506,cs),
(216,506,o),
(165,480,o),
(130,429,c),
(130,500,l),
(60,500,l),
(60,-200,l)
);
},
{
closed = 1;
nodes = (
(208,58,o),
(151,106,o),
(130,157,c),
(130,345,l),
(148,392,o),
(199,442,o),
(286,442,cs),
(386,442,o),
(471,362,o),
(471,250,cs),
(471,137,o),
(391,58,o),
(292,58,cs)
);
}
);
width = 576;
},
{
anchors = (
{
name = bottom;
pos = (308,0);
},
{
name = top;
pos = (308,500);
}
);
hints = (
{
horizontal = 1;
place = (-10,127);
type = Stem;
},
{
horizontal = 1;
place = (384,127);
type = Stem;
},
{
place = (69,138);
type = Stem;
},
{
place = (423,137);
type = Stem;
}
);
layerId = "3B5F2A21-9AC0-43BD-916B-7DC2040966BF";
shapes = (
{
closed = 1;
nodes = (
(198,-200,l),
(198,26,l),
(225,4,o),
(259,-6,o),
(309,-6,cs),
(463,-6,o),
(571,107,o),
(571,250,cs),
(571,394,o),
(457,506,o),
(304,506,cs),
(255,506,o),
(219,494,o),
(198,471,c),
(198,500,l),
(60,500,l),
(60,-200,l)
);
},
{
closed = 1;
nodes = (
(247,121,o),
(212,150,o),
(198,180,c),
(198,324,l),
(210,353,o),
(241,379,o),
(304,379,cs),
(377,379,o),
(434,327,o),
(434,250,cs),
(434,177,o),
(382,121,o),
(309,121,cs)
);
}
);
width = 606;
},
{
anchors = (
{
name = bottom;
pos = (283,0);
},
{
name = top;
pos = (283,500);
}
);
hints = (
{
horizontal = 1;
place = (-3,22);
type = Stem;
},
{
horizontal = 1;
place = (501,22);
type = Stem;
},
{
place = (79,25);
type = Stem;
},
{
place = (528,25);
type = Stem;
}
);
layerId = "2AB56609-6B3E-483D-8034-BAE7113127E2";
shapes = (
{
closed = 1;
nodes = (
(85,-200,l),
(85,101,l),
(132,22,o),
(201,-6,o),
(281,-6,cs),
(413,-6,o),
(521,102,o),
(521,250,cs),
(521,396,o),
(407,506,o),
(274,506,cs),
(190,506,o),
(129,471,o),
(85,401,c),
(85,500,l),
(60,500,l),
(60,-200,l)
);
},
{
closed = 1;
nodes = (
(182,16,o),
(110,77,o),
(85,142,c),
(85,359,l),
(107,418,o),
(171,484,o),
(274,484,cs),
(392,484,o),
(496,385,o),
(496,250,cs),
(496,110,o),
(397,16,o),
(281,16,cs)
);
}
);
width = 556;
},
{
anchors = (
{
name = bottom;
pos = (311,0);
},
{
name = top;
pos = (311,500);
}
);
hints = (
{
horizontal = 1;
place = (-11,138);
type = Stem;
},
{
horizontal = 1;
place = (372,138);
type = Stem;
},
{
place = (68,149);
type = Stem;
},
{
place = (413,148);
type = Stem;
}
);
layerId = "1DB3F64C-B148-42AA-8299-ED68ABA9E6AC";
shapes = (
{
closed = 1;
nodes = (
(209,-200,l),
(209,19,l),
(234,2,o),
(265,-6,o),
(312,-6,cs),
(468,-6,o),
(576,108,o),
(576,250,cs),
(576,394,o),
(462,506,o),
(307,506,cs),
(262,506,o),
(228,496,o),
(209,478,c),
(209,500,l),
(60,500,l),
(60,-200,l)
);
},
{
closed = 1;
nodes = (
(254,132,o),
(222,157,o),
(209,184,c),
(209,321,l),
(220,347,o),
(248,369,o),
(307,369,cs),
(376,369,o),
(428,321,o),
(428,250,cs),
(428,184,o),
(381,132,o),
(312,132,cs)
);
}
);
width = 611;
}
);
note = p;
unicode = 112;
},
{
glyphname = thorn;
kernLeft = b;
kernRight = b;
lastChange = "2023-09-13 12:05:25 +0000";
layers = (
{
hints = (
{
horizontal = 1;
place = (-8,70);
type = Stem;
},
{
horizontal = 1;
place = (434,70);
type = Stem;
},
{
place = (88,70);
type = Stem;
},
{
place = (460,70);
type = Stem;
}
);
layerId = "1041D826-7B5A-4F1A-81FD-3B5FB25AF0FC";
shapes = (
{
closed = 1;
nodes = (
(120,-200,l),
(120,71,l),
(159,15,o),
(214,-6,o),
(282,-6,cs),
(423,-6,o),
(531,104,o),
(531,250,cs),
(531,395,o),
(417,506,o),
(276,506,cs),
(206,506,o),
(155,480,o),
(120,429,c),
(120,700,l),
(50,700,l),
(50,-200,l)
);
},
{
closed = 1;
nodes = (
(198,58,o),
(141,106,o),
(120,157,c),
(120,345,l),
(138,392,o),
(189,442,o),
(276,442,cs),
(376,442,o),
(461,362,o),
(461,250,cs),
(461,137,o),
(381,58,o),
(282,58,cs)
);
}
);
width = 566;
},
{
hints = (
{
horizontal = 1;
place = (-19,137);
type = Stem;
},
{
horizontal = 1;
place = (376,137);
type = Stem;
},
{
place = (56,143);
type = Stem;
},
{
place = (402,143);
type = Stem;
}
);
layerId = "3B5F2A21-9AC0-43BD-916B-7DC2040966BF";
shapes = (
{
closed = 1;
nodes = (
(188,-200,l),
(188,26,l),
(215,4,o),
(249,-6,o),
(299,-6,cs),
(453,-6,o),
(561,107,o),
(561,250,cs),
(561,394,o),
(447,506,o),
(294,506,cs),
(245,506,o),
(209,494,o),
(188,471,c),
(188,700,l),
(50,700,l),
(50,-200,l)
);
},
{
closed = 1;
nodes = (
(237,121,o),
(202,150,o),
(188,180,c),
(188,324,l),
(200,353,o),
(231,379,o),
(294,379,cs),
(367,379,o),
(424,327,o),
(424,250,cs),
(424,177,o),
(372,121,o),
(299,121,cs)
);
}
);
width = 596;
},
{
hints = (
{
horizontal = 1;
place = (-1,25);
type = Stem;
},
{
horizontal = 1;
place = (473,25);
type = Stem;
},
{
place = (109,21);
type = Stem;
},
{
place = (499,21);
type = Stem;
}
);
layerId = "2AB56609-6B3E-483D-8034-BAE7113127E2";
shapes = (
{
closed = 1;
nodes = (
(75,-200,l),
(75,101,l),
(122,22,o),
(191,-6,o),
(271,-6,cs),
(403,-6,o),
(511,102,o),
(511,250,cs),
(511,396,o),
(397,506,o),
(264,506,cs),
(180,506,o),
(119,471,o),
(75,401,c),
(75,700,l),
(50,700,l),
(50,-200,l)
);
},
{
closed = 1;
nodes = (
(172,16,o),
(100,77,o),
(75,142,c),
(75,359,l),
(97,418,o),
(161,484,o),
(264,484,cs),
(382,484,o),
(486,385,o),
(486,250,cs),
(486,110,o),
(387,16,o),
(271,16,cs)
);
}
);
width = 546;
},
{
hints = (
{
horizontal = 1;
place = (-21,148);
type = Stem;
},
{
horizontal = 1;
place = (366,148);
type = Stem;
},
{
place = (51,155);
type = Stem;
},
{
place = (392,155);
type = Stem;
}
);
layerId = "1DB3F64C-B148-42AA-8299-ED68ABA9E6AC";
shapes = (
{
closed = 1;
nodes = (
(199,-200,l),
(199,19,l),
(224,2,o),
(255,-6,o),
(302,-6,cs),
(458,-6,o),
(566,108,o),
(566,250,cs),
(566,394,o),
(452,506,o),
(297,506,cs),
(252,506,o),
(218,496,o),
(199,478,c),
(199,700,l),
(50,700,l),
(50,-200,l)
);
},
{
closed = 1;
nodes = (
(244,132,o),
(212,157,o),
(199,184,c),
(199,321,l),
(210,347,o),
(238,369,o),
(297,369,cs),
(366,369,o),
(418,321,o),
(418,250,cs),
(418,184,o),
(371,132,o),
(302,132,cs)
);
}
);
width = 601;
}
);
note = thorn;
unicode = 254;
},
{
glyphname = r;
kernLeft = m;
kernRight = r;
lastChange = "2023-09-13 12:05:25 +0000";
layers = (
{
anchors = (
{
name = bottom;
pos = (177,0);
},
{
name = top;
pos = (177,500);
}
);
associatedMasterId = "1041D826-7B5A-4F1A-81FD-3B5FB25AF0FC";
hints = (
{
horizontal = 1;
place = (449,64);
type = Stem;
},
{
place = (76,70);
type = Stem;
}
);
layerId = "2DCBAEF4-D124-4A69-B9EC-BEAEF1F10B0E";
name = "26 juil. 23  11:04";
shapes = (
{
closed = 1;
nodes = (
(146,0,l),
(146,306,l),
(151,401,o),
(210,449,o),
(266,449,cs),
(281,449,o),
(311,434,o),
(321,426,c),
(357,479,l),
(334,499,o),
(294,513,o),
(266,513,cs),
(221,513,o),
(174,498,o),
(146,449,c),
(146,509,l),
(76,509,l),
(76,0,l)
);
}
);
width = 355;
},
{
anchors = (
{
name = bottom;
pos = (212,0);
},
{
name = top;
pos = (212,500);
}
);
associatedMasterId = "3B5F2A21-9AC0-43BD-916B-7DC2040966BF";
hints = (
{
horizontal = 1;
place = (389,119);
type = Stem;
},
{
place = (76,137);
type = Stem;
}
);
layerId = "D946D553-B63A-49FE-94BF-95A2E7CD35B5";
name = "26 juil. 23  11:04";
shapes = (
{
closed = 1;
nodes = (
(213,0,l),
(213,297,l),
(219,364,o),
(258,391,o),
(293,389,cs),
(322,388,o),
(339,369,o),
(352,349,c),
(419,456,l),
(373,502,o),
(329,508,o),
(301,508,cs),
(264,508,o),
(235,490,o),
(213,463,c),
(213,506,l),
(76,506,l),
(76,0,l)
);
}
);
width = 424;
},
{
anchors = (
{
name = bottom;
pos = (212,0);
},
{
name = top;
pos = (212,500);
}
);
associatedMasterId = "3B5F2A21-9AC0-43BD-916B-7DC2040966BF";
hints = (
{
horizontal = 1;
place = (389,119);
type = Stem;
},
{
place = (76,137);
type = Stem;
}
);
layerId = "4E7030BA-164F-4FE0-A81E-A9879C058B58";
name = "26 juil. 23  11:10";
shapes = (
{
closed = 1;
nodes = (
(383,509,l),
(343,509,o),
(232,508,o),
(194,418,c),
(194,505,l),
(57,505,l),
(57,0,l),
(194,0,l),
(194,324,l),
(228,394,o),
(346,392,o),
(383,392,c)
);
}
);
width = 424;
},
{
anchors = (
{
name = bottom;
pos = (117,0);
},
{
name = top;
pos = (201,500);
}
);
hints = (
{
horizontal = 1;
place = (389,119);
type = Stem;
},
{
place = (76,137);
type = Stem;
}
);
layerId = "3B5F2A21-9AC0-43BD-916B-7DC2040966BF";
name = Bold;
shapes = (
{
closed = 1;
nodes = (
(187,0,l),
(187,295,l),
(193,362,o),
(237,385,o),
(272,383,cs),
(301,382,o),
(330,367,o),
(343,317,c),
(423,410,l),
(403,470,o),
(360,506,o),
(289,506,cs),
(246,506,o),
(203,477,o),
(187,442,c),
(187,500,l),
(50,500,l),
(50,0,l)
);
}
);
width = 428;
},
{
anchors = (
{
name = bottom;
pos = (177,0);
},
{
name = top;
pos = (177,500);
}
);
associatedMasterId = "1041D826-7B5A-4F1A-81FD-3B5FB25AF0FC";
hints = (
{
horizontal = 1;
place = (449,64);
type = Stem;
},
{
place = (76,70);
type = Stem;
}
);
layerId = "E78445FF-9038-4F8B-90C2-436FB124B7F7";
name = "26 juil. 23  11:10";
shapes = (
{
closed = 1;
nodes = (
(310,513,l),
(254,513,o),
(171,487,o),
(146,415,c),
(146,507,l),
(76,507,l),
(76,0,l),
(146,0,l),
(146,325,l),
(156,383,o),
(230,450,o),
(310,450,c)
);
}
);
width = 355;
},
{
anchors = (
{
name = bottom;
pos = (112,0);
},
{
name = top;
pos = (196,500);
}
);
hints = (
{
horizontal = 1;
place = (449,64);
type = Stem;
},
{
place = (76,70);
type = Stem;
}
);
layerId = "1041D826-7B5A-4F1A-81FD-3B5FB25AF0FC";
name = Regular;
shapes = (
{
closed = 1;
nodes = (
(145,0,l),
(145,299,l),
(150,394,o),
(199,442,o),
(255,442,cs),
(294,442,o),
(326,423,o),
(338,366,c),
(383,410,l),
(374,452,o),
(346,506,o),
(262,506,cs),
(213,506,o),
(162,472,o),
(145,398,c),
(145,500,l),
(75,500,l),
(75,0,l)
);
}
);
width = 393;
},
{
anchors = (
{
name = bottom;
pos = (109,0);
},
{
name = top;
pos = (193,500);
}
);
hints = (
{
horizontal = 1;
place = (489,27);
type = Stem;
},
{
place = (76,25);
type = Stem;
}
);
layerId = "2AB56609-6B3E-483D-8034-BAE7113127E2";
name = Regular;
shapes = (
{
closed = 1;
nodes = (
(117,0,l),
(117,302,l),
(121,415,o),
(174,480,o),
(244,481,cs),
(289,482,o),
(323,460,o),
(335,399,c),
(356,410,l),
(355,440,o),
(337,506,o),
(244,506,cs),
(191,506,o),
(135,469,o),
(117,369,c),
(117,500,l),
(92,500,l),
(92,0,l)
);
}
);
width = 369.66667;
},
{
anchors = (
{
name = bottom;
pos = (118,0);
},
{
name = top;
pos = (202,500);
}
);
hints = (
{
horizontal = 1;
place = (379,128);
type = Stem;
},
{
place = (76,148);
type = Stem;
}
);
layerId = "1DB3F64C-B148-42AA-8299-ED68ABA9E6AC";
name = Regular;
shapes = (
{
closed = 1;
nodes = (
(194,0,l),
(194,294,l),
(200,357,o),
(243,376,o),
(275,373,cs),
(302,372,o),
(331,358,o),
(344,309,c),
(430,410,l),
(408,473,o),
(362,506,o),
(294,506,cs),
(252,506,o),
(210,478,o),
(194,449,c),
(194,500,l),
(46,500,l),
(46,0,l)
);
}
);
width = 433.83333;
}
);
note = r;
unicode = 114;
},
{
glyphname = s;
kernLeft = s;
kernRight = s;
lastChange = "2023-09-13 12:05:25 +0000";
layers = (
{
anchors = (
{
name = bottom;
pos = (194,0);
},
{
name = top;
pos = (194,500);
}
);
background = {
shapes = (
{
closed = 1;
nodes = (
(292,-6,o),
(383,39,o),
(383,139,cs),
(383,260,o),
(263,289,o),
(220,304,cs),
(155,327,o),
(121,339,o),
(121,382,cs),
(121,420,o),
(149,443,o),
(199,443,cs),
(236,443,o),
(270,425,o),
(298,390,c),
(346,436,l),
(305,485,o),
(259,506,o),
(196,506,cs),
(107,506,o),
(51,450,o),
(51,376,cs),
(51,290,o),
(135,263,o),
(219,233,cs),
(262,219,o),
(313,199,o),
(313,139,cs),
(313,85,o),
(270,58,o),
(208,58,cs),
(141,58,o),
(109,83,o),
(75,127,c),
(20,80,l),
(64,34,o),
(115,-6,o),
(208,-6,cs)
);
}
);
};
hints = (
{
horizontal = 1;
place = (-5,64);
type = Stem;
},
{
horizontal = 1;
place = (445,63);
type = Stem;
},
{
place = (61,70);
type = Stem;
},
{
place = (323,70);
type = Stem;
}
);
layerId = "1041D826-7B5A-4F1A-81FD-3B5FB25AF0FC";
shapes = (
{
closed = 1;
nodes = (
(301,-6,o),
(383,49,o),
(383,149,cs),
(383,328,o),
(121,281,o),
(121,379,cs),
(121,417,o),
(149,443,o),
(199,443,cs),
(237,443,o),
(270,425,o),
(298,390,c),
(348,435,l),
(307,484,o),
(259,506,o),
(196,506,cs),
(107,506,o),
(51,453,o),
(51,379,cs),
(51,229,o),
(313,284,o),
(313,149,cs),
(313,95,o),
(270,58,o),
(208,58,cs),
(151,58,o),
(104,83,o),
(70,126,c),
(20,80,l),
(64,34,o),
(125,-6,o),
(208,-6,cs)
);
}
);
width = 408;
},
{
anchors = (
{
name = bottom;
pos = (235,0);
},
{
name = top;
pos = (235,500);
}
);
hints = (
{
horizontal = 1;
place = (-4,123);
type = Stem;
},
{
horizontal = 1;
place = (392,116);
type = Stem;
},
{
place = (42,137);
type = Stem;
},
{
place = (277,127);
type = Stem;
}
);
layerId = "3B5F2A21-9AC0-43BD-916B-7DC2040966BF";
shapes = (
{
closed = 1;
nodes = (
(339,-6,o),
(436,44,o),
(436,157,cs),
(436,321,o),
(206,311,o),
(206,360,cs),
(206,379,o),
(222,385,o),
(238,385,cs),
(271,385,o),
(297,362,o),
(314,338,c),
(410,428,l),
(360,482,o),
(308,506,o),
(233,506,cs),
(136,506,o),
(69,440,o),
(69,362,cs),
(69,206,o),
(299,244,o),
(299,157,cs),
(299,134,o),
(279,117,o),
(242,117,cs),
(194,117,o),
(158,140,o),
(125,185,c),
(30,96,l),
(69,53,o),
(137,-6,o),
(242,-6,cs)
);
}
);
width = 471;
},
{
anchors = (
{
name = bottom;
pos = (167,0);
},
{
name = top;
pos = (167,500);
}
);
hints = (
{
horizontal = 1;
place = (-6,25);
type = Stem;
},
{
horizontal = 1;
place = (480,28);
type = Stem;
},
{
place = (74,25);
type = Stem;
},
{
place = (354,32);
type = Stem;
}
);
layerId = "2AB56609-6B3E-483D-8034-BAE7113127E2";
shapes = (
{
closed = 1;
nodes = (
(276,-6,o),
(348,52,o),
(348,144,cs),
(348,333,o),
(64,261,o),
(64,392,cs),
(64,442,o),
(100,482,o),
(173,482,cs),
(214,482,o),
(252,467,o),
(287,425,c),
(307,440,l),
(272,485,o),
(226,506,o),
(171,506,cs),
(88,506,o),
(39,462,o),
(39,390,cs),
(39,244,o),
(322,311,o),
(322,144,cs),
(322,69,o),
(264,19,o),
(185,19,cs),
(122,19,o),
(68,45,o),
(33,87,c),
(13,69,l),
(61,21,o),
(117,-6,o),
(185,-6,cs)
);
}
);
width = 366;
},
{
anchors = (
{
name = bottom;
pos = (242,0);
},
{
name = top;
pos = (242,500);
}
);
hints = (
{
horizontal = 1;
place = (-4,133);
type = Stem;
},
{
horizontal = 1;
place = (383,125);
type = Stem;
},
{
place = (39,148);
type = Stem;
},
{
place = (269,137);
type = Stem;
}
);
layerId = "1DB3F64C-B148-42AA-8299-ED68ABA9E6AC";
shapes = (
{
closed = 1;
nodes = (
(345,-6,o),
(445,43,o),
(445,158,cs),
(445,320,o),
(220,316,o),
(220,357,cs),
(220,373,o),
(234,375,o),
(245,375,cs),
(277,375,o),
(302,352,o),
(317,329,c),
(420,427,l),
(369,482,o),
(316,506,o),
(239,506,cs),
(141,506,o),
(72,438,o),
(72,359,cs),
(72,202,o),
(297,237,o),
(297,158,cs),
(297,141,o),
(281,127,o),
(248,127,cs),
(201,127,o),
(167,150,o),
(134,195,c),
(32,99,l),
(70,56,o),
(139,-6,o),
(248,-6,cs)
);
}
);
width = 481.5;
}
);
note = s;
unicode = 115;
},
{
glyphname = germandbls;
kernLeft = germandbls;
kernRight = germandbls;
lastChange = "2023-09-13 12:05:25 +0000";
layers = (
{
hints = (
{
horizontal = 1;
place = (0,70);
type = Stem;
},
{
horizontal = 1;
place = (341,70);
type = Stem;
},
{
horizontal = 1;
place = (657,70);
type = Stem;
},
{
place = (55,70);
type = Stem;
},
{
place = (448,70);
type = Stem;
},
{
place = (404,70);
type = Stem;
}
);
layerId = "1041D826-7B5A-4F1A-81FD-3B5FB25AF0FC";
shapes = (
{
closed = 1;
nodes = (
(120,0,l),
(120,700,l),
(50,700,l),
(50,0,l)
);
},
{
closed = 1;
nodes = (
(527,-3,o),
(615,94,o),
(615,208,cs),
(615,335,o),
(528,404,o),
(433,404,c),
(433,375,l),
(522,375,o),
(574,456,o),
(574,529,cs),
(574,621,o),
(494,700,o),
(396,700,c),
(396,632,l),
(456,632,o),
(504,588,o),
(504,529,cs),
(504,467,o),
(466,416,o),
(376,416,cs),
(364,416,l),
(364,358,l),
(376,358,ls),
(486,358,o),
(545,290,o),
(545,208,cs),
(545,125,o),
(486,65,o),
(396,65,cs),
(331,65,o),
(288,95,o),
(256,159,c),
(193,130,l),
(228,48,o),
(307,-3,o),
(396,-3,cs)
);
},
{
closed = 1;
nodes = (
(50,632,l),
(396,632,l),
(396,700,l),
(50,700,l)
);
}
);
width = 645;
},
{
hints = (
{
horizontal = 1;
place = (1,138);
type = Stem;
},
{
horizontal = 1;
place = (306,138);
type = Stem;
},
{
horizontal = 1;
place = (588,138);
type = Stem;
},
{
place = (49,143);
type = Stem;
},
{
place = (371,143);
type = Stem;
},
{
place = (453,143);
type = Stem;
}
);
layerId = "3B5F2A21-9AC0-43BD-916B-7DC2040966BF";
shapes = (
{
closed = 1;
nodes = (
(193,0,l),
(193,700,l),
(50,700,l),
(50,0,l)
);
},
{
closed = 1;
nodes = (
(602,-3,o),
(696,102,o),
(696,223,cs),
(696,349,o),
(627,418,o),
(518,418,c),
(518,355,l),
(624,355,o),
(664,451,o),
(664,505,cs),
(664,606,o),
(576,700,o),
(461,700,c),
(461,557,l),
(500,557,o),
(524,537,o),
(524,505,cs),
(524,468,o),
(502,439,o),
(437,439,cs),
(423,439,l),
(423,323,l),
(434,323,ls),
(518,323,o),
(554,277,o),
(554,223,cs),
(554,168,o),
(518,130,o),
(461,130,cs),
(394,130,o),
(370,180,o),
(363,221,c),
(233,165,l),
(248,95,o),
(331,-3,o),
(461,-3,cs)
);
},
{
closed = 1;
nodes = (
(50,557,l),
(461,557,l),
(461,700,l),
(50,700,l)
);
}
);
width = 726;
},
{
associatedMasterId = "3B5F2A21-9AC0-43BD-916B-7DC2040966BF";
hints = (
{
horizontal = 1;
place = (1,138);
type = Stem;
},
{
horizontal = 1;
place = (306,138);
type = Stem;
},
{
horizontal = 1;
place = (588,138);
type = Stem;
},
{
place = (49,143);
type = Stem;
},
{
place = (371,143);
type = Stem;
},
{
place = (453,143);
type = Stem;
}
);
layerId = "303FFCB4-ADD2-46EF-A357-D55CF55319A4";
name = "26 juil. 23  17:33";
shapes = (
{
closed = 1;
nodes = (
(192,1,l),
(192,495,ls),
(192,537,o),
(196,588,o),
(274,588,cs),
(352,588,o),
(371,551,o),
(371,514,cs),
(371,480,o),
(348,445,o),
(311,444,cs),
(297,444,l),
(297,306,l),
(363,306,ls),
(427,306,o),
(453,273,o),
(453,223,cs),
(453,176,o),
(417,139,o),
(372,139,cs),
(354,139,o),
(346,142,o),
(330,151,c),
(226,58,l),
(253,27,o),
(315,1,o),
(372,1,cs),
(496,1,o),
(596,101,o),
(596,223,cs),
(596,303,o),
(553,374,o),
(488,412,c),
(506,447,o),
(514,484,o),
(514,514,cs),
(514,578,o),
(473,726,o),
(274,726,cs),
(62,726,o),
(49,577,o),
(49,495,cs),
(49,1,l)
);
}
);
width = 600;
},
{
associatedMasterId = "1041D826-7B5A-4F1A-81FD-3B5FB25AF0FC";
hints = (
{
horizontal = 1;
place = (0,70);
type = Stem;
},
{
horizontal = 1;
place = (341,70);
type = Stem;
},
{
horizontal = 1;
place = (657,70);
type = Stem;
},
{
place = (55,70);
type = Stem;
},
{
place = (448,70);
type = Stem;
},
{
place = (404,70);
type = Stem;
}
);
layerId = "B3C8B24E-FFA1-4B57-9FC8-C3351EBC4C0C";
name = "26 juil. 23  17:33";
shapes = (
{
closed = 1;
nodes = (
(125,0,l),
(125,510,ls),
(125,559,o),
(132,657,o),
(262,657,cs),
(387,657,o),
(404,580,o),
(404,532,cs),
(404,485,o),
(383,411,o),
(302,411,cs),
(273,411,l),
(273,341,l),
(302,341,ls),
(403,341,o),
(448,281,o),
(448,206,cs),
(448,131,o),
(387,70,o),
(312,70,cs),
(285,70,o),
(263,77,o),
(241,90,c),
(205,30,l),
(236,11,o),
(273,0,o),
(312,0,cs),
(426,0,o),
(518,92,o),
(518,206,cs),
(518,282,o),
(476,349,o),
(414,384,c),
(459,428,o),
(474,494,o),
(474,532,cs),
(474,589,o),
(447,727,o),
(262,727,cs),
(67,727,o),
(55,562,o),
(55,510,cs),
(55,0,l)
);
}
);
width = 600;
},
{
hints = (
{
horizontal = 1;
place = (-1,25);
type = Stem;
},
{
horizontal = 1;
place = (364,25);
type = Stem;
},
{
horizontal = 1;
place = (703,25);
type = Stem;
},
{
place = (59,21);
type = Stem;
},
{
place = (445,21);
type = Stem;
},
{
place = (426,21);
type = Stem;
}
);
layerId = "2AB56609-6B3E-483D-8034-BAE7113127E2";
shapes = (
{
closed = 1;
nodes = (
(71,0,l),
(71,700,l),
(50,700,l),
(50,0,l)
);
},
{
closed = 1;
nodes = (
(477,-3,o),
(561,89,o),
(561,198,cs),
(561,326,o),
(462,395,o),
(376,395,c),
(376,388,l),
(454,388,o),
(514,459,o),
(514,545,cs),
(514,631,o),
(439,700,o),
(353,700,c),
(353,682,l),
(427,682,o),
(491,622,o),
(491,545,cs),
(491,466,o),
(442,401,o),
(335,401,cs),
(325,401,l),
(325,381,l),
(337,381,ls),
(465,381,o),
(539,299,o),
(539,198,cs),
(539,96,o),
(465,22,o),
(353,22,cs),
(289,22,o),
(233,38,o),
(185,118,c),
(166,107,l),
(215,17,o),
(291,-3,o),
(353,-3,cs)
);
},
{
closed = 1;
nodes = (
(50,682,l),
(353,682,l),
(353,700,l),
(50,700,l)
);
}
);
width = 591;
},
{
hints = (
{
horizontal = 1;
place = (1,149);
type = Stem;
},
{
horizontal = 1;
place = (300,149);
type = Stem;
},
{
horizontal = 1;
place = (577,149);
type = Stem;
},
{
place = (48,155);
type = Stem;
},
{
place = (454,155);
type = Stem;
},
{
place = (366,155);
type = Stem;
}
);
layerId = "1DB3F64C-B148-42AA-8299-ED68ABA9E6AC";
shapes = (
{
closed = 1;
nodes = (
(205,0,l),
(205,700,l),
(50,700,l),
(50,0,l)
);
},
{
closed = 1;
nodes = (
(615,-3,o),
(710,103,o),
(710,226,cs),
(710,351,o),
(644,420,o),
(532,420,c),
(532,352,l),
(641,352,o),
(679,450,o),
(679,501,cs),
(679,604,o),
(590,700,o),
(472,700,c),
(472,545,l),
(507,545,o),
(527,529,o),
(527,501,cs),
(527,468,o),
(508,443,o),
(447,443,cs),
(433,443,l),
(433,317,l),
(444,317,ls),
(523,317,o),
(556,275,o),
(556,226,cs),
(556,175,o),
(523,141,o),
(472,141,cs),
(405,141,o),
(384,194,o),
(381,231,c),
(240,171,l),
(251,103,o),
(335,-3,o),
(472,-3,cs)
);
},
{
closed = 1;
nodes = (
(50,545,l),
(472,545,l),
(472,700,l),
(50,700,l)
);
}
);
width = 739.5;
}
);
note = germandbls;
unicode = 223;
},
{
glyphname = t;
kernLeft = t;
kernRight = t;
lastChange = "2023-09-13 12:05:25 +0000";
layers = (
{
anchors = (
{
name = bottom;
pos = (210,0);
},
{
name = top;
pos = (143,700);
}
);
hints = (
{
horizontal = 1;
place = (-2,61.64);
type = Stem;
},
{
horizontal = 1;
place = (443,64);
type = Stem;
},
{
place = (86,70);
type = Stem;
}
);
layerId = "1041D826-7B5A-4F1A-81FD-3B5FB25AF0FC";
shapes = (
{
closed = 1;
nodes = (
(254,-6,o),
(304,7,o),
(334,28,c),
(304,84,l),
(282,69,o),
(256,60,o),
(223,60,cs),
(175,60,o),
(160,95,o),
(160,160,cs),
(160,443,l),
(317,443,l),
(317,507,l),
(160,507,l),
(160,700,l),
(90,700,l),
(90,507,l),
(10,507,l),
(10,443,l),
(90,443,l),
(90,155,ls),
(90,61,o),
(112,-6,o),
(218,-6,cs)
);
}
);
width = 341;
},
{
anchors = (
{
name = bottom;
pos = (220,0);
},
{
name = top;
pos = (183,700);
}
);
hints = (
{
horizontal = 1;
place = (-5,114);
type = Stem;
},
{
horizontal = 1;
place = (394,112);
type = Stem;
},
{
place = (63,137);
type = Stem;
}
);
layerId = "3B5F2A21-9AC0-43BD-916B-7DC2040966BF";
shapes = (
{
closed = 1;
nodes = (
(297,-6,o),
(339,16,o),
(367,37,c),
(310,144,l),
(299,131,o),
(281,120,o),
(258,120,cs),
(236,120,o),
(221,130,o),
(221,161,cs),
(221,382,l),
(350,382,l),
(350,506,l),
(221,506,l),
(221,700,l),
(84,700,l),
(84,506,l),
(10,506,l),
(10,382,l),
(84,382,l),
(84,134,ls),
(84,37,o),
(133,-6,o),
(228,-6,cs)
);
}
);
width = 367;
},
{
anchors = (
{
name = bottom;
pos = (203,0);
},
{
name = top;
pos = (116,700);
}
);
hints = (
{
horizontal = 1;
place = (0,27);
type = Stem;
},
{
horizontal = 1;
place = (476,32);
type = Stem;
},
{
place = (101,25);
type = Stem;
}
);
layerId = "2AB56609-6B3E-483D-8034-BAE7113127E2";
shapes = (
{
closed = 1;
nodes = (
(225,-6,o),
(281,1,o),
(312,22,c),
(300,44,l),
(271,28,o),
(239,20,o),
(200,20,cs),
(134,20,o),
(119,72,o),
(119,159,cs),
(119,484,l),
(295,484,l),
(295,508,l),
(119,508,l),
(119,700,l),
(94,700,l),
(94,508,l),
(10,508,l),
(10,484,l),
(94,484,l),
(94,169,ls),
(94,77,o),
(98,-6,o),
(211,-6,cs)
);
}
);
width = 323.66667;
},
{
anchors = (
{
name = bottom;
pos = (222,0);
},
{
name = top;
pos = (190,700);
}
);
hints = (
{
horizontal = 1;
place = (-6,123);
type = Stem;
},
{
horizontal = 1;
place = (386,120);
type = Stem;
},
{
place = (59,148);
type = Stem;
}
);
layerId = "1DB3F64C-B148-42AA-8299-ED68ABA9E6AC";
shapes = (
{
closed = 1;
nodes = (
(304,-6,o),
(345,18,o),
(373,39,c),
(311,154,l),
(302,141,o),
(285,130,o),
(264,130,cs),
(246,130,o),
(231,136,o),
(231,161,cs),
(231,372,l),
(356,372,l),
(356,506,l),
(231,506,l),
(231,700,l),
(83,700,l),
(83,506,l),
(10,506,l),
(10,372,l),
(83,372,l),
(83,131,ls),
(83,33,o),
(137,-6,o),
(230,-6,cs)
);
}
);
width = 371.33333;
}
);
note = t;
unicode = 116;
},
{
glyphname = v;
kernLeft = v;
kernRight = v;
lastChange = "2023-09-13 12:05:25 +0000";
layers = (
{
anchors = (
{
name = bottom;
pos = (246,0);
},
{
name = top;
pos = (246,500);
}
);
hints = (
{
horizontal = 1;
place = (0,500);
type = Stem;
},
{
place = (10,449);
type = Stem;
}
);
layerId = "1041D826-7B5A-4F1A-81FD-3B5FB25AF0FC";
shapes = (
{
closed = 1;
nodes = (
(275,0,l),
(482,500,l),
(407,500,l),
(241,92,l),
(251,92,l),
(85,500,l),
(10,500,l),
(217,0,l)
);
}
);
width = 492;
},
{
anchors = (
{
name = bottom;
pos = (275,0);
},
{
name = top;
pos = (275,500);
}
);
hints = (
{
horizontal = 1;
place = (0,506);
type = Stem;
},
{
place = (-15,498);
type = Stem;
}
);
layerId = "3B5F2A21-9AC0-43BD-916B-7DC2040966BF";
shapes = (
{
closed = 1;
nodes = (
(330,0,l),
(540,500,l),
(392,500,l),
(270,196,l),
(280,196,l),
(158,500,l),
(10,500,l),
(220,0,l)
);
}
);
width = 550;
},
{
anchors = (
{
name = bottom;
pos = (227,0);
},
{
name = top;
pos = (227,500);
}
);
hints = (
{
horizontal = 1;
place = (0,496);
type = Stem;
},
{
place = (27,416);
type = Stem;
}
);
layerId = "2AB56609-6B3E-483D-8034-BAE7113127E2";
shapes = (
{
closed = 1;
nodes = (
(238,0,l),
(443,500,l),
(417,500,l),
(222,23,l),
(232,23,l),
(36,500,l),
(10,500,l),
(215,0,l)
);
}
);
width = 453.33333;
},
{
anchors = (
{
name = bottom;
pos = (280,0);
},
{
name = top;
pos = (280,500);
}
);
hints = (
{
horizontal = 1;
place = (0,507);
type = Stem;
},
{
place = (-19,506);
type = Stem;
}
);
layerId = "1DB3F64C-B148-42AA-8299-ED68ABA9E6AC";
shapes = (
{
closed = 1;
nodes = (
(339,0,l),
(550,500,l),
(390,500,l),
(275,213,l),
(285,213,l),
(170,500,l),
(10,500,l),
(221,0,l)
);
}
);
width = 559.66667;
}
);
note = v;
unicode = 118;
},
{
glyphname = w;
kernLeft = w;
kernRight = w;
lastChange = "2023-09-13 12:05:25 +0000";
layers = (
{
anchors = (
{
name = bottom;
pos = (362,0);
},
{
name = top;
pos = (362,500);
}
);
hints = (
{
horizontal = 1;
place = (0,500);
type = Stem;
},
{
place = (15,650);
type = Stem;
}
);
layerId = "1041D826-7B5A-4F1A-81FD-3B5FB25AF0FC";
shapes = (
{
closed = 1;
nodes = (
(10,500,l),
(177,0,l),
(234,0,l),
(371,415,l),
(354,415,l),
(491,0,l),
(548,0,l),
(715,500,l),
(640,500,l),
(512,79,l),
(527,79,l),
(399,500,l),
(326,500,l),
(198,79,l),
(213,79,l),
(85,500,l)
);
}
);
width = 725;
},
{
anchors = (
{
name = bottom;
pos = (388,0);
},
{
name = top;
pos = (388,500);
}
);
hints = (
{
horizontal = 1;
place = (0,506);
type = Stem;
},
{
place = (9,662);
type = Stem;
}
);
layerId = "3B5F2A21-9AC0-43BD-916B-7DC2040966BF";
shapes = (
{
closed = 1;
nodes = (
(10,500,l),
(180,0,l),
(292,0,l),
(403,325,l),
(373,325,l),
(484,0,l),
(596,0,l),
(766,500,l),
(618,500,l),
(528,166,l),
(552,166,l),
(462,500,l),
(314,500,l),
(224,166,l),
(248,166,l),
(158,500,l)
);
}
);
width = 776;
},
{
anchors = (
{
name = bottom;
pos = (345,0);
},
{
name = top;
pos = (345,500);
}
);
hints = (
{
horizontal = 1;
place = (0,496);
type = Stem;
},
{
place = (19,642);
type = Stem;
}
);
layerId = "2AB56609-6B3E-483D-8034-BAE7113127E2";
shapes = (
{
closed = 1;
nodes = (
(10,500,l),
(175,0,l),
(195,0,l),
(350,475,l),
(341,475,l),
(496,0,l),
(516,0,l),
(681,500,l),
(655,500,l),
(501,21,l),
(510,21,l),
(357,500,l),
(334,500,l),
(181,21,l),
(190,21,l),
(36,500,l)
);
}
);
width = 691;
},
{
anchors = (
{
name = bottom;
pos = (392,0);
},
{
name = top;
pos = (392,500);
}
);
hints = (
{
horizontal = 1;
place = (0,507);
type = Stem;
},
{
place = (8,664);
type = Stem;
}
);
layerId = "1DB3F64C-B148-42AA-8299-ED68ABA9E6AC";
shapes = (
{
closed = 1;
nodes = (
(10,500,l),
(181,0,l),
(302,0,l),
(408,310,l),
(376,310,l),
(483,0,l),
(604,0,l),
(775,500,l),
(614,500,l),
(531,181,l),
(556,181,l),
(473,500,l),
(312,500,l),
(228,181,l),
(254,181,l),
(170,500,l)
);
}
);
width = 784.5;
}
);
note = w;
unicode = 119;
},
{
glyphname = x;
kernLeft = x;
kernRight = x;
lastChange = "2023-09-13 12:05:25 +0000";
layers = (
{
anchors = (
{
name = bottom;
pos = (264,0);
},
{
name = top;
pos = (264,500);
}
);
hints = (
{
horizontal = 1;
place = (0,500);
type = Stem;
},
{
place = (15,518);
type = Stem;
}
);
layerId = "1041D826-7B5A-4F1A-81FD-3B5FB25AF0FC";
shapes = (
{
closed = 1;
nodes = (
(93,0,l),
(264,201,l),
(435,0,l),
(523,0,l),
(311,251,l),
(517,500,l),
(429,500,l),
(267,303,l),
(100,500,l),
(11,500,l),
(220,254,l),
(5,0,l)
);
}
);
width = 528;
},
{
anchors = (
{
name = bottom;
pos = (307,0);
},
{
name = top;
pos = (307,500);
}
);
hints = (
{
horizontal = 1;
place = (0,506);
type = Stem;
},
{
place = (2,605);
type = Stem;
}
);
layerId = "3B5F2A21-9AC0-43BD-916B-7DC2040966BF";
shapes = (
{
closed = 1;
nodes = (
(180,0,l),
(307,150,l),
(435,0,l),
(609,0,l),
(398,248,l),
(606,500,l),
(432,500,l),
(311,351,l),
(192,500,l),
(18,500,l),
(220,253,l),
(5,0,l)
);
}
);
width = 614;
},
{
anchors = (
{
name = bottom;
pos = (235,0);
},
{
name = top;
pos = (235,500);
}
);
hints = (
{
horizontal = 1;
place = (0,496);
type = Stem;
},
{
place = (24,460);
type = Stem;
}
);
layerId = "2AB56609-6B3E-483D-8034-BAE7113127E2";
shapes = (
{
closed = 1;
nodes = (
(35,0,l),
(235,235,l),
(435,0,l),
(466,0,l),
(253,253,l),
(458,500,l),
(427,500,l),
(238,271,l),
(39,500,l),
(6,500,l),
(220,255,l),
(5,0,l)
);
}
);
width = 470.66667;
},
{
anchors = (
{
name = bottom;
pos = (314,0);
},
{
name = top;
pos = (314,500);
}
);
hints = (
{
horizontal = 1;
place = (0,507);
type = Stem;
},
{
place = (0,620);
type = Stem;
}
);
layerId = "1DB3F64C-B148-42AA-8299-ED68ABA9E6AC";
shapes = (
{
closed = 1;
nodes = (
(195,0,l),
(314,142,l),
(435,0,l),
(623,0,l),
(413,248,l),
(621,500,l),
(433,500,l),
(318,359,l),
(207,500,l),
(19,500,l),
(220,253,l),
(5,0,l)
);
}
);
width = 628.33333;
}
);
note = x;
unicode = 120;
},
{
glyphname = y;
kernLeft = y;
kernRight = y;
lastChange = "2023-09-13 12:05:25 +0000";
layers = (
{
anchors = (
{
name = bottom;
pos = (297,0);
},
{
name = top;
pos = (297,500);
}
);
hints = (
{
horizontal = 1;
place = (-200,700);
type = Stem;
},
{
place = (9,579);
type = Stem;
}
);
layerId = "1041D826-7B5A-4F1A-81FD-3B5FB25AF0FC";
shapes = (
{
closed = 1;
nodes = (
(180,-200,l),
(589,500,l),
(510,500,l),
(301,143,l),
(91,500,l),
(10,500,l),
(261,75,l),
(100,-200,l)
);
}
);
width = 594;
},
{
anchors = (
{
name = bottom;
pos = (327,0);
},
{
name = top;
pos = (327,500);
}
);
hints = (
{
horizontal = 1;
place = (-186,692);
type = Stem;
},
{
place = (9,638);
type = Stem;
}
);
layerId = "3B5F2A21-9AC0-43BD-916B-7DC2040966BF";
shapes = (
{
closed = 1;
nodes = (
(243,-200,l),
(644,500,l),
(489,500,l),
(331,219,l),
(167,500,l),
(10,500,l),
(253,86,l),
(87,-200,l)
);
}
);
width = 654;
},
{
anchors = (
{
name = bottom;
pos = (277,0);
},
{
name = top;
pos = (277,500);
}
);
hints = (
{
horizontal = 1;
place = (-209,705);
type = Stem;
},
{
place = (9,540);
type = Stem;
}
);
layerId = "2AB56609-6B3E-483D-8034-BAE7113127E2";
shapes = (
{
closed = 1;
nodes = (
(138,-200,l),
(552,500,l),
(524,500,l),
(281,92,l),
(40,500,l),
(10,500,l),
(266,68,l),
(109,-200,l)
);
}
);
width = 554;
},
{
anchors = (
{
name = bottom;
pos = (332,0);
},
{
name = top;
pos = (332,500);
}
);
hints = (
{
horizontal = 1;
place = (-184,691);
type = Stem;
},
{
place = (9,648);
type = Stem;
}
);
layerId = "1DB3F64C-B148-42AA-8299-ED68ABA9E6AC";
shapes = (
{
closed = 1;
nodes = (
(254,-200,l),
(653,500,l),
(486,500,l),
(336,232,l),
(180,500,l),
(10,500,l),
(252,88,l),
(85,-200,l)
);
}
);
width = 664;
}
);
note = y;
unicode = 121;
},
{
glyphname = z;
kernLeft = z;
kernRight = z;
lastChange = "2023-09-13 12:05:25 +0000";
layers = (
{
anchors = (
{
name = bottom;
pos = (252,0);
},
{
name = top;
pos = (252,500);
}
);
hints = (
{
horizontal = 1;
place = (0,64);
type = Stem;
},
{
horizontal = 1;
place = (436,64);
type = Stem;
},
{
place = (62,419);
type = Stem;
}
);
layerId = "1041D826-7B5A-4F1A-81FD-3B5FB25AF0FC";
shapes = (
{
closed = 1;
nodes = (
(458,0,l),
(458,70,l),
(141,70,l),
(464,454,l),
(464,500,l),
(44,500,l),
(44,430,l),
(357,430,l),
(40,52,l),
(40,0,l)
);
}
);
width = 504;
},
{
anchors = (
{
name = bottom;
pos = (265,0);
},
{
name = top;
pos = (265,500);
}
);
hints = (
{
horizontal = 1;
place = (0,127);
type = Stem;
},
{
horizontal = 1;
place = (373,133);
type = Stem;
},
{
place = (53,436);
type = Stem;
}
);
layerId = "3B5F2A21-9AC0-43BD-916B-7DC2040966BF";
shapes = (
{
closed = 1;
nodes = (
(491,0,l),
(491,127,l),
(246,127,l),
(482,412,l),
(482,506,l),
(40,506,l),
(40,373,l),
(285,373,l),
(52,93,l),
(52,0,l)
);
}
);
width = 531;
},
{
anchors = (
{
name = bottom;
pos = (243,0);
},
{
name = top;
pos = (243,500);
}
);
hints = (
{
horizontal = 1;
place = (0,22);
type = Stem;
},
{
horizontal = 1;
place = (478,18);
type = Stem;
},
{
place = (68,408);
type = Stem;
}
);
layerId = "2AB56609-6B3E-483D-8034-BAE7113127E2";
shapes = (
{
closed = 1;
nodes = (
(436,0,l),
(436,32,l),
(71,32,l),
(452,482,l),
(452,496,l),
(47,496,l),
(47,468,l),
(405,468,l),
(32,25,l),
(32,0,l)
);
}
);
width = 486;
},
{
anchors = (
{
name = bottom;
pos = (267,0);
},
{
name = top;
pos = (267,500);
}
);
hints = (
{
horizontal = 1;
place = (0,138);
type = Stem;
},
{
horizontal = 1;
place = (363,145);
type = Stem;
},
{
place = (52,439);
type = Stem;
}
);
layerId = "1DB3F64C-B148-42AA-8299-ED68ABA9E6AC";
shapes = (
{
closed = 1;
nodes = (
(497,0,l),
(497,137,l),
(264,137,l),
(485,405,l),
(485,507,l),
(39,507,l),
(39,364,l),
(273,364,l),
(54,100,l),
(54,0,l)
);
}
);
width = 535.5;
}
);
note = z;
unicode = 122;
},
{
glyphname = a.ss01;
kernLeft = d;
kernRight = d;
lastChange = "2023-09-13 12:05:25 +0000";
layers = (
{
anchors = (
{
name = bottom;
pos = (290,0);
},
{
name = ogonek;
pos = (446,-6);
},
{
name = top;
pos = (284,500);
}
);
hints = (
{
horizontal = 1;
place = (-6,64);
type = Stem;
},
{
horizontal = 1;
place = (246,57);
type = Stem;
},
{
horizontal = 1;
place = (445,64);
type = Stem;
},
{
place = (47,70);
type = Stem;
},
{
place = (371,70);
type = Stem;
},
{
horizontal = 1;
place = (-6,64);
type = Stem;
},
{
horizontal = 1;
place = (454,64);
type = Stem;
},
{
place = (37,70);
type = Stem;
},
{
place = (449,70);
type = Stem;
},
{
horizontal = 1;
place = (506,-64);
type = Stem;
},
{
horizontal = 1;
place = (46,-64);
type = Stem;
},
{
place = (501,-70);
type = Stem;
},
{
place = (90,-70);
type = Stem;
}
);
layerId = "1041D826-7B5A-4F1A-81FD-3B5FB25AF0FC";
shapes = (
{
closed = 1;
nodes = (
(446,500,l),
(446,429,l),
(407,485,o),
(352,506,o),
(284,506,cs),
(143,506,o),
(35,396,o),
(35,250,cs),
(35,105,o),
(149,-6,o),
(290,-6,cs),
(360,-6,o),
(411,20,o),
(446,71,c),
(446,0,l),
(516,0,l),
(516,500,l)
);
},
{
closed = 1;
nodes = (
(368,442,o),
(425,394,o),
(446,343,c),
(446,155,l),
(428,108,o),
(377,58,o),
(290,58,cs),
(190,58,o),
(105,138,o),
(105,250,cs),
(105,363,o),
(185,442,o),
(284,442,cs)
);
}
);
width = 576;
},
{
anchors = (
{
name = bottom;
pos = (302,0);
},
{
name = ogonek;
pos = (408,-6);
},
{
name = top;
pos = (297,500);
}
);
hints = (
{
horizontal = 1;
place = (-5,126);
type = Stem;
},
{
horizontal = 1;
place = (220,99);
type = Stem;
},
{
horizontal = 1;
place = (392,117);
type = Stem;
},
{
place = (37,127);
type = Stem;
},
{
place = (324,137);
type = Stem;
},
{
horizontal = 1;
place = (-7,128);
type = Stem;
},
{
horizontal = 1;
place = (382,127);
type = Stem;
},
{
place = (32,137);
type = Stem;
},
{
place = (385,137);
type = Stem;
},
{
horizontal = 1;
place = (510,-127);
type = Stem;
},
{
horizontal = 1;
place = (116,-127);
type = Stem;
},
{
place = (537,-138);
type = Stem;
},
{
place = (183,-137);
type = Stem;
}
);
layerId = "3B5F2A21-9AC0-43BD-916B-7DC2040966BF";
shapes = (
{
closed = 1;
nodes = (
(408,500,l),
(408,474,l),
(381,496,o),
(347,506,o),
(297,506,cs),
(143,506,o),
(35,393,o),
(35,250,cs),
(35,106,o),
(149,-6,o),
(302,-6,cs),
(351,-6,o),
(387,6,o),
(408,29,c),
(408,0,l),
(546,0,l),
(546,500,l)
);
},
{
closed = 1;
nodes = (
(359,379,o),
(394,350,o),
(408,320,c),
(408,176,l),
(396,147,o),
(365,121,o),
(302,121,cs),
(229,121,o),
(172,173,o),
(172,250,cs),
(172,323,o),
(224,379,o),
(297,379,cs)
);
}
);
width = 606;
},
{
anchors = (
{
name = bottom;
pos = (282,0);
},
{
name = ogonek;
pos = (471,-6);
},
{
name = top;
pos = (275,500);
}
);
hints = (
{
horizontal = 1;
place = (-5,21);
type = Stem;
},
{
horizontal = 1;
place = (263,29);
type = Stem;
},
{
horizontal = 1;
place = (487,22);
type = Stem;
},
{
place = (54,32);
type = Stem;
},
{
place = (402,25);
type = Stem;
},
{
horizontal = 1;
place = (-7,23);
type = Stem;
},
{
horizontal = 1;
place = (495,29);
type = Stem;
},
{
place = (40,25);
type = Stem;
},
{
place = (492,25);
type = Stem;
},
{
horizontal = 1;
place = (503,-22);
type = Stem;
},
{
horizontal = 1;
place = (-1,-22);
type = Stem;
},
{
place = (477,-25);
type = Stem;
},
{
place = (28,-25);
type = Stem;
}
);
layerId = "2AB56609-6B3E-483D-8034-BAE7113127E2";
shapes = (
{
closed = 1;
nodes = (
(471,500,l),
(471,399,l),
(424,478,o),
(355,506,o),
(275,506,cs),
(143,506,o),
(35,398,o),
(35,250,cs),
(35,104,o),
(149,-6,o),
(282,-6,cs),
(366,-6,o),
(427,29,o),
(471,99,c),
(471,0,l),
(496,0,l),
(496,500,l)
);
},
{
closed = 1;
nodes = (
(374,484,o),
(446,423,o),
(471,358,c),
(471,141,l),
(449,82,o),
(385,16,o),
(282,16,cs),
(164,16,o),
(60,115,o),
(60,250,cs),
(60,390,o),
(159,484,o),
(275,484,cs)
);
}
);
width = 556;
},
{
anchors = (
{
name = bottom;
pos = (304,0);
},
{
name = ogonek;
pos = (402,-6);
},
{
name = top;
pos = (299,500);
}
);
hints = (
{
horizontal = 1;
place = (-7,139);
type = Stem;
},
{
horizontal = 1;
place = (216,106);
type = Stem;
},
{
horizontal = 1;
place = (372,138);
type = Stem;
},
{
place = (36,137);
type = Stem;
},
{
place = (316,148);
type = Stem;
},
{
horizontal = 1;
place = (-5,136);
type = Stem;
},
{
horizontal = 1;
place = (382,126);
type = Stem;
},
{
place = (32,151);
type = Stem;
},
{
place = (375,151);
type = Stem;
},
{
horizontal = 1;
place = (511,-138);
type = Stem;
},
{
horizontal = 1;
place = (128,-138);
type = Stem;
},
{
place = (542,-152);
type = Stem;
},
{
place = (197,-151);
type = Stem;
}
);
layerId = "1DB3F64C-B148-42AA-8299-ED68ABA9E6AC";
shapes = (
{
closed = 1;
nodes = (
(402,500,l),
(402,482,l),
(377,498,o),
(346,506,o),
(299,506,cs),
(143,506,o),
(35,393,o),
(35,250,cs),
(35,106,o),
(149,-6,o),
(304,-6,cs),
(350,-6,o),
(383,4,o),
(402,22,c),
(402,0,l),
(551,0,l),
(551,500,l)
);
},
{
closed = 1;
nodes = (
(358,369,o),
(389,343,o),
(402,316,c),
(402,180,l),
(391,154,o),
(363,132,o),
(304,132,cs),
(236,132,o),
(183,179,o),
(183,250,cs),
(183,316,o),
(231,369,o),
(299,369,cs)
);
}
);
width = 611;
}
);
note = a;
},
{
glyphname = f_f;
lastChange = "2023-09-15 14:36:43 +0000";
layers = (
{
anchors = (
{
name = caret_1;
pos = (304,0);
}
);
layerId = "1041D826-7B5A-4F1A-81FD-3B5FB25AF0FC";
shapes = (
{
closed = 1;
nodes = (
(358,653,o),
(367,571,o),
(367,500,c),
(437,500,l),
(437,613,o),
(397,715,o),
(272,715,cs),
(157,715,o),
(103,643,o),
(103,561,cs),
(103,500,l),
(9,500,l),
(9,436,l),
(103,436,l),
(103,0,l),
(173,0,l),
(173,436,l),
(316,436,l),
(316,500,l),
(173,500,l),
(173,551,ls),
(173,613,o),
(206,653,o),
(272,653,cs)
);
},
{
alignment = -1;
pos = (264,0);
ref = f;
}
);
width = 608;
},
{
anchors = (
{
name = caret_1;
pos = (346.5,0);
}
);
layerId = "3B5F2A21-9AC0-43BD-916B-7DC2040966BF";
shapes = (
{
closed = 1;
nodes = (
(352,589,o),
(395,558,o),
(395,500,c),
(532,500,l),
(532,661,o),
(397,711,o),
(312,711,cs),
(152,711,o),
(96,602,o),
(96,542,cs),
(96,500,l),
(15,500,l),
(15,373,l),
(96,373,l),
(96,0,l),
(233,0,l),
(233,373,l),
(355,373,l),
(355,500,l),
(233,500,l),
(233,509,ls),
(233,565,o),
(266,589,o),
(312,589,cs)
);
},
{
alignment = -1;
pos = (299,0);
ref = f;
}
);
width = 693;
},
{
anchors = (
{
name = caret_1;
pos = (275.667,0);
}
);
layerId = "2AB56609-6B3E-483D-8034-BAE7113127E2";
shapes = (
{
closed = 1;
nodes = (
(362,696,o),
(348,580,o),
(348,500,c),
(374,500,l),
(374,581,o),
(397,718,o),
(245,718,cs),
(160,718,o),
(108,670,o),
(108,574,cs),
(108,500,l),
(5,500,l),
(5,478,l),
(108,478,l),
(108,0,l),
(133,0,l),
(133,478,l),
(290,478,l),
(290,500,l),
(133,500,l),
(133,579,ls),
(133,645,o),
(166,696,o),
(245,696,cs)
);
},
{
alignment = -1;
pos = (241,0);
ref = f;
}
);
width = 551.33333;
},
{
anchors = (
{
name = caret_1;
pos = (353.583,0);
}
);
layerId = "1DB3F64C-B148-42AA-8299-ED68ABA9E6AC";
shapes = (
{
closed = 1;
nodes = (
(351,578,o),
(400,556,o),
(400,500,c),
(548,500,l),
(548,669,o),
(397,710,o),
(319,710,cs),
(151,710,o),
(95,595,o),
(95,539,cs),
(95,500,l),
(16,500,l),
(16,363,l),
(95,363,l),
(95,0,l),
(243,0,l),
(243,363,l),
(362,363,l),
(362,500,l),
(243,500,l),
(243,502,ls),
(243,557,o),
(276,578,o),
(319,578,cs)
);
},
{
alignment = -1;
pos = (305,0);
ref = f;
}
);
width = 707.16667;
}
);
metricLeft = f;
metricRight = f;
},
